<svg width="80" height="80" viewBox="0 0 80 80" fill="none" xmlns="http://www.w3.org/2000/svg">
<path d="M76.25 41.25H42.5V7.5C42.5 7.33585 42.4677 7.1733 42.4049 7.02164C42.342 6.86998 42.25 6.73218 42.1339 6.61611C42.0178 6.50003 41.88 6.40796 41.7284 6.34514C41.5767 6.28232 41.4142 6.25 41.25 6.25H6.25C5.25579 6.25114 4.30262 6.64659 3.59961 7.34961C2.89659 8.05262 2.50114 9.00579 2.5 10V53.75C2.50114 54.7442 2.89659 55.6974 3.59961 56.4004C4.30262 57.1034 5.25579 57.4989 6.25 57.5H32.5V67.5H28.75C28.5858 67.5 28.4233 67.5323 28.2716 67.5951C28.12 67.658 27.9822 67.75 27.8661 67.8661C27.75 67.9822 27.658 68.12 27.5951 68.2716C27.5323 68.4233 27.5 68.5858 27.5 68.75V73.75C27.5 73.9142 27.5323 74.0767 27.5951 74.2284C27.658 74.38 27.75 74.5178 27.8661 74.6339C27.9822 74.75 28.12 74.842 28.2716 74.9049C28.4233 74.9677 28.5858 75 28.75 75H51.25C51.4142 75 51.5767 74.9677 51.7284 74.9049C51.88 74.842 52.0178 74.75 52.1339 74.6339C52.25 74.5178 52.342 74.38 52.4049 74.2284C52.4677 74.0767 52.5 73.9142 52.5 73.75V68.75C52.5 68.5858 52.4677 68.4233 52.4049 68.2716C52.342 68.12 52.25 67.9822 52.1339 67.8661C52.0178 67.75 51.88 67.658 51.7284 67.5951C51.5767 67.5323 51.4142 67.5 51.25 67.5H47.5V57.5H73.75C74.7442 57.4989 75.6974 57.1034 76.4004 56.4004C77.1034 55.6974 77.4989 54.7442 77.5 53.75V42.5C77.5 42.3358 77.4677 42.1733 77.4049 42.0216C77.342 41.87 77.25 41.7322 77.1339 41.6161C77.0178 41.5 76.88 41.408 76.7284 41.3451C76.5767 41.2823 76.4142 41.25 76.25 41.25ZM6.25 8.75H40V13.75H5V10C5.00038 9.6686 5.1322 9.35087 5.36654 9.11654C5.60087 8.8822 5.9186 8.75038 6.25 8.75ZM50 72.5H30V70H50V72.5ZM45 67.5H35V57.5H38.75V61.25C38.75 61.5815 38.8817 61.8995 39.1161 62.1339C39.3505 62.3683 39.6685 62.5 40 62.5C40.3315 62.5 40.6495 62.3683 40.8839 62.1339C41.1183 61.8995 41.25 61.5815 41.25 61.25V57.5H45V67.5ZM75 53.75C74.9996 54.0814 74.8678 54.3991 74.6335 54.6335C74.3991 54.8678 74.0814 54.9996 73.75 55H6.25C5.9186 54.9996 5.60087 54.8678 5.36654 54.6335C5.1322 54.3991 5.00038 54.0814 5 53.75V16.25H40V42.5C40 42.6642 40.0323 42.8267 40.0951 42.9784C40.158 43.13 40.25 43.2678 40.3661 43.3839C40.4822 43.5 40.62 43.592 40.7716 43.6549C40.9233 43.7177 41.0858 43.75 41.25 43.75H75V53.75Z" fill="#00bcd4"/>
<path d="M7.5 12.5C8.19036 12.5 8.75 11.9404 8.75 11.25C8.75 10.5596 8.19036 10 7.5 10C6.80964 10 6.25 10.5596 6.25 11.25C6.25 11.9404 6.80964 12.5 7.5 12.5Z" fill="#00bcd4"/>
<path d="M11.25 12.5C11.9404 12.5 12.5 11.9404 12.5 11.25C12.5 10.5596 11.9404 10 11.25 10C10.5596 10 10 10.5596 10 11.25C10 11.9404 10.5596 12.5 11.25 12.5Z" fill="#00bcd4"/>
<path d="M15 12.5C15.6904 12.5 16.25 11.9404 16.25 11.25C16.25 10.5596 15.6904 10 15 10C14.3096 10 13.75 10.5596 13.75 11.25C13.75 11.9404 14.3096 12.5 15 12.5Z" fill="#00bcd4"/>
<path d="M37.5 20C37.5 19.8358 37.4677 19.6733 37.4049 19.5216C37.342 19.37 37.25 19.2322 37.1339 19.1161C37.0178 19 36.88 18.908 36.7284 18.8451C36.5767 18.7823 36.4142 18.75 36.25 18.75H31.25C31.0858 18.75 30.9233 18.7823 30.7716 18.8451C30.62 18.908 30.4822 19 30.3661 19.1161C30.25 19.2322 30.158 19.37 30.0951 19.5216C30.0323 19.6733 30 19.8358 30 20V25H26.25C26.0858 25 25.9233 25.0323 25.7716 25.0951C25.62 25.158 25.4822 25.25 25.3661 25.3661C25.25 25.4822 25.158 25.62 25.0951 25.7716C25.0323 25.9233 25 26.0858 25 26.25V30H21.25C21.0858 30 20.9233 30.0323 20.7716 30.0951C20.62 30.158 20.4822 30.25 20.3661 30.3661C20.25 30.4822 20.158 30.62 20.0951 30.7716C20.0323 30.9233 20 31.0858 20 31.25V36.25H16.25C16.0858 36.25 15.9233 36.2823 15.7716 36.3451C15.62 36.408 15.4822 36.5 15.3661 36.6161C15.25 36.7322 15.158 36.87 15.0951 37.0216C15.0323 37.1733 15 37.3358 15 37.5V41.25H11.25C11.0858 41.25 10.9233 41.2823 10.7716 41.3451C10.62 41.408 10.4822 41.5 10.3661 41.6161C10.25 41.7322 10.158 41.87 10.0951 42.0216C10.0323 42.1733 10 42.3358 10 42.5V46.25H7.5V48.75H42.5V46.25H37.5V20ZM12.5 43.75H15V46.25H12.5V43.75ZM17.5 38.75H20V46.25H17.5V38.75ZM22.5 32.5H25V46.25H22.5V32.5ZM27.5 27.5H30V46.25H27.5V27.5ZM32.5 46.25V21.25H35V46.25H32.5Z" fill="#00bcd4"/>
<path d="M47.5 46.25H45V48.75H47.5V46.25Z" fill="#00bcd4"/>
<path d="M53.75 33.75C54.4375 33.7501 55.1118 33.5612 55.6992 33.2039C56.2866 32.8467 56.7645 32.3348 57.0806 31.7242C57.3968 31.1137 57.539 30.428 57.4917 29.7421C57.4444 29.0562 57.2095 28.3965 56.8126 27.8352C56.4157 27.2738 55.8721 26.8323 55.2412 26.559C54.6103 26.2857 53.9165 26.1911 53.2355 26.2855C52.5545 26.38 51.9125 26.6598 51.3798 27.0944C50.8471 27.5291 50.4442 28.1018 50.215 28.75H45V31.25H50.215C50.4742 31.9806 50.9531 32.613 51.586 33.0606C52.2189 33.5082 52.9748 33.749 53.75 33.75ZM53.75 28.75C53.9972 28.75 54.2389 28.8233 54.4445 28.9607C54.65 29.098 54.8102 29.2932 54.9048 29.5216C54.9995 29.7501 55.0242 30.0014 54.976 30.2439C54.9277 30.4863 54.8087 30.7091 54.6339 30.8839C54.4591 31.0587 54.2363 31.1778 53.9939 31.226C53.7514 31.2742 53.5001 31.2495 53.2716 31.1549C53.0432 31.0602 52.848 30.9 52.7107 30.6945C52.5733 30.4889 52.5 30.2472 52.5 30C52.5004 29.6686 52.6322 29.3509 52.8665 29.1165C53.1009 28.8822 53.4186 28.7504 53.75 28.75Z" fill="#00bcd4"/>
<path d="M73.75 6.25C72.9748 6.25097 72.2189 6.49177 71.586 6.93937C70.9531 7.38697 70.4742 8.01944 70.215 8.75H67.5C67.3197 8.75 67.1415 8.78901 66.9777 8.86435C66.8139 8.93969 66.6683 9.04958 66.5509 9.18648L59.9294 16.9116L55.8839 12.8661C55.7678 12.7501 55.63 12.658 55.4784 12.5951C55.3267 12.5323 55.1642 12.5 55 12.5H45V15H54.4823L59.1161 19.6339C59.2322 19.7499 59.37 19.842 59.5216 19.9049C59.6733 19.9677 59.8358 20 60 20H66.465C66.7599 20.834 67.3401 21.5369 68.1031 21.9845C68.8661 22.4321 69.7628 22.5956 70.6347 22.446C71.5065 22.2964 72.2975 21.8434 72.8676 21.1671C73.4378 20.4907 73.7505 19.6346 73.7505 18.75C73.7505 17.8654 73.4378 17.0093 72.8676 16.3329C72.2975 15.6566 71.5065 15.2036 70.6347 15.054C69.7628 14.9044 68.8661 15.0679 68.1031 15.5155C67.3401 15.9631 66.7599 16.666 66.465 17.5H62.7178L68.0749 11.25H70.215C70.4442 11.8981 70.8472 12.4707 71.3799 12.9053C71.9125 13.3399 72.5544 13.6196 73.2354 13.714C73.9163 13.8084 74.6101 13.7138 75.2409 13.4405C75.8717 13.1672 76.4152 12.7258 76.8121 12.1645C77.2089 11.6032 77.4438 10.9435 77.4911 10.2577C77.5384 9.57188 77.3962 8.88626 77.0802 8.27578C76.7641 7.66529 76.2863 7.15344 75.699 6.79617C75.1117 6.4389 74.4374 6.24996 73.75 6.25ZM70 17.5C70.2472 17.5 70.4889 17.5733 70.6945 17.7107C70.9 17.848 71.0602 18.0432 71.1548 18.2716C71.2495 18.5001 71.2742 18.7514 71.226 18.9939C71.1778 19.2363 71.0587 19.4591 70.8839 19.6339C70.7091 19.8087 70.4863 19.9278 70.2439 19.976C70.0014 20.0242 69.7501 19.9995 69.5216 19.9048C69.2932 19.8102 69.098 19.65 68.9607 19.4445C68.8233 19.2389 68.75 18.9972 68.75 18.75C68.7504 18.4186 68.8822 18.1009 69.1165 17.8665C69.3509 17.6322 69.6686 17.5004 70 17.5ZM73.75 11.25C73.5028 11.25 73.2611 11.1767 73.0555 11.0393C72.85 10.902 72.6898 10.7068 72.5952 10.4784C72.5005 10.2499 72.4758 9.99861 72.524 9.75614C72.5722 9.51366 72.6913 9.29093 72.8661 9.11612C73.0409 8.9413 73.2637 8.82225 73.5061 8.77402C73.7486 8.72579 73.9999 8.75054 74.2284 8.84515C74.4568 8.93976 74.652 9.09998 74.7893 9.30554C74.9267 9.5111 75 9.75277 75 10C74.9996 10.3314 74.8678 10.6491 74.6335 10.8835C74.3991 11.1178 74.0814 11.2496 73.75 11.25Z" fill="#00bcd4"/>
<path d="M58.75 12.5C59.4375 12.5001 60.1118 12.3112 60.6992 11.9539C61.2866 11.5967 61.7645 11.0848 62.0806 10.4742C62.3968 9.86371 62.539 9.17802 62.4917 8.49213C62.4444 7.80624 62.2095 7.14655 61.8126 6.58516C61.4157 6.02378 60.8721 5.58231 60.2412 5.30901C59.6103 5.03572 58.9165 4.94111 58.2355 5.03554C57.5545 5.12997 56.9125 5.4098 56.3798 5.84444C55.8471 6.27908 55.4442 6.8518 55.215 7.5H45V10H55.215C55.4742 10.7306 55.9531 11.363 56.586 11.8106C57.2189 12.2582 57.9748 12.499 58.75 12.5ZM58.75 7.5C58.9972 7.5 59.2389 7.57331 59.4445 7.71066C59.65 7.84802 59.8102 8.04324 59.9048 8.27165C59.9995 8.50006 60.0242 8.75139 59.976 8.99386C59.9278 9.23634 59.8087 9.45907 59.6339 9.63389C59.4591 9.8087 59.2363 9.92775 58.9939 9.97598C58.7514 10.0242 58.5001 9.99946 58.2716 9.90485C58.0432 9.81024 57.848 9.65003 57.7107 9.44446C57.5733 9.2389 57.5 8.99723 57.5 8.75C57.5004 8.4186 57.6322 8.10088 57.8665 7.86654C58.1009 7.6322 58.4186 7.50038 58.75 7.5Z" fill="#00bcd4"/>
<path d="M56.6165 23.3842C56.235 24.1827 56.1481 25.0904 56.3711 25.9469C56.5941 26.8033 57.1128 27.5533 57.8353 28.0643C58.5579 28.5753 59.4378 28.8144 60.3196 28.7393C61.2014 28.6642 62.0283 28.2798 62.6541 27.654C63.2798 27.0283 63.6642 26.2014 63.7393 25.3196C63.8144 24.4378 63.5753 23.5579 63.0643 22.8353C62.5533 22.1128 61.8033 21.5941 60.9469 21.3711C60.0904 21.1481 59.1827 21.235 58.3842 21.6165L55.8839 19.1161C55.7678 19.0001 55.63 18.908 55.4784 18.8451C55.3267 18.7823 55.1642 18.75 55 18.75H45V21.25H54.4823L56.6165 23.3842ZM61.25 25C61.25 25.2472 61.1767 25.4889 61.0393 25.6945C60.902 25.9 60.7068 26.0602 60.4784 26.1548C60.2499 26.2495 59.9986 26.2742 59.7561 26.226C59.5137 26.1778 59.2909 26.0587 59.1161 25.8839C58.9413 25.7091 58.8222 25.4863 58.774 25.2439C58.7258 25.0014 58.7505 24.7501 58.8452 24.5216C58.9398 24.2932 59.1 24.098 59.3055 23.9607C59.5111 23.8233 59.7528 23.75 60 23.75C60.3314 23.7504 60.6491 23.8822 60.8835 24.1165C61.1178 24.3509 61.2496 24.6686 61.25 25Z" fill="#00bcd4"/>
<path d="M64.7261 37.0324L68.5761 32.2199C69.3948 32.5565 70.3061 32.5928 71.149 32.3224C71.9919 32.0521 72.7121 31.4925 73.1823 30.7425C73.6525 29.9926 73.8425 29.1005 73.7187 28.224C73.5949 27.3476 73.1653 26.543 72.5058 25.9527C71.8462 25.3623 70.9992 25.0241 70.1144 24.9978C69.2296 24.9714 68.364 25.2587 67.6705 25.8088C66.977 26.359 66.5003 27.1365 66.3247 28.0041C66.149 28.8717 66.2856 29.7734 66.7104 30.55L63.1492 35.0015H45V37.5015H63.75C63.9375 37.5015 64.1225 37.4594 64.2915 37.3782C64.4605 37.2969 64.609 37.1788 64.7261 37.0324ZM70 27.5015C70.2472 27.5015 70.4889 27.5748 70.6945 27.7122C70.9 27.8495 71.0602 28.0448 71.1548 28.2732C71.2495 28.5016 71.2742 28.7529 71.226 28.9954C71.1778 29.2379 71.0587 29.4606 70.8839 29.6354C70.7091 29.8102 70.4863 29.9293 70.2439 29.9775C70.0014 30.0257 69.7501 30.001 69.5216 29.9064C69.2932 29.8118 69.098 29.6515 68.9607 29.446C68.8233 29.2404 68.75 28.9987 68.75 28.7515C68.7504 28.4201 68.8822 28.1024 69.1165 27.868C69.3509 27.6337 69.6686 27.5019 70 27.5015Z" fill="#00bcd4"/>
</svg>