<?xml version="1.0" encoding="UTF-8"?>
<svg version="1.1" xmlns="http://www.w3.org/2000/svg" width="164" height="81">
<path d="M0 0 C4.29 0 8.58 0 13 0 C13.33 14.85 13.66 29.7 14 45 C16.145 41.7 18.29 38.4 20.5 35 C26.8680555 25.88545757 26.8680555 25.88545757 31.28076172 24.05273438 C35.99752533 23.26407937 40.38197753 23.90769508 45 25 C43.40095278 30.06364953 40.32984599 33.79886795 37.125 37.9375 C35.55180586 39.98724565 33.98315301 42.03949952 32.43066406 44.10498047 C31.52412018 45.30576436 30.6007648 46.49418765 29.65527344 47.66455078 C28.32107828 49.3305644 28.32107828 49.3305644 27 52 C27.8173818 56.4744607 30.96365517 59.82262111 33.75 63.3125 C34.64864817 64.46077266 35.54708606 65.60920992 36.4453125 66.7578125 C36.88133789 67.31114258 37.31736328 67.86447266 37.76660156 68.43457031 C39.40035213 70.50812705 41.02028468 72.59138861 42.625 74.6875 C43.09164062 75.28949219 43.55828125 75.89148438 44.0390625 76.51171875 C45 78 45 78 45 80 C30.79871482 82.07582591 30.79871482 82.07582591 26.27783203 78.72265625 C23.32606334 75.50149159 21.11870705 71.82871603 19.10229492 67.96630859 C17.56029476 65.21563987 15.7491926 62.62378889 14 60 C13.67 66.6 13.34 73.2 13 80 C8.71 80 4.42 80 0 80 C0 53.6 0 27.2 0 0 Z " fill="#1593D1" transform="translate(119,1)"/>
<path d="M0 0 C4.29 0 8.58 0 13 0 C13.01981934 1.79663086 13.03963867 3.59326172 13.06005859 5.44433594 C13.12785825 11.38362567 13.20463573 17.32274258 13.28752708 23.26183701 C13.33745076 26.86234441 13.38378095 30.46282303 13.421875 34.06347656 C13.45877774 37.53899166 13.50515086 41.01426368 13.55806351 44.48957062 C13.58558648 46.45925455 13.60332708 48.42906728 13.62094116 50.39886475 C13.64081085 51.59980774 13.66068054 52.80075073 13.68115234 54.03808594 C13.69447601 55.09509705 13.70779968 56.15210815 13.7215271 57.2411499 C14.00221154 60.02190985 14.47876718 61.67403682 16 64 C18.34721109 65.31167678 20.22009544 66.01894505 22.9296875 65.953125 C25.30814736 65.93517436 26.81810362 66.01462744 29 67 C31.51824181 70.77736271 34 75.36838031 34 80 C31.16560863 80.10901505 28.33549797 80.18777904 25.5 80.25 C24.70851563 80.28351563 23.91703125 80.31703125 23.1015625 80.3515625 C16.25766917 80.46375747 11.15211345 78.77483346 5.9765625 74.21875 C5.30753906 73.36796875 5.30753906 73.36796875 4.625 72.5 C3.93277344 71.64921875 3.93277344 71.64921875 3.2265625 70.78125 C0.35008313 66.60394238 -0.24689734 63.69951287 -0.22705078 58.57910156 C-0.22689972 57.27805481 -0.22674866 55.97700806 -0.22659302 54.63653564 C-0.21638046 53.22123053 -0.20594848 51.80592699 -0.1953125 50.390625 C-0.19158071 48.93902786 -0.18873452 47.4874282 -0.18673706 46.03582764 C-0.17911364 42.22175093 -0.15947635 38.40782738 -0.1373291 34.59381104 C-0.11684278 30.69928051 -0.10772939 26.80472516 -0.09765625 22.91015625 C-0.07622913 15.27335971 -0.04105764 7.63672086 0 0 Z " fill="#1593D1" transform="translate(0,1)"/>
<path d="M0 0 C0.73154297 0.01353516 1.46308594 0.02707031 2.21679688 0.04101562 C3.99902422 0.07596126 5.78086573 0.12975195 7.5625 0.1875 C8.7902183 3.87065491 8.1651666 4.81705418 6.6875 8.3125 C6.13449219 9.64667969 6.13449219 9.64667969 5.5703125 11.0078125 C4.5625 13.1875 4.5625 13.1875 3.5625 14.1875 C1.07802343 14.39114562 -1.40409252 14.50660071 -3.89453125 14.61328125 C-7.31338172 15.38527974 -8.32468635 16.38295055 -10.4375 19.1875 C-10.85530431 22.1345526 -11.04228118 24.72301763 -11.046875 27.671875 C-11.06341125 28.48746887 -11.07994751 29.30306274 -11.09698486 30.14337158 C-11.14546583 32.74149097 -11.16683523 35.33902509 -11.1875 37.9375 C-11.21565972 39.70185236 -11.24558716 41.46617746 -11.27734375 43.23046875 C-11.35122442 47.54943097 -11.40079812 51.86806829 -11.4375 56.1875 C-16.0575 56.1875 -20.6775 56.1875 -25.4375 56.1875 C-25.51207346 50.92223145 -25.56630098 45.65727545 -25.60229492 40.39160156 C-25.61731184 38.60313557 -25.63773158 36.81470597 -25.66381836 35.02636719 C-25.70051615 32.44456969 -25.71729745 29.86326221 -25.73046875 27.28125 C-25.74595261 26.49133667 -25.76143646 25.70142334 -25.77738953 24.88757324 C-25.7792656 18.59362618 -24.60114229 13.21338587 -20.859375 7.98046875 C-20.30765625 7.45066406 -19.7559375 6.92085937 -19.1875 6.375 C-18.64609375 5.83230469 -18.1046875 5.28960937 -17.546875 4.73046875 C-11.81713103 0.53926714 -6.89016394 -0.24585214 0 0 Z " fill="#1593D1" transform="translate(84.4375,24.8125)"/>
<path d="M0 0 C4.62 0 9.24 0 14 0 C14 18.15 14 36.3 14 55 C9.38 55 4.76 55 0 55 C0 36.85 0 18.7 0 0 Z " fill="#1593D1" transform="translate(97,26)"/>
<path d="M0 0 C4.62 0 9.24 0 14 0 C14 18.15 14 36.3 14 55 C9.38 55 4.76 55 0 55 C0 36.85 0 18.7 0 0 Z " fill="#1593D1" transform="translate(37,26)"/>
<path d="M0 0 C3 0.5625 3 0.5625 5.4375 2.75 C7 5.5625 7 5.5625 6.9375 8.1875 C5.89215986 10.83569502 5.41288502 12.03433949 3 13.5625 C-2.90954774 14.19566583 -2.90954774 14.19566583 -5.9375 12.4375 C-7.52990283 9.62737736 -7.45319325 7.73485276 -7 4.5625 C-4.88658096 1.47365679 -3.68753254 0.69141235 0 0 Z " fill="#1593D1" transform="translate(104,5.4375)"/>
<path d="M0 0 C3 0.5625 3 0.5625 5.4375 2.125 C7 4.5625 7 4.5625 6.875 8.1875 C6 11.5625 6 11.5625 4 13.5625 C-0.33643601 13.87787716 -2.32653229 14.01147847 -6 11.5625 C-6.9375 8.75 -6.9375 8.75 -7 5.5625 C-5.05716059 1.98767549 -4.03959602 0.75742425 0 0 Z " fill="#1593D1" transform="translate(44,5.4375)"/>
</svg>
