<?xml version="1.0" encoding="UTF-8"?>
<svg version="1.1" xmlns="http://www.w3.org/2000/svg" width="336" height="76">
<path d="M0 0 C3.77544007 0.00008059 7.55075705 -0.00676976 11.32617188 -0.02050781 C55.69927026 -0.17928223 99.96913397 1.51028044 143.95874023 7.62280273 C144.67527771 7.72017731 145.39181519 7.81755188 146.13006592 7.9178772 C156.08984088 9.2877389 165.60993464 11.38473493 175.27124023 14.18530273 C171.67832704 15.38294046 169.55081941 15.00088366 165.79858398 14.51342773 C164.43389766 14.34286418 163.06914819 14.17280537 161.7043457 14.00317383 C160.97584412 13.91058289 160.24734253 13.81799194 159.49676514 13.72259521 C57.8054166 0.95387066 -47.97105154 2.49408267 -160.72875977 15.18530273 C-160.39875977 14.52530273 -160.06875977 13.86530273 -159.72875977 13.18530273 C-157.73632812 12.56274414 -157.73632812 12.56274414 -155.06860352 12.03686523 C-154.06498779 11.83818848 -153.06137207 11.63951172 -152.02734375 11.43481445 C-150.36360718 11.12568115 -150.36360718 11.12568115 -148.66625977 10.81030273 C-146.92034546 10.48376709 -146.92034546 10.48376709 -145.13916016 10.15063477 C-123.79537279 6.28585798 -102.34332299 4.08546748 -80.72875977 2.49780273 C-79.90495819 2.43695496 -79.08115662 2.37610718 -78.23239136 2.31341553 C-72.40045141 1.88957399 -66.56639135 1.52122827 -60.72875977 1.18530273 C-59.47807205 1.11111618 -59.47807205 1.11111618 -58.20211792 1.03543091 C-38.81740869 -0.07098493 -19.40917123 -0.00213354 0 0 Z " fill="#0470B8" transform="translate(160.728759765625,39.814697265625)"/>
<path d="M0 0 C2.31 0 4.62 0 7 0 C10.00916541 7.23480194 12.57418121 14.54927087 15 22 C17.64 14.74 20.28 7.48 23 0 C24.98 0 26.96 0 29 0 C31.64 7.26 34.28 14.52 37 22 C40.465 11.11 40.465 11.11 44 0 C58.5717256 -1.20427484 58.5717256 -1.20427484 62.515625 2.12109375 C64.22306768 4.67854594 65.6075644 7.2625492 67 10 C68.55893197 11.77013022 68.55893197 11.77013022 70 13 C70.4846875 12.0615625 70.969375 11.123125 71.46875 10.15625 C76.75167662 0.46601261 76.75167662 0.46601261 80.3125 -0.86328125 C82.5 -0.8125 82.5 -0.8125 86 0 C84.96258025 3.14189981 83.63397756 5.6260933 81.65234375 8.2421875 C74.87440441 17.23851936 72.45164002 23.62959459 73 35 C70.69 35 68.38 35 66 35 C66.04382813 34.16339844 66.08765625 33.32679687 66.1328125 32.46484375 C66.10891285 21.67415274 62.37257357 15.98696041 56.08642578 7.59326172 C54.67285177 5.52023161 53.78579256 3.37533865 53 1 C52.34 1 51.68 1 51 1 C50.75378906 2.23878906 50.50757813 3.47757812 50.25390625 4.75390625 C48.94407907 10.64524348 46.95828313 16.25834026 44.9375 21.9375 C44.39125977 23.49694336 44.39125977 23.49694336 43.83398438 25.08789062 C41.16567651 32.66864698 41.16567651 32.66864698 40 35 C37.69 35 35.38 35 33 35 C30.69 28.07 28.38 21.14 26 14 C23.73816029 20.53589241 23.73816029 20.53589241 21.48266602 27.07397461 C21.20092529 27.88358643 20.91918457 28.69319824 20.62890625 29.52734375 C20.34088135 30.35999756 20.05285645 31.19265137 19.75610352 32.05053711 C19 34 19 34 18 35 C16.00041636 35.04080783 13.99954746 35.04254356 12 35 C8.60136711 27.43530098 5.81154537 19.73642846 3.1875 11.875 C2.87353271 10.93825439 2.55956543 10.00150879 2.23608398 9.03637695 C0 2.25869295 0 2.25869295 0 0 Z " fill="#0370B8" transform="translate(33,0)"/>
<path d="M0 0 C7 0 7 0 9.14453125 2.01171875 C9.69496094 2.89472656 10.24539063 3.77773438 10.8125 4.6875 C11.37582031 5.55761719 11.93914062 6.42773438 12.51953125 7.32421875 C13.90880204 9.83516991 15.0067693 12.31100957 16 15 C19.88092351 11.58622469 22.09501716 6.93475718 24.671875 2.51953125 C25.44015625 1.68808594 26.2084375 0.85664062 27 0 C29.31 0 31.62 0 34 0 C34 11.55 34 23.1 34 35 C31.69 35 29.38 35 27 35 C26.505 25.1 26.505 25.1 26 15 C23.44959359 18.94428926 23.44959359 18.94428926 20.91455078 22.8984375 C19.99417448 24.30056241 18.99861169 25.65247579 18 27 C17.34 27 16.68 27 16 27 C14.53299085 25.02042138 13.19621241 23.07215564 11.875 21 C10.59625 19.02 9.3175 17.04 8 15 C7.67 21.6 7.34 28.2 7 35 C4.69 35 2.38 35 0 35 C0 23.45 0 11.9 0 0 Z " fill="#0270B8" transform="translate(268,0)"/>
<path d="M0 0 C6 0 6 0 8.30859375 2.08984375 C9.36240234 3.49943359 9.36240234 3.49943359 10.4375 4.9375 C11.19804687 5.93265625 11.95859375 6.9278125 12.7421875 7.953125 C13.48726562 8.95859375 14.23234375 9.9640625 15 11 C16.35080148 12.73179678 17.70460038 14.46126324 19.0625 16.1875 C20.5165625 18.0746875 20.5165625 18.0746875 22 20 C22.33 13.4 22.66 6.8 23 0 C25.31 0 27.62 0 30 0 C30 11.55 30 23.1 30 35 C23 35 23 35 20.59375 32.69140625 C19.9028125 31.65886719 19.211875 30.62632813 18.5 29.5625 C17.74178314 28.46422345 16.98265752 27.36657375 16.22265625 26.26953125 C15.48917969 25.19058594 14.75570312 24.11164062 14 23 C12.66097676 21.23838593 11.30861857 19.48675019 9.9375 17.75 C8.968125 16.5125 7.99875 15.275 7 14 C6.67 20.93 6.34 27.86 6 35 C4.02 35 2.04 35 0 35 C0 23.45 0 11.9 0 0 Z " fill="#0270B8" transform="translate(122,0)"/>
<path d="M0 0 C20.02941176 0 20.02941176 0 26.8125 5.125 C30.12562587 9.479394 32.07536353 13.78090052 31.9453125 19.3359375 C30.99724085 25.00501902 28.47048069 29.35701235 24 33 C19.3009194 35.66633225 14.42460079 35.22575634 9.1875 35.125 C6.155625 35.08375 3.12375 35.0425 0 35 C0 23.45 0 11.9 0 0 Z M7 7 C7 14.26 7 21.52 7 29 C15.97144409 29.03721043 15.97144409 29.03721043 22.875 24.3125 C24.53278878 20.90482306 24.54071037 17.67536916 24 14 C22.16379183 9.7767212 21.26177203 9.13088601 17 7 C13.7 7 10.4 7 7 7 Z " fill="#0370B8" transform="translate(159,0)"/>
<path d="M0 0 C2.31 0 4.62 0 7 0 C7 4.62 7 9.24 7 14 C11.95 14 16.9 14 22 14 C22 9.38 22 4.76 22 0 C24.31 0 26.62 0 29 0 C29 11.55 29 23.1 29 35 C26.69 35 24.38 35 22 35 C22 30.38 22 25.76 22 21 C17.05 21 12.1 21 7 21 C7 25.62 7 30.24 7 35 C4.69 35 2.38 35 0 35 C0 23.45 0 11.9 0 0 Z " fill="#016FB7" transform="translate(196,0)"/>
<path d="M0 0 C2.31 0 4.62 0 7 0 C10.88764398 8.23694567 14.71082884 16.50135185 18.4375 24.8125 C18.79134766 25.5947998 19.14519531 26.37709961 19.50976562 27.18310547 C22 32.76640818 22 32.76640818 22 35 C19.36 35 16.72 35 14 35 C12.74335022 32.09399739 12 30.20395416 12 27 C6.72 27 1.44 27 -4 27 C-4.66 28.98 -5.32 30.96 -6 33 C-6.33 33.66 -6.66 34.32 -7 35 C-9.31 35 -11.62 35 -14 35 C-13.33728786 30.6834155 -11.8147579 26.91450039 -10.05859375 22.94921875 C-9.6278933 21.96100883 -9.6278933 21.96100883 -9.18849182 20.95283508 C-8.27611147 18.86233508 -7.35692318 16.77491066 -6.4375 14.6875 C-5.81530233 13.26517199 -5.19355266 11.8426479 -4.57226562 10.41992188 C-3.05335398 6.94432338 -1.52833217 3.47146568 0 0 Z M3 10 C2.32880451 11.4562545 1.66318193 12.91507867 1 14.375 C0.62875 15.18710938 0.2575 15.99921875 -0.125 16.8359375 C-1.12495013 18.91998433 -1.12495013 18.91998433 -1 21 C2.3 21 5.6 21 9 21 C8.38348417 19.3509698 7.75652258 17.70584159 7.125 16.0625 C6.77695313 15.14597656 6.42890625 14.22945312 6.0703125 13.28515625 C5.2180914 10.85058944 5.2180914 10.85058944 3 10 Z " fill="#0470B8" transform="translate(243,0)"/>
<path d="M0 0 C2.625 0.9375 2.625 0.9375 5 2 C5 3.32 5 4.64 5 6 C5.99 6.33 6.98 6.66 8 7 C8 9.31 8 11.62 8 14 C4.44646071 15.1845131 1.72986522 15.26641894 -2 15 C-4 13.75 -4 13.75 -5 12 C-4.7181953 9.67511119 -4.04553582 8.09107165 -3 6 C-2.855625 5.154375 -2.71125 4.30875 -2.5625 3.4375 C-2.376875 2.633125 -2.19125 1.82875 -2 1 C-1.34 0.67 -0.68 0.34 0 0 Z M0 3 C0 3.66 0 4.32 0 5 C0.66 5 1.32 5 2 5 C2 4.34 2 3.68 2 3 C1.34 3 0.68 3 0 3 Z M-1 9 C-1 9.99 -1 10.98 -1 12 C-0.34 12 0.32 12 1 12 C0.67 11.01 0.34 10.02 0 9 C-0.33 9 -0.66 9 -1 9 Z " fill="#0571BA" transform="translate(159,61)"/>
<path d="M0 0 C2.3125 1.5625 2.3125 1.5625 4 4 C4.5625 7.5 4.5625 7.5 4 11 C1.875 13.5 1.875 13.5 -1 15 C-4.18409977 14.936318 -6.14932332 14.51040601 -8.875 12.875 C-10.67468071 9.87553214 -10.36494286 7.40613332 -10 4 C-7.32784856 0.35615712 -4.42656082 -0.52697153 0 0 Z M-5 4 C-5.66 4.66 -6.32 5.32 -7 6 C-6.98617135 8.05714832 -6.98617135 8.05714832 -6 10 C-4.0162233 11.28436734 -4.0162233 11.28436734 -2 12 C-0.35444301 10.77190909 -0.35444301 10.77190909 1 9 C0.77242269 6.83700789 0.77242269 6.83700789 0 5 C-2.39719432 4.32041397 -2.39719432 4.32041397 -5 4 Z " fill="#0B73BB" transform="translate(87,61)"/>
<path d="M0 0 C4.36689189 1.42398649 4.36689189 1.42398649 5.875 3.9375 C6.37391602 7.85755446 6.42753414 10.05344538 4.3125 13.4375 C1.875 14.9375 1.875 14.9375 -1.6875 14.875 C-5.125 13.9375 -5.125 13.9375 -7.0625 12.8125 C-8.81797303 9.71460642 -8.61223574 7.40905466 -8.125 3.9375 C-5.45043116 0.79094842 -4.15592269 -0.08311845 0 0 Z M-3.9375 4.125 C-5.37790328 5.88804109 -5.37790328 5.88804109 -4.8125 8.125 C-4.585625 8.723125 -4.35875 9.32125 -4.125 9.9375 C-1.72780568 10.61708603 -1.72780568 10.61708603 0.875 10.9375 C1.535 10.2775 2.195 9.6175 2.875 8.9375 C2.55458603 6.33469432 2.55458603 6.33469432 1.875 3.9375 C-1.13248915 2.77887694 -1.13248915 2.77887694 -3.9375 4.125 Z " fill="#0873B9" transform="translate(227.125,61.0625)"/>
<path d="M0 0 C7.38461538 -0.49230769 7.38461538 -0.49230769 10.5 2 C10.995 2.66 11.49 3.32 12 4 C11.443125 5.36125 11.443125 5.36125 10.875 6.75 C9.69640701 9.88097015 9.69640701 9.88097015 10.875 12.375 C11.24625 12.91125 11.6175 13.4475 12 14 C10.35 13.67 8.7 13.34 7 13 C6.67 12.01 6.34 11.02 6 10 C5.01 10 4.02 10 3 10 C3 11.32 3 12.64 3 14 C2.01 14 1.02 14 0 14 C0 9.38 0 4.76 0 0 Z M3 4 C3 4.99 3 5.98 3 7 C4.65 6.67 6.3 6.34 8 6 C8 5.34 8 4.68 8 4 C6.35 4 4.7 4 3 4 Z " fill="#0772BA" transform="translate(177,61)"/>
<path d="M0 0 C7.875 0 7.875 0 11 2 C11.125 7.75 11.125 7.75 10 10 C10.89163577 12.11683841 10.89163577 12.11683841 12 14 C9.75 14.25 9.75 14.25 7 14 C4.6875 12 4.6875 12 3 10 C3 11.32 3 12.64 3 14 C2.01 14 1.02 14 0 14 C0 9.38 0 4.76 0 0 Z M3 4 C3 4.99 3 5.98 3 7 C4.65 6.67 6.3 6.34 8 6 C8 5.34 8 4.68 8 4 C6.35 4 4.7 4 3 4 Z " fill="#0571B9" transform="translate(237,61)"/>
<path d="M0 0 C3.3 0 6.6 0 10 0 C10 0.99 10 1.98 10 3 C7.69 3 5.38 3 3 3 C3 3.66 3 4.32 3 5 C5.31 5 7.62 5 10 5 C10 5.99 10 6.98 10 8 C7.69 8 5.38 8 3 8 C3 8.66 3 9.32 3 10 C5.64 10 8.28 10 11 10 C11 10.99 11 11.98 11 13 C7.37 13 3.74 13 0 13 C0 8.71 0 4.42 0 0 Z " fill="#0974BA" transform="translate(192,62)"/>
<path d="M0 0 C1.423125 0.37125 1.423125 0.37125 2.875 0.75 C3.205 1.41 3.535 2.07 3.875 2.75 C3.545 3.41 3.215 4.07 2.875 4.75 C1.225 4.42 -0.425 4.09 -2.125 3.75 C-1.50625 4.03875 -0.8875 4.3275 -0.25 4.625 C1.875 5.75 1.875 5.75 3.875 7.75 C4 10.375 4 10.375 3.875 12.75 C1.38729865 14.31633048 0.21947796 14.79100928 -2.75 14.4375 C-5.125 13.75 -5.125 13.75 -7.125 12.75 C-6.795 11.76 -6.465 10.77 -6.125 9.75 C-3.155 10.245 -3.155 10.245 -0.125 10.75 C-1.053125 10.316875 -1.053125 10.316875 -2 9.875 C-4.125 8.75 -4.125 8.75 -6.125 6.75 C-6.4375 4.25 -6.4375 4.25 -6.125 1.75 C-3.125 -0.25 -3.125 -0.25 0 0 Z " fill="#0A74BC" transform="translate(271.125,61.25)"/>
<path d="M0 0 C0.9075 0.226875 1.815 0.45375 2.75 0.6875 C2.42 2.0075 2.09 3.3275 1.75 4.6875 C0.43 4.3575 -0.89 4.0275 -2.25 3.6875 C-1.26 4.3475 -0.27 5.0075 0.75 5.6875 C1.74 6.3475 2.73 7.0075 3.75 7.6875 C3.42 9.6675 3.09 11.6475 2.75 13.6875 C-2.66538462 14.91826923 -2.66538462 14.91826923 -5.625 13.75 C-6.16125 13.399375 -6.6975 13.04875 -7.25 12.6875 C-6.92 11.6975 -6.59 10.7075 -6.25 9.6875 C-3.28 10.1825 -3.28 10.1825 -0.25 10.6875 C-1.7040625 10.0996875 -1.7040625 10.0996875 -3.1875 9.5 C-6.25 7.6875 -6.25 7.6875 -7.125 5 C-7.16625 4.236875 -7.2075 3.47375 -7.25 2.6875 C-4.61280971 0.1517401 -3.74095095 -0.35970682 0 0 Z " fill="#0D75BC" transform="translate(141.25,61.3125)"/>
<path d="M0 0 C0.928125 0.20625 1.85625 0.4125 2.8125 0.625 C2.8125 1.615 2.8125 2.605 2.8125 3.625 C0.8125 4.625 0.8125 4.625 -2.1875 4.625 C-1.383125 4.851875 -0.57875 5.07875 0.25 5.3125 C2.8125 6.625 2.8125 6.625 3.6875 9.125 C3.8125 11.625 3.8125 11.625 2.8125 13.625 C-0.41847953 14.48659454 -2.41236274 14.93097523 -5.5625 13.6875 C-6.09875 13.336875 -6.635 12.98625 -7.1875 12.625 C-6.8575 11.635 -6.5275 10.645 -6.1875 9.625 C-3.2175 10.12 -3.2175 10.12 -0.1875 10.625 C-1.1775 10.068125 -2.1675 9.51125 -3.1875 8.9375 C-6.1875 6.625 -6.1875 6.625 -6.75 4 C-5.79676036 -0.02478959 -3.86951203 -0.45523671 0 0 Z " fill="#0972BC" transform="translate(212.1875,61.375)"/>
<path d="M0 0 C3.3 0 6.6 0 10 0 C10 0.99 10 1.98 10 3 C7.69 3 5.38 3 3 3 C3 3.66 3 4.32 3 5 C4.98 5 6.96 5 9 5 C9 5.99 9 6.98 9 8 C7.02 8 5.04 8 3 8 C3 8.66 3 9.32 3 10 C5.31 10 7.62 10 10 10 C10 10.99 10 11.98 10 13 C6.7 13 3.4 13 0 13 C0 8.71 0 4.42 0 0 Z " fill="#0773BA" transform="translate(108,62)"/>
<path d="M0 0 C0.99 0 1.98 0 3 0 C3 1.65 3 3.3 3 5 C4.65 5 6.3 5 8 5 C8 3.35 8 1.7 8 0 C8.99 0 9.98 0 11 0 C11 4.29 11 8.58 11 13 C10.01 13 9.02 13 8 13 C8 11.35 8 9.7 8 8 C6.35 8 4.7 8 3 8 C3 9.65 3 11.3 3 13 C2.01 13 1.02 13 0 13 C0 8.71 0 4.42 0 0 Z " fill="#016FB7" transform="translate(62,62)"/>
<path d="M0 0 C3.96 0 7.92 0 12 0 C11.67 0.99 11.34 1.98 11 3 C9.68 3 8.36 3 7 3 C7 6.3 7 9.6 7 13 C6.01 13 5.02 13 4 13 C4 9.7 4 6.4 4 3 C2.68 3 1.36 3 0 3 C0 2.01 0 1.02 0 0 Z " fill="#0873BB" transform="translate(93,62)"/>
<path d="M0 0 C3.63 0 7.26 0 11 0 C11 0.99 11 1.98 11 3 C9.68 3 8.36 3 7 3 C7 6.3 7 9.6 7 13 C6.01 13 5.02 13 4 13 C4 9.7 4 6.4 4 3 C2.68 3 1.36 3 0 3 C0 2.01 0 1.02 0 0 Z " fill="#0874BA" transform="translate(251,62)"/>
<path d="M0 0 C0.99 0 1.98 0 3 0 C3 3.3 3 6.6 3 10 C5.31 10 7.62 10 10 10 C10 10.99 10 11.98 10 13 C6.7 13 3.4 13 0 13 C0 8.71 0 4.42 0 0 Z " fill="#0873B9" transform="translate(122,62)"/>
</svg>
