<?xml version="1.0" encoding="UTF-8"?>
<svg version="1.1" xmlns="http://www.w3.org/2000/svg" width="200" height="200">
<path d="M0 0 C66 0 132 0 200 0 C200 66 200 132 200 200 C134 200 68 200 0 200 C0 134 0 68 0 0 Z " fill="#FDFDFD" transform="translate(0,0)"/>
<path d="M0 0 C4.26615504 2.04066983 6.73398524 4.58553002 10 8 C10.33 7.67 10.66 7.34 11 7 C15.33530918 6.85606543 19.66157731 6.95787939 24 7 C24.495 15.91 24.495 15.91 25 25 C26.32 25.66 27.64 26.32 29 27 C30.63528415 28.47315043 32.21923925 30.00410129 33.765625 31.5703125 C34.65507813 32.46621094 35.54453125 33.36210938 36.4609375 34.28515625 C37.38132812 35.22230469 38.30171875 36.15945312 39.25 37.125 C40.19484856 38.07988637 41.14015633 39.03431859 42.0859375 39.98828125 C44.39518338 42.32109087 46.69963203 44.65844086 49 47 C44.12275563 52.8797505 38.86113122 58.26880817 33.4453125 63.65234375 C32.54376434 64.55247696 31.64221619 65.45261017 30.71334839 66.38002014 C28.33801783 68.75072823 25.96054595 71.11924515 23.58197021 73.48669434 C21.14655283 75.91180728 18.71403088 78.33982085 16.28125 80.76757812 C11.52347231 85.51437128 6.7628462 90.25829281 2 95 C-1.5747899 93.4819272 -3.85811724 91.38425289 -6.58496094 88.64208984 C-7.48559265 87.74130707 -8.38622437 86.84052429 -9.31414795 85.91244507 C-10.28766481 84.92871592 -11.26107125 83.9448775 -12.234375 82.9609375 C-13.23713161 81.95444872 -14.24033222 80.94840211 -15.24395752 79.94277954 C-17.87873813 77.30037853 -20.50745611 74.65202572 -23.13494873 72.00238037 C-25.81939688 69.29743948 -28.50954622 66.59818179 -31.19921875 63.8984375 C-36.47173618 58.60449826 -41.73786057 53.30425717 -47 48 C-42.12275563 42.1202495 -36.86113122 36.73119183 -31.4453125 31.34765625 C-30.54376434 30.44752304 -29.64221619 29.54738983 -28.71334839 28.61997986 C-26.33801783 26.24927177 -23.96054595 23.88075485 -21.58197021 21.51330566 C-19.14655283 19.08819272 -16.71403088 16.66017915 -14.28125 14.23242188 C-9.52347231 9.48562872 -4.7628462 4.74170719 0 0 Z " fill="#F4FAFB" transform="translate(92,25)"/>
<path d="M0 0 C3.87601787 1.86347013 6.39932692 3.46019497 9 7 C9.42258578 10.70414693 9.29246313 14.28896784 9 18 C6.69 16.02 4.38 14.04 2 12 C-1.37360397 13.68680198 -2.94737745 14.70081881 -5.48339844 17.25634766 C-6.14378113 17.91688141 -6.80416382 18.57741516 -7.48455811 19.25796509 C-8.18574768 19.96947723 -8.88693726 20.68098938 -9.609375 21.4140625 C-10.33618469 22.14370209 -11.06299438 22.87334167 -11.81182861 23.62509155 C-14.12929198 25.9537388 -16.4396995 28.28924826 -18.75 30.625 C-20.32115444 32.20618653 -21.89276371 33.78692125 -23.46484375 35.3671875 C-27.31518653 39.2395669 -31.15976117 43.11760171 -35 47 C-30.88670129 51.90473901 -26.61457539 56.5219528 -22.0703125 61.02734375 C-21.43511688 61.66112442 -20.79992126 62.29490509 -20.14547729 62.94789124 C-18.14101284 64.94681406 -16.13307786 66.94220784 -14.125 68.9375 C-12.75497611 70.30250133 -11.38518226 71.6677336 -10.015625 73.03320312 C-6.67973457 76.35814211 -3.34072964 79.67992353 0 83 C2.96989969 81.66019143 5.08586748 80.17662402 7.4074707 77.89892578 C8.05106033 77.27132355 8.69464996 76.64372131 9.35774231 75.99710083 C10.04019516 75.32001068 10.72264801 74.64292053 11.42578125 73.9453125 C12.13276657 73.24735565 12.83975189 72.5493988 13.56816101 71.83029175 C15.05768135 70.35525956 16.5444223 68.87741612 18.02856445 67.39697266 C20.30942504 65.12805885 22.60826901 62.87846249 24.90820312 60.62890625 C26.35270763 59.19386009 27.79610605 57.75769951 29.23828125 56.3203125 C29.93085526 55.64727081 30.62342926 54.97422913 31.33699036 54.28079224 C31.96481918 53.64688568 32.59264801 53.01297913 33.23950195 52.35986328 C33.79813431 51.80630157 34.35676666 51.25273987 34.93232727 50.68240356 C36.21861052 49.03564079 36.21861052 49.03564079 35.80168152 46.91329956 C34.64650942 44.15635653 32.71466383 42.84404561 30.4375 40.9375 C27.611119 38.2542269 26.16178611 36.82596069 25.40625 32.96875 C25.4341821 30.25933648 25.59461215 27.67756174 26 25 C31.43733055 29.52991796 36.46458931 34.34294216 41.4375 39.375 C42.16904297 40.11105469 42.90058594 40.84710938 43.65429688 41.60546875 C45.43852723 43.40136074 47.22036124 45.19955985 49 47 C44.12275563 52.8797505 38.86113122 58.26880817 33.4453125 63.65234375 C32.54376434 64.55247696 31.64221619 65.45261017 30.71334839 66.38002014 C28.33801783 68.75072823 25.96054595 71.11924515 23.58197021 73.48669434 C21.14655283 75.91180728 18.71403088 78.33982085 16.28125 80.76757812 C11.52347231 85.51437128 6.7628462 90.25829281 2 95 C-1.5747899 93.4819272 -3.85811724 91.38425289 -6.58496094 88.64208984 C-7.48559265 87.74130707 -8.38622437 86.84052429 -9.31414795 85.91244507 C-10.28766481 84.92871592 -11.26107125 83.9448775 -12.234375 82.9609375 C-13.23713161 81.95444872 -14.24033222 80.94840211 -15.24395752 79.94277954 C-17.87873813 77.30037853 -20.50745611 74.65202572 -23.13494873 72.00238037 C-25.81939688 69.29743948 -28.50954622 66.59818179 -31.19921875 63.8984375 C-36.47173618 58.60449826 -41.73786057 53.30425717 -47 48 C-42.12275563 42.1202495 -36.86113122 36.73119183 -31.4453125 31.34765625 C-30.54376434 30.44752304 -29.64221619 29.54738983 -28.71334839 28.61997986 C-26.33801783 26.24927177 -23.96054595 23.88075485 -21.58197021 21.51330566 C-19.14655283 19.08819272 -16.71403088 16.66017915 -14.28125 14.23242188 C-9.52347231 9.48562872 -4.7628462 4.74170719 0 0 Z " fill="#102342" transform="translate(92,25)"/>
<path d="M0 0 C3.63 0 7.26 0 11 0 C11.24835768 7.22224132 11.42919548 14.44196629 11.54931641 21.66748047 C11.59941566 24.12169723 11.66751822 26.57561835 11.75439453 29.02880859 C12.49790334 50.57306974 12.49790334 50.57306974 8.76464844 55.89550781 C6.29160524 58.39321977 4.0694142 60.30271659 1 62 C0.67 62 0.34 62 0 62 C0 41.54 0 21.08 0 0 Z " fill="#155D9F" transform="translate(104,32)"/>
<path d="M0 0 C3.96 0 7.92 0 12 0 C12.12367562 6.7443168 12.21437739 13.48797238 12.2746582 20.2331543 C12.29978928 22.52721658 12.33389969 24.8211989 12.37719727 27.11499023 C12.43790832 30.41410049 12.46622437 33.71215146 12.48828125 37.01171875 C12.51408768 38.03585373 12.5398941 39.05998871 12.56648254 40.11515808 C12.56960611 48.06039656 12.56960611 48.06039656 9.46948242 51.18676758 C8.65455322 51.78513428 7.83962402 52.38350098 7 53 C4.10836261 51.70374876 1.99612928 50.48326586 0 48 C-0.36076355 45.81697083 -0.36076355 45.81697083 -0.34057617 43.25317383 C-0.34034958 42.29240433 -0.34012299 41.33163483 -0.33988953 40.3417511 C-0.32440567 39.30729355 -0.30892181 38.272836 -0.29296875 37.20703125 C-0.28872391 36.14586594 -0.28447906 35.08470062 -0.28010559 33.99137878 C-0.26329706 30.59816235 -0.22564019 27.20553728 -0.1875 23.8125 C-0.172456 21.51368044 -0.15876711 19.21485159 -0.14648438 16.91601562 C-0.1133863 11.27711549 -0.06158843 5.63865804 0 0 Z " fill="#3D94D9" transform="translate(87,52)"/>
<path d="M0 0 C0.33 0 0.66 0 1 0 C1.33 20.13 1.66 40.26 2 61 C10.97483892 52.97717984 10.97483892 52.97717984 12.1721344 43.05210876 C12.14755661 41.96112381 12.12297882 40.87013885 12.09765625 39.74609375 C12.10711777 38.60463394 12.11657928 37.46317413 12.12632751 36.28712463 C12.14679767 32.66923775 12.10561579 29.05513138 12.0625 25.4375 C12.06557681 22.97329881 12.07269657 20.50909914 12.08398438 18.04492188 C12.10276429 12.02917563 12.07103822 6.01532059 12 0 C12.33 0 12.66 0 13 0 C13.33 5.94 13.66 11.88 14 18 C14.33 18 14.66 18 15 18 C14.95617187 18.67804687 14.91234375 19.35609375 14.8671875 20.0546875 C14.88075525 24.95264378 15.13122909 27.94902042 18.328125 31.81640625 C20.15592612 33.5293316 22.02791048 35.1965951 23.9453125 36.80859375 C24.62335938 37.53175781 25.30140625 38.25492188 26 39 C25.72972427 44.65383526 19.90308126 48.61523997 16.17211914 52.32885742 C14.68880238 53.81119848 13.2281108 55.31360536 11.76757812 56.81835938 C10.83751953 57.75099609 9.90746094 58.68363281 8.94921875 59.64453125 C8.09674561 60.50409424 7.24427246 61.36365723 6.3659668 62.24926758 C5.19481323 63.11588013 5.19481323 63.11588013 4 64 C2.68 63.67 1.36 63.34 0 63 C0 42.21 0 21.42 0 0 Z " fill="#EFF3F5" transform="translate(103,32)"/>
<path d="M0 0 C3.63 0 7.26 0 11 0 C11 9.24 11 18.48 11 28 C7.59502272 26.29751136 5.8933248 25.16571807 3.3125 22.5625 C2.71050781 21.96566406 2.10851562 21.36882812 1.48828125 20.75390625 C-1.82983187 16.84358397 -0.92491396 12.58220097 -0.5625 7.8125 C-0.51029297 7.06291016 -0.45808594 6.31332031 -0.40429688 5.54101562 C-0.27486216 3.69362918 -0.13813482 1.84675629 0 0 Z " fill="#B7D5E0" transform="translate(71,65)"/>
<path d="M0 0 C3.63 0 7.26 0 11 0 C11.24835768 7.22224132 11.42919548 14.44196629 11.54931641 21.66748047 C11.59941566 24.12169723 11.66751822 26.57561835 11.75439453 29.02880859 C12.49790334 50.57306974 12.49790334 50.57306974 8.76464844 55.89550781 C6.29160524 58.39321977 4.0694142 60.30271659 1 62 C0.67 62 0.34 62 0 62 C0 41.54 0 21.08 0 0 Z M1 1 C1 18.49 1 35.98 1 54 C4.465 53.505 4.465 53.505 8 53 C8 52.34 8 51.68 8 51 C8.66 51 9.32 51 10 51 C10.16415919 34.31048207 9.65730011 17.675494 9 1 C6.36 1 3.72 1 1 1 Z " fill="#296092" transform="translate(104,32)"/>
<path d="M0 0 C0.33 0 0.66 0 1 0 C1.33 20.13 1.66 40.26 2 61 C10.97483892 52.97717984 10.97483892 52.97717984 12.1721344 43.05210876 C12.14755661 41.96112381 12.12297882 40.87013885 12.09765625 39.74609375 C12.10711777 38.60463394 12.11657928 37.46317413 12.12632751 36.28712463 C12.14679767 32.66923775 12.10561579 29.05513138 12.0625 25.4375 C12.06557681 22.97329881 12.07269657 20.50909914 12.08398438 18.04492188 C12.10276429 12.02917563 12.07103822 6.01532059 12 0 C12.33 0 12.66 0 13 0 C13.39841548 7.50520507 13.71506886 15.01076019 13.9765625 22.52197266 C14.07486125 25.0735367 14.19147976 27.62446627 14.32714844 30.17431641 C15.49327724 52.4613005 15.49327724 52.4613005 11.90136719 57.99316406 C9.3519511 60.67365552 7.39028089 62.52644024 4 64 C2.68 63.67 1.36 63.34 0 63 C0 42.21 0 21.42 0 0 Z " fill="#ABC9E2" transform="translate(103,32)"/>
<path d="M0 0 C7.80069525 6.06952491 7.80069525 6.06952491 9 11 C9 11.99 9 12.98 9 14 C10.32 14 11.64 14 13 14 C14.8125 16.25 14.8125 16.25 16 19 C15.6875 21.3125 15.6875 21.3125 15 23 C8.81549836 20.62134552 3.73545024 16.4770327 0 11 C-0.71854636 7.20196925 -0.57673511 3.80929982 0 0 Z " fill="#071C3D" transform="translate(118,50)"/>
<path d="M0 0 C-0.66 0 -1.32 0 -2 0 C-2 0.99 -2 1.98 -2 3 C-2.9793879 4.02019573 -3.97895449 5.02149805 -5 6 C-5 6.66 -5 7.32 -5 8 C-5.66 8 -6.32 8 -7 8 C-7.33 8.99 -7.66 9.98 -8 11 C-8.66 11 -9.32 11 -10 11 C-10 10.01 -10 9.02 -10 8 C-10.66 8.66 -11.32 9.32 -12 10 C-12.99 10.495 -12.99 10.495 -14 11 C-13.67 12.98 -13.34 14.96 -13 17 C-13.99 16.67 -14.98 16.34 -16 16 C-16.33 16.99 -16.66 17.98 -17 19 C-18.65 19.33 -20.3 19.66 -22 20 C-22 14.66986701 -18.69066422 11.42370952 -15.0703125 7.74804688 C-14.59335938 7.27431641 -14.11640625 6.80058594 -13.625 6.3125 C-12.92117187 5.58450195 -12.92117187 5.58450195 -12.203125 4.84179688 C-8.41224695 1.04568281 -5.38460758 -1.79486919 0 0 Z " fill="#071D3D" transform="translate(131,78)"/>
<path d="M0 0 C4.15963996 2.07981998 6.25836959 3.26833639 9 7 C9.42258578 10.70414693 9.29246313 14.28896784 9 18 C0.79775281 11.25842697 0.79775281 11.25842697 -1 8 C-0.67 7.01 -0.34 6.02 0 5 C-1.98 5.66 -3.96 6.32 -6 7 C-4.02 4.69 -2.04 2.38 0 0 Z " fill="#061D40" transform="translate(92,25)"/>
<path d="M0 0 C6.93359375 -0.09765625 6.93359375 -0.09765625 9 0 C11.16090886 2.16090886 10.72400131 7.2005847 11 10 C7.37 10.33 3.74 10.66 0 11 C0 7.37 0 3.74 0 0 Z " fill="#ACAAAB" transform="translate(136,137)"/>
<path d="M0 0 C0.66 0.66 1.32 1.32 2 2 C1.34 2.66 0.68 3.32 0 4 C1.65 4 3.3 4 5 4 C5.33 2.68 5.66 1.36 6 0 C6.33 0.66 6.66 1.32 7 2 C7.66 2.33 8.32 2.66 9 3 C3.39 8.61 -2.22 14.22 -8 20 C-8.66 19.01 -9.32 18.02 -10 17 C-8.75 15 -8.75 15 -7 13 C-5.68 13 -4.36 13 -3 13 C-2.67 11.68 -2.34 10.36 -2 9 C-1.01 9 -0.02 9 1 9 C1 8.01 1 7.02 1 6 C0.01 6 -0.98 6 -2 6 C-2.33 6.66 -2.66 7.32 -3 8 C-3.99 7.34 -4.98 6.68 -6 6 C-4.02 4.02 -2.04 2.04 0 0 Z " fill="#112443" transform="translate(109,93)"/>
<path d="M0 0 C0.33 0 0.66 0 1 0 C1 15.18 1 30.36 1 46 C2.65 46.33 4.3 46.66 6 47 C6.99 47.66 7.98 48.32 9 49 C8.01 49.99 7.02 50.98 6 52 C3.53199953 50.84826645 1.95216435 49.95216435 0 48 C-0.24050903 45.93722534 -0.24050903 45.93722534 -0.22705078 43.36669922 C-0.22689972 42.40585419 -0.22674866 41.44500916 -0.22659302 40.45504761 C-0.21627045 39.41542877 -0.20594788 38.37580994 -0.1953125 37.3046875 C-0.1924826 36.24210724 -0.18965271 35.17952698 -0.18673706 34.08474731 C-0.17551639 30.68138501 -0.15040837 27.27828314 -0.125 23.875 C-0.11497264 21.57161838 -0.10584637 19.26823264 -0.09765625 16.96484375 C-0.07557093 11.30980655 -0.04207489 5.65492187 0 0 Z M3 47 C3.33 47.99 3.66 48.98 4 50 C4.33 49.01 4.66 48.02 5 47 C4.34 47 3.68 47 3 47 Z " fill="#4291D2" transform="translate(88,53)"/>
<path d="M0 0 C3.63 0 7.26 0 11 0 C11 0.66 11 1.32 11 2 C10.34 2 9.68 2 9 2 C8.87882812 2.62648437 8.75765625 3.25296875 8.6328125 3.8984375 C8.38144531 5.12433594 8.38144531 5.12433594 8.125 6.375 C7.96257812 7.18710938 7.80015625 7.99921875 7.6328125 8.8359375 C7 11 7 11 5 13 C4.49384702 11.73160474 3.99530901 10.46016898 3.5 9.1875 C3.2215625 8.47980469 2.943125 7.77210938 2.65625 7.04296875 C2 5 2 5 2 2 C1.34 2 0.68 2 0 2 C0 1.34 0 0.68 0 0 Z " fill="#D4D3D3" transform="translate(92,136)"/>
<path d="M0 0 C6.15234375 -0.09765625 6.15234375 -0.09765625 8 0 C9 1 9 1 9.09765625 3.06640625 C9.08605469 3.89011719 9.07445313 4.71382812 9.0625 5.5625 C9.05347656 6.38878906 9.04445313 7.21507812 9.03515625 8.06640625 C9.02355469 8.70449219 9.01195313 9.34257812 9 10 C9.66 10.33 10.32 10.66 11 11 C9.35 11 7.7 11 6 11 C6.33 8.03 6.66 5.06 7 2 C5.68 2 4.36 2 3 2 C3.33 4.97 3.66 7.94 4 11 C2.35 11 0.7 11 -1 11 C-0.67 7.37 -0.34 3.74 0 0 Z " fill="#656568" transform="translate(72,165)"/>
<path d="M0 0 C0.33 0.99 0.66 1.98 1 3 C-1.64 5.64 -4.28 8.28 -7 11 C-10.61322401 9.193388 -11.83748791 8.33581029 -14.25 5.375 C-14.77078125 4.74335937 -15.2915625 4.11171875 -15.828125 3.4609375 C-16.21484375 2.97882813 -16.6015625 2.49671875 -17 2 C-16.34 1.67 -15.68 1.34 -15 1 C-13.02 2.65 -11.04 4.3 -9 6 C-5.56404834 4.47291037 -2.88087546 2.40072955 0 0 Z " fill="#D9E8F0" transform="translate(101,98)"/>
<path d="M0 0 C1.17539996 0.92652701 2.34010577 1.86663387 3.5 2.8125 C4.1496875 3.33457031 4.799375 3.85664062 5.46875 4.39453125 C7.54635144 6.57283276 7 8.12304857 7 11 C6.01 11.33 5.02 11.66 4 12 C4 12.99 4 13.98 4 15 C2 13.6875 2 13.6875 0 11 C-0.36089448 7.31144615 -0.22933459 3.6948351 0 0 Z " fill="#152842" transform="translate(118,50)"/>
<path d="M0 0 C1.58272601 1.58272601 1.34735747 3.38034003 1.5625 5.5625 C1.64628906 6.38878906 1.73007813 7.21507812 1.81640625 8.06640625 C1.87699219 8.70449219 1.93757812 9.34257812 2 10 C-0.64 10 -3.28 10 -6 10 C-6.33 8.68 -6.66 7.36 -7 6 C-4 4 -4 4 -1 4 C-1 3.01 -1 2.02 -1 1 C-2.65 1.66 -4.3 2.32 -6 3 C-6 2.01 -6 1.02 -6 0 C-3.49749232 -1.25125384 -2.59701335 -0.83774624 0 0 Z " fill="#535152" transform="translate(131,137)"/>
<path d="M0 0 C7.48291572 6.15034169 7.48291572 6.15034169 10 10 C9.34 10 8.68 10 8 10 C7.67 11.32 7.34 12.64 7 14 C7.66 14 8.32 14 9 14 C8.34 15.32 7.68 16.64 7 18 C5.02 15.69 3.04 13.38 1 11 C1.99 10.67 2.98 10.34 4 10 C3.67 9.34 3.34 8.68 3 8 C3.33 7.01 3.66 6.02 4 5 C2.68 4.34 1.36 3.68 0 3 C0 2.01 0 1.02 0 0 Z " fill="#152845" transform="translate(64,81)"/>
<path d="M0 0 C0.33 1.32 0.66 2.64 1 4 C-0.98 4 -2.96 4 -5 4 C-5 5.32 -5 6.64 -5 8 C-3.35 8 -1.7 8 0 8 C-0.33 8.66 -0.66 9.32 -1 10 C-5.75 9.25 -5.75 9.25 -8 7 C-7.75 3.4375 -7.75 3.4375 -7 0 C-4.3333581 -1.33332095 -2.83319697 -0.67102033 0 0 Z " fill="#919192" transform="translate(125,166)"/>
<path d="M0 0 C0 0.66 0 1.32 0 2 C-0.66 2 -1.32 2 -2 2 C-2.12375 2.78375 -2.2475 3.5675 -2.375 4.375 C-3 7 -3 7 -5 9 C-4.01 9.66 -3.02 10.32 -2 11 C-2.33 11.99 -2.66 12.98 -3 14 C-3.33 13.34 -3.66 12.68 -4 12 C-5.32 12 -6.64 12 -8 12 C-8 12.99 -8 13.98 -8 15 C-8.99 14.67 -9.98 14.34 -11 14 C-10.48041715 9.62065881 -9.94324258 5.31196609 -9 1 C-8.34 1.33 -7.68 1.66 -7 2 C-7 3.32 -7 4.64 -7 6 C-6.34 6 -5.68 6 -5 6 C-5 4.35 -5 2.7 -5 1 C-2 0 -2 0 0 0 Z " fill="#49494A" transform="translate(68,136)"/>
<path d="M0 0 C0.66 0 1.32 0 2 0 C2 2.97 2 5.94 2 9 C3.32 9 4.64 9 6 9 C5.67 6.36 5.34 3.72 5 1 C6.32 0.67 7.64 0.34 9 0 C9 3.3 9 6.6 9 10 C5.625 10.625 5.625 10.625 2 11 C0 9 0 9 -0.1953125 6.8359375 C-0.17210938 6.02382812 -0.14890625 5.21171875 -0.125 4.375 C-0.10695313 3.55773437 -0.08890625 2.74046875 -0.0703125 1.8984375 C-0.04710938 1.27195313 -0.02390625 0.64546875 0 0 Z " fill="#504F50" transform="translate(95,165)"/>
<path d="M0 0 C1.98 0 3.96 0 6 0 C5.67 0.99 5.34 1.98 5 3 C6.37492804 6.1668838 6.37492804 6.1668838 8 9 C9.49821059 5.62902617 10 3.79557881 10 0 C11.32 0.33 12.64 0.66 14 1 C13.72285156 1.68707031 13.44570313 2.37414062 13.16015625 3.08203125 C12.79792969 3.98308594 12.43570313 4.88414062 12.0625 5.8125 C11.70285156 6.70582031 11.34320313 7.59914062 10.97265625 8.51953125 C10.26386514 10.3270909 9.6139753 12.15807409 9 14 C6 13 6 13 4.6484375 10.56640625 C4.01808594 9.07947266 4.01808594 9.07947266 3.375 7.5625 C2.94960938 6.57378906 2.52421875 5.58507812 2.0859375 4.56640625 C1.72757813 3.71949219 1.36921875 2.87257812 1 2 C0.67 1.34 0.34 0.68 0 0 Z " fill="#3F3D3F" transform="translate(43,161)"/>
<path d="M0 0 C1.9375 0.8125 1.9375 0.8125 3.9375 2.8125 C3.9375 3.8025 3.9375 4.7925 3.9375 5.8125 C1.6275 5.8125 -0.6825 5.8125 -3.0625 5.8125 C-1.22916667 8.97916667 -1.22916667 8.97916667 1.9375 10.8125 C-0.4375 10.9375 -0.4375 10.9375 -3.0625 10.8125 C-5.0625 8.8125 -5.0625 8.8125 -5.375 5.875 C-5.0625 2.8125 -5.0625 2.8125 -3.8125 0.875 C-2.0625 -0.1875 -2.0625 -0.1875 0 0 Z " fill="#9C9B9E" transform="translate(155.0625,136.1875)"/>
<path d="M0 0 C0.598125 0.226875 1.19625 0.45375 1.8125 0.6875 C2.1425 2.3375 2.4725 3.9875 2.8125 5.6875 C0.8325 5.6875 -1.1475 5.6875 -3.1875 5.6875 C-2.8575 7.0075 -2.5275 8.3275 -2.1875 9.6875 C-0.8675 10.0175 0.4525 10.3475 1.8125 10.6875 C-0.5625 10.8125 -0.5625 10.8125 -3.1875 10.6875 C-5.1875 8.6875 -5.1875 8.6875 -5.5 5.75 C-5.1875 2.6875 -5.1875 2.6875 -3.9375 0.75 C-2.1875 -0.3125 -2.1875 -0.3125 0 0 Z " fill="#9A9A9A" transform="translate(51.1875,136.3125)"/>
<path d="M0 0 C4.70588235 0.70588235 4.70588235 0.70588235 6 2 C6.23192865 3.51469448 6.41215238 5.03754562 6.5625 6.5625 C6.64628906 7.38878906 6.73007813 8.21507812 6.81640625 9.06640625 C6.87699219 9.70449219 6.93757813 10.34257812 7 11 C6.01 11 5.02 11 4 11 C3.67 9.02 3.34 7.04 3 5 C2.34 5 1.68 5 1 5 C0.67 6.65 0.34 8.3 0 10 C0.99 10.33 1.98 10.66 3 11 C1.35 10.67 -0.3 10.34 -2 10 C-1.85950482 8.52031676 -1.71245174 7.04125484 -1.5625 5.5625 C-1.48128906 4.73878906 -1.40007812 3.91507813 -1.31640625 3.06640625 C-1 1 -1 1 0 0 Z " fill="#6C6C6C" transform="translate(72,136)"/>
<path d="M0 0 C2.625 0.375 2.625 0.375 5 1 C5.33 2.32 5.66 3.64 6 5 C4.02 5 2.04 5 0 5 C0.33 5.99 0.66 6.98 1 8 C2.65 8.33 4.3 8.66 6 9 C5.34 9.66 4.68 10.32 4 11 C-0.55555556 10.44444444 -0.55555556 10.44444444 -2 9 C-2.1875 5.5625 -2.1875 5.5625 -2 2 C-1.34 1.34 -0.68 0.68 0 0 Z " fill="#8F8E90" transform="translate(62,165)"/>
<path d="M0 0 C0.33 0 0.66 0 1 0 C1.07421454 3.93260944 1.12863136 7.86494722 1.16479492 11.7980957 C1.18728333 13.79327701 1.22540198 15.78826213 1.26367188 17.78320312 C1.27333984 19.03681641 1.28300781 20.29042969 1.29296875 21.58203125 C1.31653442 23.31803589 1.31653442 23.31803589 1.34057617 25.08911133 C1 28 1 28 -0.51831055 29.90112305 C-1.00726807 30.26375244 -1.49622559 30.62638184 -2 31 C-3.65 29.02 -5.3 27.04 -7 25 C-6.34 24.34 -5.68 23.68 -5 23 C-2.525 24.98 -2.525 24.98 0 27 C0 18.09 0 9.18 0 0 Z " fill="#ECF3F8" transform="translate(82,66)"/>
<path d="M0 0 C-1.47721422 3.45201639 -3.43794001 5.64961936 -6.125 8.25 C-6.84945312 8.95640625 -7.57390625 9.6628125 -8.3203125 10.390625 C-8.87460938 10.92171875 -9.42890625 11.4528125 -10 12 C-11.32 11.34 -12.64 10.68 -14 10 C-13.45730469 9.52949219 -12.91460937 9.05898437 -12.35546875 8.57421875 C-11.64003906 7.95160156 -10.92460938 7.32898438 -10.1875 6.6875 C-9.47980469 6.07261719 -8.77210937 5.45773438 -8.04296875 4.82421875 C-6.0163477 3.07797698 -6.0163477 3.07797698 -4.42578125 1.26953125 C-3 0 -3 0 0 0 Z " fill="#D5E4EE" transform="translate(117,84)"/>
<path d="M0 0 C1.32 0 2.64 0 4 0 C3.67 0.99 3.34 1.98 3 3 C2.773125 3.86625 2.54625 4.7325 2.3125 5.625 C1.6628125 6.800625 1.6628125 6.800625 1 8 C-2.125 8.8125 -2.125 8.8125 -5 9 C-4.67 8.01 -4.34 7.02 -4 6 C-4.99 6.33 -5.98 6.66 -7 7 C-7 6.34 -7 5.68 -7 5 C-6.030625 4.54625 -5.06125 4.0925 -4.0625 3.625 C-0.92920418 2.34213779 -0.92920418 2.34213779 0 0 Z " fill="#081E40" transform="translate(79,41)"/>
<path d="M0 0 C3.7952131 1.49097658 5.61042731 3.75700849 8 7 C7.67 7.66 7.34 8.32 7 9 C5.0625 8.6875 5.0625 8.6875 3 8 C2.67 7.01 2.34 6.02 2 5 C1.236875 5.165 0.47375 5.33 -0.3125 5.5 C-3 6 -3 6 -6 6 C-4.02 4.02 -2.04 2.04 0 0 Z " fill="#213049" transform="translate(92,25)"/>
<path d="M0 0 C1.65 0.33 3.3 0.66 5 1 C5 1.66 5 2.32 5 3 C4.34 3 3.68 3 3 3 C3 2.34 3 1.68 3 1 C2.34 1 1.68 1 1 1 C1.75150023 4.27773504 1.75150023 4.27773504 5 6 C4.67 7.32 4.34 8.64 4 10 C2.35 10.33 0.7 10.66 -1 11 C-1.33 10.01 -1.66 9.02 -2 8 C-1.34 8 -0.68 8 0 8 C0 8.66 0 9.32 0 10 C0.66 9.67 1.32 9.34 2 9 C2 8.34 2 7.68 2 7 C0.0399719 5.36323743 0.0399719 5.36323743 -2 4 C-1.34 2.68 -0.68 1.36 0 0 Z " fill="#4F4D4E" transform="translate(131,165)"/>
<path d="M0 0 C4.88049925 3.9419417 9.0580583 8.11950075 13 13 C9.84859577 12.65930765 8.39218439 12.41923159 6.1875 10.0625 C5 8 5 8 5 6 C3.68 6 2.36 6 1 6 C0.67 4.02 0.34 2.04 0 0 Z " fill="#25334E" transform="translate(126,58)"/>
<path d="M0 0 C0.66 0.66 1.32 1.32 2 2 C1.7083929 5.79089232 0.81240844 7.52508057 -2 10 C-2.66 10.99 -3.32 11.98 -4 13 C-4.91771699 9.90270517 -5.48240429 7.21602861 -5 4 C-2.5 1.6875 -2.5 1.6875 0 0 Z " fill="#041C3C" transform="translate(55,64)"/>
<path d="M0 0 C0.99 0 1.98 0 3 0 C1.59155282 3.21524305 -0.10344786 5.32183868 -2.625 7.75 C-3.57246094 8.67039062 -3.57246094 8.67039062 -4.5390625 9.609375 C-5.02117187 10.06828125 -5.50328125 10.5271875 -6 11 C-6.66 10.01 -7.32 9.02 -8 8 C-6.75 6 -6.75 6 -5 4 C-3.68 4 -2.36 4 -1 4 C-0.67 2.68 -0.34 1.36 0 0 Z " fill="#1E314B" transform="translate(107,102)"/>
<path d="M0 0 C1.1446875 0.3403125 1.1446875 0.3403125 2.3125 0.6875 C2.3125 1.6775 2.3125 2.6675 2.3125 3.6875 C1.6525 3.6875 0.9925 3.6875 0.3125 3.6875 C0.3125 3.0275 0.3125 2.3675 0.3125 1.6875 C-0.6775 2.0175 -1.6675 2.3475 -2.6875 2.6875 C-3.02175735 5.06124861 -3.02175735 5.06124861 -2.6875 7.6875 C-0.7870533 9.53065671 -0.7870533 9.53065671 1.3125 10.6875 C-1.0625 10.8125 -1.0625 10.8125 -3.6875 10.6875 C-5.6875 8.6875 -5.6875 8.6875 -6 5.75 C-5.6875 2.6875 -5.6875 2.6875 -4.5 0.75 C-2.6875 -0.3125 -2.6875 -0.3125 0 0 Z " fill="#4F4E4F" transform="translate(87.6875,136.3125)"/>
<path d="M0 0 C0 0.99 0 1.98 0 3 C-0.99 3.33 -1.98 3.66 -3 4 C-3.33 4.99 -3.66 5.98 -4 7 C-5.65 6.67 -7.3 6.34 -9 6 C-7.01260984 0.46369883 -5.82303895 -0.15323787 0 0 Z " fill="#051C3F" transform="translate(110,99)"/>
<path d="M0 0 C0.66 0 1.32 0 2 0 C2 0.66 2 1.32 2 2 C2.99 2.33 3.98 2.66 5 3 C4.01 3 3.02 3 2 3 C2 5.64 2 8.28 2 11 C2.99 11.33 3.98 11.66 5 12 C4.01 12.33 3.02 12.66 2 13 C1.34 12.67 0.68 12.34 0 12 C-0.44921875 9.78515625 -0.44921875 9.78515625 -0.6875 7.0625 C-0.81705078 5.71865234 -0.81705078 5.71865234 -0.94921875 4.34765625 C-1 2 -1 2 0 0 Z " fill="#454143" transform="translate(86,163)"/>
<path d="M0 0 C0.66 0 1.32 0 2 0 C2.66 1.98 3.32 3.96 4 6 C4.66 6 5.32 6 6 6 C6.33 4.02 6.66 2.04 7 0 C7.66 0.33 8.32 0.66 9 1 C7.68 4.63 6.36 8.26 5 12 C3.20931427 9.3139714 2.33944209 7.3373411 1.375 4.3125 C1.11460938 3.50425781 0.85421875 2.69601563 0.5859375 1.86328125 C0.39257812 1.24839844 0.19921875 0.63351563 0 0 Z " fill="#424242" transform="translate(93,137)"/>
<path d="M0 0 C1.11375 0.4640625 1.11375 0.4640625 2.25 0.9375 C4.51519234 1.81268795 6.64476948 2.45044621 9 3 C9.99 3.33 10.98 3.66 12 4 C11.01 5.32 10.02 6.64 9 8 C4.7257442 6.4169423 2.73468206 3.49431596 0 0 Z " fill="#212E48" transform="translate(85,112)"/>
<path d="M0 0 C0.33 2.31 0.66 4.62 1 7 C-1.31 7 -3.62 7 -6 7 C-6.33 6.01 -6.66 5.02 -7 4 C-2.25 0 -2.25 0 0 0 Z " fill="#041C3D" transform="translate(96,109)"/>
<path d="M0 0 C1.65 0 3.3 0 5 0 C5.33 0.66 5.66 1.32 6 2 C5.01 2.33 4.02 2.66 3 3 C3 5.64 3 8.28 3 11 C1.68 10.67 0.36 10.34 -1 10 C-0.67 6.7 -0.34 3.4 0 0 Z " fill="#474546" transform="translate(109,165)"/>
<path d="M0 0 C-0.33 1.98 -0.66 3.96 -1 6 C-2.65 5.67 -4.3 5.34 -6 5 C-5.625 3.0625 -5.625 3.0625 -5 1 C-3 0 -3 0 0 0 Z " fill="#8F8D8E" transform="translate(130,141)"/>
<path d="M0 0 C-1.5830577 4.2742558 -4.50568404 6.26531794 -8 9 C-7.64598897 5.81390075 -7.16972964 4.20933322 -5.125 1.6875 C-3 0 -3 0 0 0 Z " fill="#1D2F4B" transform="translate(132,80)"/>
<path d="M0 0 C1.32 0.33 2.64 0.66 4 1 C4 3.97 4 6.94 4 10 C4.66 10.33 5.32 10.66 6 11 C4.35 11 2.7 11 1 11 C1.01160156 10.37351563 1.02320312 9.74703125 1.03515625 9.1015625 C1.04417969 8.28429687 1.05320312 7.46703125 1.0625 6.625 C1.07990234 5.40683594 1.07990234 5.40683594 1.09765625 4.1640625 C1.14466334 1.95062858 1.14466334 1.95062858 0 0 Z " fill="#454345" transform="translate(77,165)"/>
<path d="M0 0 C1.65 0.33 3.3 0.66 5 1 C5.33 1.99 5.66 2.98 6 4 C3.69 4.33 1.38 4.66 -1 5 C-0.67 3.35 -0.34 1.7 0 0 Z " fill="#C9C9C9" transform="translate(60,147)"/>
<path d="M0 0 C0.33 0 0.66 0 1 0 C1 3.63 1 7.26 1 11 C-1.31 9.02 -3.62 7.04 -6 5 C-3 5 -3 5 -1 6 C-0.67 4.02 -0.34 2.04 0 0 Z " fill="#2A374C" transform="translate(100,32)"/>
<path d="M0 0 C2.475 0.495 2.475 0.495 5 1 C5.33 3.97 5.66 6.94 6 10 C4.68 9.67 3.36 9.34 2 9 C2.04125 7.88625 2.0825 6.7725 2.125 5.625 C2.41121859 1.95633975 2.41121859 1.95633975 0 0 Z " fill="#303033" transform="translate(141,137)"/>
<path d="M0 0 C1.98 0 3.96 0 6 0 C6 1.65 6 3.3 6 5 C3.03 4.505 3.03 4.505 0 4 C0 2.68 0 1.36 0 0 Z " fill="#EFEFF0" transform="translate(120,170)"/>
<path d="M0 0 C0.33 0 0.66 0 1 0 C1.33 2.31 1.66 4.62 2 7 C3.65 7 5.3 7 7 7 C6.67 7.66 6.34 8.32 6 9 C1.25 8.25 1.25 8.25 -1 6 C-1.1875 3.4375 -1.1875 3.4375 -1 1 C-0.67 0.67 -0.34 0.34 0 0 Z " fill="#434343" transform="translate(118,167)"/>
<path d="M0 0 C1.32 0.33 2.64 0.66 4 1 C3.37935063 2.60585493 2.7533082 4.20962617 2.125 5.8125 C1.77695312 6.70582031 1.42890625 7.59914062 1.0703125 8.51953125 C0 11 0 11 -2 14 C-2.6875 12.375 -2.6875 12.375 -3 10 C-2.0337499 7.98347806 -1.03291676 5.98320018 0 4 C0 2.68 0 1.36 0 0 Z " fill="#5D5C5D" transform="translate(53,161)"/>
<path d="M0 0 C0.33 0 0.66 0 1 0 C1 1.65 1 3.3 1 5 C-2.63 5 -6.26 5 -10 5 C-9.67 4.34 -9.34 3.68 -9 3 C-6.36 3 -3.72 3 -1 3 C-0.67 2.01 -0.34 1.02 0 0 Z " fill="#9F9C9D" transform="translate(42,143)"/>
<path d="M0 0 C1.32 0.33 2.64 0.66 4 1 C4 2.65 4 4.3 4 6 C2.68 6 1.36 6 0 6 C0 4.02 0 2.04 0 0 Z " fill="#E1E1E1" transform="translate(60,136)"/>
<path d="M0 0 C3.7952131 1.49097658 5.61042731 3.75700849 8 7 C7.01 7.33 6.02 7.66 5 8 C5 7.34 5 6.68 5 6 C3.68 5.67 2.36 5.34 1 5 C1.33 4.01 1.66 3.02 2 2 C1.34 2 0.68 2 0 2 C0 1.34 0 0.68 0 0 Z " fill="#182943" transform="translate(56,74)"/>
<path d="M0 0 C1.15392455 2.3078491 1.53437166 4.47230331 2 7 C3.65 7.33 5.3 7.66 7 8 C6.34 8.66 5.68 9.32 5 10 C0.44444444 9.44444444 0.44444444 9.44444444 -1 8 C-1.125 4.5 -1.125 4.5 -1 1 C-0.67 0.67 -0.34 0.34 0 0 Z " fill="#403E41" transform="translate(61,166)"/>
<path d="M0 0 C0.33 0 0.66 0 1 0 C1 2.97 1 5.94 1 9 C-0.32 8.67 -1.64 8.34 -3 8 C-2.67 6.35 -2.34 4.7 -2 3 C-1.34 3 -0.68 3 0 3 C0 2.01 0 1.02 0 0 Z " fill="#C6C6C6" transform="translate(75,138)"/>
<path d="M0 0 C0.33 0 0.66 0 1 0 C1.268125 1.11375 1.53625 2.2275 1.8125 3.375 C2.65809019 7.21840951 2.65809019 7.21840951 6 9 C3.625 9.125 3.625 9.125 1 9 C-1 7 -1 7 -1.1875 3.9375 C-1 1 -1 1 0 0 Z " fill="#2E2D2C" transform="translate(151,138)"/>
<path d="M0 0 C0.33 0 0.66 0 1 0 C1.33 2.64 1.66 5.28 2 8 C3.32 8.33 4.64 8.66 6 9 C3.625 9.125 3.625 9.125 1 9 C-1 7 -1 7 -1.1875 3.9375 C-1 1 -1 1 0 0 Z " fill="#282729" transform="translate(47,138)"/>
<path d="M0 0 C0 3.99476331 -1.28869085 5.1421336 -4 8 C-6.75 9.3125 -6.75 9.3125 -9 10 C-8.06409496 8.8944811 -7.12620142 7.79064547 -6.1875 6.6875 C-5.66542969 6.07261719 -5.14335938 5.45773438 -4.60546875 4.82421875 C-3.12827531 3.14575321 -1.59960869 1.56117966 0 0 Z " fill="#13233C" transform="translate(123,79)"/>
<path d="M0 0 C0.33 0.66 0.66 1.32 1 2 C1.66 2.33 2.32 2.66 3 3 C0.03 5.475 0.03 5.475 -3 8 C-2.37240135 5.07120629 -1.41377341 2.63904371 0 0 Z " fill="#203452" transform="translate(115,93)"/>
</svg>
