<?xml version="1.0" encoding="UTF-8"?>
<svg version="1.1" xmlns="http://www.w3.org/2000/svg" width="44" height="44">
<path d="M0 0 C0.27503306 4.49784829 0.47286539 8.99107564 0.60424805 13.49487305 C0.65907309 15.02113158 0.73377737 16.54682577 0.82983398 18.07104492 C1.3474812 26.50564963 1.26209802 32.7964578 -4.46875 39.53125 C-11.83474909 45.79921196 -19.05043983 45.26331949 -28.1875 44.6875 C-29.72703646 44.632198 -31.26676629 44.58202986 -32.80664062 44.53710938 C-36.54184625 44.41712885 -40.2696503 44.22810229 -44 44 C-46.87621359 17.76008215 -46.87621359 17.76008215 -39.6953125 8.3046875 C-28.80734625 -3.19545356 -14.72215986 -1.61372747 0 0 Z " fill="#040404" transform="translate(44,0)"/>
<path d="M0 0 C0.66 0 1.32 0 2 0 C2.33 4.29 2.66 8.58 3 13 C7.29 13.33 11.58 13.66 16 14 C16 14.66 16 15.32 16 16 C13.52076199 16.02685095 11.0418116 16.04676547 8.5625 16.0625 C7.85544922 16.07087891 7.14839844 16.07925781 6.41992188 16.08789062 C4.61306441 16.09653588 2.80612397 16.05220011 1 16 C0 15 0 15 -0.09765625 11.62109375 C-0.09098369 10.22652923 -0.07902532 8.83198257 -0.0625 7.4375 C-0.05798828 6.72658203 -0.05347656 6.01566406 -0.04882812 5.28320312 C-0.03700864 3.52209987 -0.01907263 1.76103964 0 0 Z " fill="#EAEAEA" transform="translate(4,24)"/>
<path d="M0 0 C2.47923801 -0.02685095 4.9581884 -0.04676547 7.4375 -0.0625 C8.14455078 -0.07087891 8.85160156 -0.07925781 9.58007812 -0.08789062 C11.38693559 -0.09653588 13.19387603 -0.05220011 15 0 C16 1 16 1 16.09765625 4.37890625 C16.09098369 5.77347077 16.07902532 7.16801743 16.0625 8.5625 C16.05798828 9.27341797 16.05347656 9.98433594 16.04882812 10.71679688 C16.03700864 12.47790013 16.01907263 14.23896036 16 16 C15.34 16 14.68 16 14 16 C13.67 11.71 13.34 7.42 13 3 C8.71 2.67 4.42 2.34 0 2 C0 1.34 0 0.68 0 0 Z " fill="#E9E9E9" transform="translate(24,4)"/>
</svg>
