<?xml version="1.0" encoding="UTF-8"?>
<svg version="1.1" xmlns="http://www.w3.org/2000/svg" width="500" height="500">
<path d="M0 0 C9.49264441 4.18737408 15.85002367 6.38604404 25.8515625 2.75390625 C32.9651783 0.2576738 40.27590059 0.80947048 47.7253418 0.91235352 C49.44466175 0.92906484 51.16421371 0.9298167 52.88354492 0.91430664 C67.08476167 0.7930219 67.08476167 0.7930219 71.65991211 3.67626953 C74.64985143 6.96833624 76.79055351 10.68208378 77.9375 15 C78.15277344 15.763125 78.36804688 16.52625 78.58984375 17.3125 C78.72519531 17.869375 78.86054688 18.42625 79 19 C76.49950546 22.08785902 74.50053677 22.50127141 70.625 23 C66.18229977 23.64231811 61.86446825 24.4483209 57.5 25.5 C53.2402902 26.52028977 49.01831873 27.34629151 44.6875 28 C39.78333779 28.76851413 35.56638559 30.06806763 31 32 C32.00160913 33.22987846 32.00160913 33.22987846 34.01171875 33.0625 C34.89472656 33.041875 35.77773438 33.02125 36.6875 33 C54.66961985 32.83480992 54.66961985 32.83480992 59 35 C60.37548156 35.08308638 61.75485796 35.10736016 63.1328125 35.09765625 C63.93847656 35.09443359 64.74414062 35.09121094 65.57421875 35.08789062 C66.41597656 35.07951172 67.25773437 35.07113281 68.125 35.0625 C69.39923828 35.05573242 69.39923828 35.05573242 70.69921875 35.04882812 C72.79950909 35.03702874 74.8997633 35.01909306 77 35 C77.96031135 38.37722013 77.91619404 40.05577913 76.6875 43.375 C76.40648437 44.15488281 76.12546875 44.93476562 75.8359375 45.73828125 C75.56007813 46.48464844 75.28421875 47.23101562 75 48 C74.4121875 49.7634375 74.4121875 49.7634375 73.8125 51.5625 C73.544375 52.366875 73.27625 53.17125 73 54 C71.68 54 70.36 54 69 54 C69 54.66 69 55.32 69 56 C68.29230469 56.13792969 67.58460938 56.27585938 66.85546875 56.41796875 C63.99441319 57.00113876 61.15555264 57.64726285 58.3125 58.3125 C52.71437356 59.61126533 47.10970924 60.87744808 41.5 62.125 C40.35204956 62.38083862 40.35204956 62.38083862 39.1809082 62.6418457 C35.46101808 63.4674388 31.74067224 64.27264706 28 65 C31.26578065 65.69569498 34.46820959 66.19960833 37.79296875 66.5 C38.67017578 66.5825 39.54738281 66.665 40.45117188 66.75 C42.28701267 66.9177285 44.12295199 67.08438186 45.95898438 67.25 C46.83232422 67.3325 47.70566406 67.415 48.60546875 67.5 C49.40106201 67.5721875 50.19665527 67.644375 51.01635742 67.71875 C53 68 53 68 55 69 C56.4538493 69.20207944 57.91348362 69.36404499 59.375 69.5 C62.3462775 69.77824672 65.11987066 70.21092347 68 71 C69.13360712 74.40082136 68.84527772 76.5420457 68 80 C67.93425781 80.73089844 67.86851562 81.46179688 67.80078125 82.21484375 C67.48526698 84.74305548 67.10954335 86.70102617 66 89 C61.59292428 91.88226471 56.16642847 92.19783585 51.03515625 92.6875 C47.94795845 93.16154189 45.12162538 94.25651788 42.1875 95.30078125 C39.13398657 96.27681501 36.18256413 96.66142935 33 97 C40.40629764 98.23040106 47.75349558 99.24328412 55.24609375 99.75390625 C58.19914717 100.01779613 61.08210566 100.48002177 64 101 C63.88501733 103.20887757 63.75756495 105.41710787 63.625 107.625 C63.55539062 108.85476562 63.48578125 110.08453125 63.4140625 111.3515625 C63.0185513 114.83653855 62.23738151 117.73049601 61 121 C60.32839844 121.13277344 59.65679687 121.26554687 58.96484375 121.40234375 C56.78797232 121.84115973 54.61384844 122.29366328 52.44140625 122.75390625 C51.16136719 123.02074219 49.88132812 123.28757812 48.5625 123.5625 C47.28503906 123.83191406 46.00757813 124.10132813 44.69140625 124.37890625 C41.32104711 124.94598255 38.39902444 125.35542082 35 125 C33.23572728 122.35359091 32.65223492 121.00176163 31.875 118.0625 C29.31218816 110.08640193 24.16604071 101.54897569 17 97 C14.87595828 96.78186997 14.87595828 96.78186997 13 98 C10.87708436 100.12119077 10.87708436 100.12119077 8.9375 102.75 C8.26589844 103.61109375 7.59429687 104.4721875 6.90234375 105.359375 C4.94072974 107.94399573 4.94072974 107.94399573 3.55859375 110.8046875 C2 113 2 113 -0.3046875 113.5234375 C-1.15289062 113.47445312 -2.00109375 113.42546875 -2.875 113.375 C-3.71804687 113.34148437 -4.56109375 113.30796875 -5.4296875 113.2734375 C-8 113 -8 113 -10.4140625 112.5078125 C-13.44609614 111.91239804 -16.41730208 111.70167183 -19.5 111.5 C-23.42311716 111.24334748 -27.16127687 110.85941563 -31 110 C-32.17122859 104.34853777 -33.25339288 98.72398793 -34 93 C-30.74498672 91.13109285 -27.82581981 90.52734328 -24.125 90 C-19.8625083 89.38951526 -16.07161316 88.38864541 -12 87 C-9.77686076 86.45401163 -7.54737363 85.93327336 -5.3125 85.4375 C-2.13827292 84.73089582 0.91456038 84.02847987 4 83 C3.01902344 82.87882812 2.03804687 82.75765625 1.02734375 82.6328125 C-0.33594648 82.46361404 -1.69922698 82.29433713 -3.0625 82.125 C-3.78042725 82.03621582 -4.49835449 81.94743164 -5.23803711 81.85595703 C-8.88114312 81.4022135 -12.52082265 80.93375988 -16.15625 80.421875 C-18.08984375 80.15117187 -18.08984375 80.15117187 -20.0625 79.875 C-21.22910156 79.70742187 -22.39570313 79.53984375 -23.59765625 79.3671875 C-27.05201119 78.9032207 -27.05201119 78.9032207 -30.74609375 79.1953125 C-34 79 -34 79 -35.85546875 77.4453125 C-37.34307262 74.26701891 -37.83733539 71.34986795 -38.3125 67.875 C-38.49425781 66.63492188 -38.67601562 65.39484375 -38.86328125 64.1171875 C-38.90839844 63.08851563 -38.95351562 62.05984375 -39 61 C-34.59059953 56.59059953 -26.25679186 56.52329413 -20.296875 55.5703125 C-15.57423956 54.75336372 -10.90489573 53.72143089 -6.2265625 52.68359375 C-3.16052495 52.03400952 -0.09498711 51.49089675 3 51 C0.00978742 50.17094467 -2.85927528 49.76165668 -5.94921875 49.5 C-6.87927734 49.4175 -7.80933594 49.335 -8.76757812 49.25 C-10.72582643 49.08233727 -12.68416127 48.91568233 -14.64257812 48.75 C-15.56876953 48.6675 -16.49496094 48.585 -17.44921875 48.5 C-18.29830811 48.4278125 -19.14739746 48.355625 -20.0222168 48.28125 C-22 48 -22 48 -23 47 C-24.4887186 46.91330568 -25.981445 46.89296506 -27.47265625 46.90234375 C-28.82133789 46.90717773 -28.82133789 46.90717773 -30.19726562 46.91210938 C-31.14279297 46.92048828 -32.08832031 46.92886719 -33.0625 46.9375 C-34.01189453 46.94201172 -34.96128906 46.94652344 -35.93945312 46.95117188 C-38.29303065 46.9629989 -40.64648477 46.97947975 -43 47 C-43.73080266 45.02253397 -44.39421747 43.01927511 -45 41 C-44.67 40.34 -44.34 39.68 -44 39 C-44.66 39 -45.32 39 -46 39 C-46.33 35.7 -46.66 32.4 -47 29 C-36.02488723 26.22298627 -25.02643517 23.5655567 -14 21 C-15.34747314 20.96241577 -15.34747314 20.96241577 -16.72216797 20.92407227 C-20.05074869 20.82901307 -23.37914994 20.72977579 -26.70751953 20.62768555 C-28.1488762 20.58433769 -29.59028418 20.54266248 -31.03173828 20.50268555 C-33.10204541 20.44497912 -35.17209432 20.38128629 -37.2421875 20.31640625 C-38.4885498 20.27974854 -39.73491211 20.24309082 -41.01904297 20.20532227 C-44 20 -44 20 -46 19 C-45.53680089 14.27536912 -44.90108294 10.82942948 -42 7 C-41.34 7 -40.68 7 -40 7 C-39.77054688 6.40574219 -39.54109375 5.81148437 -39.3046875 5.19921875 C-37.65018855 2.41034776 -35.92028824 1.42580434 -33.125 -0.1875 C-32.26132813 -0.69667969 -31.39765625 -1.20585938 -30.5078125 -1.73046875 C-20.82406833 -6.63267569 -9.33691783 -4.64331461 0 0 Z " fill="#0078C0" transform="translate(235,80)"/>
<path d="M0 0 C-0.75 6.75 -0.75 6.75 -3 9 C0.24697618 10.62348809 3.81488178 10.16309362 7.3828125 10.16796875 C8.22987762 10.17129715 9.07694275 10.17462555 9.94967651 10.17805481 C11.75371763 10.18312913 13.55776816 10.18546298 15.36181641 10.18530273 C18.06559883 10.18745276 20.76894812 10.20549927 23.47265625 10.22460938 C32.9007719 10.25486774 41.98892652 9.80520114 51.32275391 8.4831543 C57.0785941 7.72689299 62.82642666 7.49171645 68.625 7.3125 C69.82576172 7.27415039 71.02652344 7.23580078 72.26367188 7.19628906 C129.52448866 5.66224596 129.52448866 5.66224596 148 19 C150 22 150 22 149.875 25.5 C148.85935794 29.56256823 148.46082041 29.91128656 145 32 C120.68272373 42.36385581 94.92748546 41.40134165 69.01171875 41.203125 C68.15195435 41.19872406 67.29218994 41.19432312 66.40637207 41.18978882 C62.29462995 41.14275712 58.26610498 40.95535011 54.17895508 40.49560547 C48.16099028 39.84488408 42.17276654 39.85646716 36.125 39.8671875 C34.9198877 39.86623077 33.71477539 39.86527405 32.47314453 39.86428833 C29.93847603 39.86361125 27.40380575 39.86543244 24.86914062 39.86962891 C21.01167875 39.87498379 17.1543333 39.86966777 13.296875 39.86328125 C10.82291641 39.86394212 8.3489579 39.86522345 5.875 39.8671875 C4.16207764 39.86415115 4.16207764 39.86415115 2.41455078 39.86105347 C-3.31399095 39.87764825 -8.90002906 40.12859154 -14.59118652 40.76870728 C-18.81064518 41.17385699 -23.02954152 41.18279581 -27.265625 41.203125 C-28.69766266 41.21167511 -28.69766266 41.21167511 -30.15863037 41.22039795 C-32.1721488 41.22978642 -34.18568217 41.23635722 -36.19921875 41.24023438 C-39.20081352 41.24984255 -42.20169309 41.28088518 -45.203125 41.3125 C-65.11955766 41.42208049 -91.26045091 41.38234293 -108 29 C-110 27 -110 27 -110.5 24.1875 C-109.92440124 20.51805788 -108.82776787 19.44935927 -105.96191406 17.2019043 C-102.14941093 14.86629542 -97.92811926 13.89622938 -93.625 12.8125 C-92.63967285 12.55766846 -91.6543457 12.30283691 -90.63916016 12.0402832 C-66.39288487 5.96588253 -40.80087903 6.35504374 -16 8 C-16 7.34 -16 6.68 -16 6 C-16.66 6 -17.32 6 -18 6 C-18.495 4.515 -18.495 4.515 -19 3 C-17.43840941 2.51787786 -15.87568072 2.03944127 -14.3125 1.5625 C-13.00732422 1.16224609 -13.00732422 1.16224609 -11.67578125 0.75390625 C-4.12262658 -1.37420886 -4.12262658 -1.37420886 0 0 Z " fill="#F9F9F9" transform="translate(231,225)"/>
<path d="M0 0 C9.49264441 4.18737408 15.85002367 6.38604404 25.8515625 2.75390625 C32.9651783 0.2576738 40.27590059 0.80947048 47.7253418 0.91235352 C49.44466175 0.92906484 51.16421371 0.9298167 52.88354492 0.91430664 C67.08476167 0.7930219 67.08476167 0.7930219 71.65991211 3.67626953 C74.64985143 6.96833624 76.79055351 10.68208378 77.9375 15 C78.15277344 15.763125 78.36804688 16.52625 78.58984375 17.3125 C78.72519531 17.869375 78.86054688 18.42625 79 19 C76.49950546 22.08785902 74.50053677 22.50127141 70.625 23 C66.18229977 23.64231811 61.86446825 24.4483209 57.5 25.5 C53.28218045 26.50784219 49.09852167 27.34145634 44.8125 28 C41.00250207 28.59735145 37.42706707 29.40043453 33.75 30.5625 C28.54406548 32.20734503 23.42204285 32.76571089 18.01171875 33.2890625 C8.76499743 34.33818995 0.01184502 36.41206822 -8.98510742 38.7434082 C-15.23071206 40.34823316 -21.45757738 41.77631689 -27.8125 42.875 C-28.50520996 42.99480225 -29.19791992 43.11460449 -29.91162109 43.23803711 C-32.64966118 43.68950393 -35.21924389 44 -38 44 C-38 44.66 -38 45.32 -38 46 C-40.475 46.495 -40.475 46.495 -43 47 C-43.73080266 45.02253397 -44.39421747 43.01927511 -45 41 C-44.67 40.34 -44.34 39.68 -44 39 C-44.66 39 -45.32 39 -46 39 C-46.33 35.7 -46.66 32.4 -47 29 C-36.02488723 26.22298627 -25.02643517 23.5655567 -14 21 C-15.34747314 20.96241577 -15.34747314 20.96241577 -16.72216797 20.92407227 C-20.05074869 20.82901307 -23.37914994 20.72977579 -26.70751953 20.62768555 C-28.1488762 20.58433769 -29.59028418 20.54266248 -31.03173828 20.50268555 C-33.10204541 20.44497912 -35.17209432 20.38128629 -37.2421875 20.31640625 C-38.4885498 20.27974854 -39.73491211 20.24309082 -41.01904297 20.20532227 C-44 20 -44 20 -46 19 C-45.53680089 14.27536912 -44.90108294 10.82942948 -42 7 C-41.34 7 -40.68 7 -40 7 C-39.77054688 6.40574219 -39.54109375 5.81148437 -39.3046875 5.19921875 C-37.65018855 2.41034776 -35.92028824 1.42580434 -33.125 -0.1875 C-32.26132813 -0.69667969 -31.39765625 -1.20585938 -30.5078125 -1.73046875 C-20.82406833 -6.63267569 -9.33691783 -4.64331461 0 0 Z " fill="#0078C1" transform="translate(235,80)"/>
<path d="M0 0 C0 0.66 0 1.32 0 2 C0.66 2 1.32 2 2 2 C5.15920027 8.04368747 6.12652251 12.06176476 6.1328125 18.8828125 C6.13376923 19.53829071 6.13472595 20.19376892 6.13571167 20.86911011 C6.13639001 22.24916683 6.1345599 23.62922681 6.13037109 25.00927734 C6.12500064 27.12474683 6.13033652 29.24000568 6.13671875 31.35546875 C6.13605824 32.69791714 6.13477765 34.04036539 6.1328125 35.3828125 C6.13168457 36.60371582 6.13055664 37.82461914 6.12939453 39.08251953 C6 42 6 42 5 44 C9.455 43.505 9.455 43.505 14 43 C14.33 39.04 14.66 35.08 15 31 C16.32 31.66 17.64 32.32 19 33 C19.144375 33.598125 19.28875 34.19625 19.4375 34.8125 C20.42844044 38.66615728 23.51956232 41.07671629 26.81640625 43.1328125 C29.52715061 44.20935141 31.7143584 44.26569079 34.625 44.25 C35.58664062 44.25515625 36.54828125 44.2603125 37.5390625 44.265625 C40.17697348 44.24112088 40.17697348 44.24112088 42 42 C42.66721536 39.08559301 42.66721536 39.08559301 42 36 C38.19170365 32.58229814 34.04434882 31.26138074 29.2578125 29.79296875 C25.88505651 28.6084195 23.03672434 26.87372353 20 25 C20 24.34 20 23.68 20 23 C19.01 22.67 18.02 22.34 17 22 C14.23205278 17.25494762 13.49001474 13.64580383 14.37109375 8.2109375 C15.6489095 3.7187405 17.77868341 0.33373924 21.828125 -2.09765625 C29.94170478 -5.5315532 39.71196832 -4.41734257 48 -2 C48.91657981 3.38490641 49.11138159 8.54230189 49 14 C47.35 13.67 45.7 13.34 44 13 C43.773125 11.72125 43.54625 10.4425 43.3125 9.125 C42.50650933 5.64172477 42.50650933 5.64172477 39.625 3.5625 C38.75875 3.376875 37.8925 3.19125 37 3 C36.38125 2.7525 35.7625 2.505 35.125 2.25 C31.83777613 1.86326778 29.10323385 2.98548124 26 4 C26 5.98 26 7.96 26 10 C32.51943164 13.3850895 39.19701662 16.23345343 46 19 C46 19.66 46 20.32 46 21 C47.485 21.495 47.485 21.495 49 22 C52.12675122 26.33010658 53.45719204 30.77291429 52.6875 36.0625 C51.02749938 42.39619286 47.11760816 47.03098432 41.625 50.5 C36.34675498 51.50538 31.59877803 51.47682853 26.4375 49.9375 C22.14424478 48.76661221 19.37474583 49.34378813 15 50 C14.01 49.67 13.02 49.34 12 49 C11.278125 49.309375 10.55625 49.61875 9.8125 49.9375 C4.69787964 51.86968991 0.54007823 51.65595925 -4.375 49.5625 C-5.24125 49.046875 -6.1075 48.53125 -7 48 C-7.99 47.505 -7.99 47.505 -9 47 C-10.134375 47.639375 -11.26875 48.27875 -12.4375 48.9375 C-17.56329721 51.60737985 -22.32681337 51.85385153 -28 51 C-30.94927254 49.92247051 -33.29313069 48.63433619 -36 47 C-36 46.34 -36 45.68 -36 45 C-36.66 45 -37.32 45 -38 45 C-39.56976934 40.1925814 -40.71588057 36.10064904 -40 31 C-36.99518566 25.39446705 -33.77291557 22.63546146 -28 20 C-25.62123197 18.88213796 -23.2467998 17.75734313 -20.875 16.625 C-20.26785156 16.3465625 -19.66070312 16.068125 -19.03515625 15.78125 C-14.972558 13.8163332 -12.35260935 11.87419748 -10 8 C-10 6.35 -10 4.7 -10 3 C-13.96 3 -17.92 3 -22 3 C-22.99 4.98 -23.98 6.96 -25 9 C-25.66 9 -26.32 9 -27 9 C-27.33 9.99 -27.66 10.98 -28 12 C-30.31 12 -32.62 12 -35 12 C-37.29106029 6.81496881 -37.29106029 6.81496881 -36.0625 3.375 C-27.69106362 -6.26483583 -10.32587316 -6.88391544 0 0 Z M-17 22.125 C-18.0725 22.70507812 -19.145 23.28515625 -20.25 23.8828125 C-23.52360112 26.40311337 -24.13371144 28.01820379 -25 32 C-25.43440009 36.12680081 -25.36256152 38.30388188 -23.4375 42 C-21.07314137 44.34243713 -21.07314137 44.34243713 -17.5 44.1875 C-13.84184687 43.26952521 -13.84184687 43.26952521 -11.625 40.3125 C-8.26903971 33.47150402 -8.89124206 26.46804507 -9 19 C-12.14444504 19 -14.27759808 20.61328163 -17 22.125 Z " fill="#0077C3" transform="translate(381,296)"/>
<path d="M0 0 C1.65 0.66 3.3 1.32 5 2 C5.33 10.58 5.66 19.16 6 28 C7.65 27.01 9.3 26.02 11 25 C17.44920011 23.33772656 23.17668293 23.71090425 29 27 C31.89986748 29.36568137 33.61190983 31.54414174 35 35 C35.28710938 38.09692383 35.28710938 38.09692383 35.34375 41.70703125 C35.37339844 43.01607422 35.40304687 44.32511719 35.43359375 45.67382812 C35.45680126 47.0533678 35.4789279 48.43292606 35.5 49.8125 C35.54147857 52.50701165 35.59540771 55.20027599 35.65625 57.89453125 C35.68428711 59.68661011 35.68428711 59.68661011 35.71289062 61.51489258 C36.02484768 65.30161615 36.84511746 68.39329722 38 72 C39.32 72.33 40.64 72.66 42 73 C42.5625 74.9375 42.5625 74.9375 43 77 C42 78 42 78 39.40795898 78.11352539 C38.28204346 78.10828857 37.15612793 78.10305176 35.99609375 78.09765625 C34.17368164 78.09282227 34.17368164 78.09282227 32.31445312 78.08789062 C31.03505859 78.07951172 29.75566406 78.07113281 28.4375 78.0625 C27.15423828 78.05798828 25.87097656 78.05347656 24.54882812 78.04882812 C21.36583978 78.03699545 18.18294238 78.02051068 15 78 C14.67 76.68 14.34 75.36 14 74 C14.78375 73.814375 15.5675 73.62875 16.375 73.4375 C19.26112549 72.21753933 19.26112549 72.21753933 20.14453125 69.16015625 C21.48559608 63.85109321 21.32913132 58.4417675 21.3125 53 C21.32861328 51.94554687 21.34472656 50.89109375 21.36132812 49.8046875 C21.36511445 43.76170569 20.98052194 39.3051833 18 34 C16.23044679 32.36437233 16.23044679 32.36437233 14 32 C11.14581781 32.348071 8.73120659 33.0895978 6 34 C5.85156463 39.19599907 5.74274663 44.39076228 5.67041016 49.58837891 C5.64025517 51.35585019 5.59932322 53.12317203 5.54736328 54.89013672 C5.47448391 57.43234082 5.44053372 59.9725662 5.4140625 62.515625 C5.38309479 63.30430969 5.35212708 64.09299438 5.32022095 64.90557861 C5.25330598 67.43288671 5.25330598 67.43288671 6 71 C8.90774153 73.4475663 8.90774153 73.4475663 12 75 C12 75.66 12 76.32 12 77 C7.64286528 79.17856736 1.78592663 78.22967759 -3 78.25 C-4.82144531 78.2809375 -4.82144531 78.2809375 -6.6796875 78.3125 C-7.83726562 78.31765625 -8.99484375 78.3228125 -10.1875 78.328125 C-11.25355469 78.3374707 -12.31960937 78.34681641 -13.41796875 78.35644531 C-14.27003906 78.23881836 -15.12210938 78.12119141 -16 78 C-16.66 77.01 -17.32 76.02 -18 75 C-16.8553125 74.505 -16.8553125 74.505 -15.6875 74 C-12.06716403 71.30579649 -11.05278594 68.2493743 -10 64 C-9.59001715 60.15889501 -9.57888166 56.35248168 -9.6015625 52.4921875 C-9.59869232 51.40793488 -9.59582214 50.32368225 -9.59286499 49.20657349 C-9.59083227 46.92563349 -9.59630641 44.64467574 -9.60888672 42.36376953 C-9.62498229 38.87883528 -9.60899424 35.39505525 -9.58984375 31.91015625 C-9.59182571 29.68749745 -9.59566841 27.46483937 -9.6015625 25.2421875 C-9.59548981 24.20456268 -9.58941711 23.16693787 -9.5831604 22.09786987 C-9.6356288 16.68949021 -9.83565788 12.61758134 -13 8 C-15.07690578 7.03955898 -15.07690578 7.03955898 -17 7 C-17 6.01 -17 5.02 -17 4 C-13.34268286 2.35153771 -10.2450298 1.69123838 -6.25 1.4375 C-2.81311556 1.48764046 -2.81311556 1.48764046 0 0 Z " fill="#0079C2" transform="translate(246,268)"/>
<path d="M0 0 C0 0.66 0 1.32 0 2 C2.64 2 5.28 2 8 2 C8 1.34 8 0.68 8 0 C12.70970676 -0.91991141 17.2979263 -1.1750823 22.08203125 -1.203125 C23.24069954 -1.21167511 23.24069954 -1.21167511 24.42277527 -1.22039795 C26.05747121 -1.22981278 27.69218582 -1.23636789 29.3269043 -1.24023438 C31.76712722 -1.24982174 34.20646292 -1.28082748 36.64648438 -1.3125 C47.40723693 -1.38282904 57.4779895 -0.23789974 68 2 C68 2.66 68 3.32 68 4 C69.98 4.495 69.98 4.495 72 5 C72 5.99 72 6.98 72 8 C71.34 8.66 70.68 9.32 70 10 C70.99 10.66 71.98 11.32 73 12 C71.94039062 12.20496094 70.88078125 12.40992188 69.7890625 12.62109375 C68.40101178 12.89307666 67.01299256 13.16522044 65.625 13.4375 C64.57699219 13.63956055 64.57699219 13.63956055 63.5078125 13.84570312 C59.64371266 14.5772422 59.64371266 14.5772422 56 16 C54.64247704 16.11704964 53.27974112 16.17677189 51.91748047 16.20532227 C51.07675995 16.22526749 50.23603943 16.24521271 49.36984253 16.26576233 C48.46146637 16.28247482 47.55309021 16.29918732 46.6171875 16.31640625 C45.68778351 16.33718735 44.75837952 16.35796844 43.80081177 16.37937927 C40.8256179 16.44487646 37.85033423 16.50376052 34.875 16.5625 C32.86066772 16.60568506 30.84634459 16.64929934 28.83203125 16.69335938 C23.88811337 16.80055803 18.94410497 16.90182501 14 17 C14 17.33 14 17.66 14 18 C7.73 18 1.46 18 -5 18 C-4.01 17.67 -3.02 17.34 -2 17 C-2 16.34 -2 15.68 -2 15 C-3.22404541 15.01571045 -4.44809082 15.0314209 -5.70922852 15.04760742 C-10.32195251 15.10258172 -14.9346486 15.13659146 -19.54760742 15.16479492 C-21.53073014 15.17972977 -23.51382073 15.20008507 -25.49682617 15.22631836 C-37.40501674 15.37972016 -48.42919276 15.01595828 -60 12 C-60 11.67 -60 11.34 -60 11 C-58.35 10.67 -56.7 10.34 -55 10 C-55.185625 9.38125 -55.37125 8.7625 -55.5625 8.125 C-56 6 -56 6 -55 4 C-57.31 4 -59.62 4 -62 4 C-62 3.34 -62 2.68 -62 2 C-57.78329454 0.0437117 -53.64152028 -0.63476895 -49.0625 -1.125 C-48.28398682 -1.2084668 -47.50547363 -1.29193359 -46.70336914 -1.37792969 C-31.04702095 -2.89032212 -15.53770038 -2.30798732 0 0 Z " fill="#C6C5C8" transform="translate(247,243)"/>
<path d="M0 0 C0.66 -0.99 1.32 -1.98 2 -3 C3.9375 -2.5 3.9375 -2.5 6 -1 C7.02891553 4.05883469 7 8.84282427 7 14 C7.28520405 15.67557379 7.59955696 17.34817245 8 19 C6.02 19.99 6.02 19.99 4 21 C3.27296875 19.44539063 3.27296875 19.44539063 2.53125 17.859375 C-1.77176812 8.17255202 -1.77176812 8.17255202 -10.1171875 2.37109375 C-14.83934659 1.44037775 -17.81289471 1.68987294 -22 4 C-22.99 4 -23.98 4 -25 4 C-25.25127207 5.5590978 -25.47504458 7.12264016 -25.6875 8.6875 C-25.87892578 9.99267578 -25.87892578 9.99267578 -26.07421875 11.32421875 C-25.97861882 14.77084795 -25.14302293 16.31443962 -23 19 C-20.56334117 20.46253867 -20.56334117 20.46253867 -17.6875 21.4375 C-16.62789062 21.84871094 -15.56828125 22.25992187 -14.4765625 22.68359375 C-12.75566406 23.33521484 -12.75566406 23.33521484 -11 24 C-8.50973972 24.9741351 -6.03453561 25.98063435 -3.5625 27 C-2.42941406 27.45375 -1.29632813 27.9075 -0.12890625 28.375 C4.95817603 31.01698031 9.87897757 35.53502156 11.6875 41.125 C12.51886129 48.77352386 12.43751491 54.99765482 9 62 C8.01 62.33 7.02 62.66 6 63 C4.79117904 65.00016466 4.79117904 65.00016466 4 67 C3.34 67 2.68 67 2 67 C1.505 68.485 1.505 68.485 1 70 C-6.58221102 74.01411172 -15.72282839 74.55169814 -23.94921875 72.1328125 C-25.59179544 71.46006808 -27.21840885 70.74534477 -28.81640625 69.97265625 C-31.19555288 68.91289326 -33.43806899 68.42773892 -36 68 C-36.66 69.32 -37.32 70.64 -38 72 C-38.99 71.67 -39.98 71.34 -41 71 C-41 63.08 -41 55.16 -41 47 C-39.68 47.33 -38.36 47.66 -37 48 C-34.90330932 51.96873594 -34 54.48438726 -34 59 C-33.46375 59.2475 -32.9275 59.495 -32.375 59.75 C-29.43636073 61.29665225 -26.75229337 63.1451936 -24 65 C-21.19892988 66.40053506 -18.81108319 66.2075504 -15.6875 66.25 C-14.55699219 66.27578125 -13.42648438 66.3015625 -12.26171875 66.328125 C-7.84888071 65.88419878 -5.28530296 64.28530296 -2.1875 61.1875 C-0.58687514 58.23898052 -0.58615803 56.31073574 -1 53 C-2.41977909 50.77256213 -2.41977909 50.77256213 -4 49 C-4 48.34 -4 47.68 -4 47 C-4.680625 46.731875 -5.36125 46.46375 -6.0625 46.1875 C-34.35518273 34.75003251 -34.35518273 34.75003251 -39.11328125 24.6328125 C-40.9730348 19.11090108 -40.70357823 13.19350861 -38.9375 7.6875 C-29.3091575 -5.66794282 -14.19527584 -7.09763792 0 0 Z " fill="#0077C3" transform="translate(70,274)"/>
<path d="M0 0 C1.24910156 -0.01836914 1.24910156 -0.01836914 2.5234375 -0.03710938 C3.71839844 -0.04000977 3.71839844 -0.04000977 4.9375 -0.04296875 C6.03384766 -0.04913208 6.03384766 -0.04913208 7.15234375 -0.05541992 C9 0.1875 9 0.1875 11 2.1875 C11.20953433 5.15040225 11.30114742 8.02735599 11.30859375 10.9921875 C11.33375549 12.7903678 11.35915349 14.58854481 11.38476562 16.38671875 C11.41351123 19.22639096 11.43752318 22.06600591 11.45629883 24.90576172 C11.47794907 27.64320834 11.51739121 30.37997561 11.55859375 33.1171875 C11.55870956 33.96521942 11.55882538 34.81325134 11.5589447 35.6869812 C11.61783104 39.19255234 11.6874494 41.58192958 13.31274414 44.73095703 C15.06694429 46.52380981 15.06694429 46.52380981 18.4375 46.5625 C22.60021175 46.2404134 22.60021175 46.2404134 26 44.1875 C27.41406976 37.72510738 27.22206279 31.20770548 27.25 24.625 C27.270625 23.40619141 27.29125 22.18738281 27.3125 20.93164062 C27.31765625 19.75666016 27.3228125 18.58167969 27.328125 17.37109375 C27.3374707 16.30431396 27.34681641 15.23753418 27.35644531 14.13842773 C26.9470344 10.74901017 26.06790232 8.88685756 24 6.1875 C23.01 5.8575 22.02 5.5275 21 5.1875 C20.67 4.1975 20.34 3.2075 20 2.1875 C22.26613358 -0.07863358 27.37829173 0.66638189 30.4375 0.5 C31.76491211 0.41008789 31.76491211 0.41008789 33.11914062 0.31835938 C33.96541016 0.27130859 34.81167969 0.22425781 35.68359375 0.17578125 C36.46275146 0.12977783 37.24190918 0.08377441 38.04467773 0.03637695 C40 0.1875 40 0.1875 42 2.1875 C42.15108782 5.154487 42.18274221 8.02767871 42.125 10.9921875 C42.11742676 11.86771271 42.10985352 12.74323792 42.10205078 13.64529419 C42.0692902 17.39901288 42.01313013 21.15230031 41.95898438 24.90576172 C41.92282563 27.6428832 41.89862545 30.37993378 41.875 33.1171875 C41.85840332 33.96521942 41.84180664 34.81325134 41.82470703 35.6869812 C41.81810059 36.48105377 41.81149414 37.27512634 41.8046875 38.09326172 C41.79421387 38.78894257 41.78374023 39.48462341 41.77294922 40.2013855 C42.04696271 42.59830374 42.69702319 44.1615409 44 46.1875 C46.55519921 46.99921228 46.55519921 46.99921228 49 47.1875 C49 48.5075 49 49.8275 49 51.1875 C46.25162151 51.71857314 43.50187625 52.23765881 40.75 52.75 C39.58404297 52.97719727 39.58404297 52.97719727 38.39453125 53.20898438 C37.64042969 53.34755859 36.88632813 53.48613281 36.109375 53.62890625 C35.41811523 53.75982666 34.72685547 53.89074707 34.01464844 54.02563477 C31.7363916 54.20867939 30.15149647 53.94749673 28 53.1875 C27.34 52.5275 26.68 51.8675 26 51.1875 C25.2575 51.6825 24.515 52.1775 23.75 52.6875 C18.82817753 55.14841123 13.34749267 54.73106382 8 54.1875 C3.75251391 52.67054068 0.8218541 50.71481762 -2 47.1875 C-3.87504641 42.62617277 -4.20669383 38.86864089 -4.08984375 33.9609375 C-4.06943753 32.58594081 -4.04926206 31.21094067 -4.02929688 29.8359375 C-3.98571688 27.69190032 -3.93714018 25.54810726 -3.88354492 23.40429688 C-3.83522171 21.31901925 -3.80539886 19.23407177 -3.77734375 17.1484375 C-3.73468384 15.28904541 -3.73468384 15.28904541 -3.69116211 13.39208984 C-4.02486119 9.92953319 -4.58746379 8.63016115 -7 6.1875 C-9.08334635 4.9358533 -9.08334635 4.9358533 -11 4.1875 C-11 3.1975 -11 2.2075 -11 1.1875 C-7.58173253 -0.52163373 -3.76645237 0.00291521 0 0 Z " fill="#0077C3" transform="translate(145,292.8125)"/>
<path d="M0 0 C9.49264441 4.18737408 15.85002367 6.38604404 25.8515625 2.75390625 C30.81352336 1.01270908 35.25504364 0.94183921 40.484375 1.12109375 C41.29996887 1.14470474 42.11556274 1.16831573 42.95587158 1.19264221 C45.5541014 1.26905433 48.15201614 1.35317484 50.75 1.4375 C52.51430764 1.49074319 54.27863053 1.54348343 56.04296875 1.59570312 C60.36217769 1.72463899 64.68112028 1.8604874 69 2 C69 2.99 69 3.98 69 5 C65.54626758 6.27242774 62.15077099 7.20799686 58.54296875 7.890625 C52.55336297 9.0638805 46.62680664 10.47250897 40.6875 11.875 C32.29687979 13.83203264 23.90055365 15.69484621 15.4375 17.3125 C14.6127417 17.47153809 13.7879834 17.63057617 12.93823242 17.79443359 C4.3513417 19.39605125 -4.0424477 20.15375962 -12.77734375 20.1328125 C-14.1161837 20.13424759 -14.1161837 20.13424759 -15.48207092 20.13571167 C-17.35010855 20.13638705 -19.21814862 20.13457801 -21.08618164 20.13037109 C-23.95399146 20.12496893 -26.82164782 20.13036052 -29.68945312 20.13671875 C-31.51041701 20.13605872 -33.3313808 20.13477913 -35.15234375 20.1328125 C-36.43974709 20.13584885 -36.43974709 20.13584885 -37.75315857 20.13894653 C-43.77002232 20.11498884 -43.77002232 20.11498884 -46 19 C-45.53680089 14.27536912 -44.90108294 10.82942948 -42 7 C-41.34 7 -40.68 7 -40 7 C-39.77054688 6.40574219 -39.54109375 5.81148437 -39.3046875 5.19921875 C-37.65018855 2.41034776 -35.92028824 1.42580434 -33.125 -0.1875 C-32.26132813 -0.69667969 -31.39765625 -1.20585938 -30.5078125 -1.73046875 C-20.82406833 -6.63267569 -9.33691783 -4.64331461 0 0 Z " fill="#00325B" transform="translate(235,80)"/>
<path d="M0 0 C0 0.66 0 1.32 0 2 C0.66 2 1.32 2 2 2 C5.96800571 7.2310314 8.76281231 12.35874478 9 19 C9.08378906 19.73605469 9.16757813 20.47210938 9.25390625 21.23046875 C9.82434172 28.86459452 7.27399972 34.7472967 3 41 C-2.14052653 46.53521115 -7.5227495 49.27178082 -15 50 C-16.09634766 50.13921875 -16.09634766 50.13921875 -17.21484375 50.28125 C-24.40369477 50.78661738 -30.45447882 48.06881245 -35.859375 43.390625 C-42.72089822 35.98561479 -43.85264306 27.68992433 -43.4921875 17.93359375 C-42.63272661 11.06472773 -39.21405088 5.52836748 -34 1 C-33.34 1 -32.68 1 -32 1 C-32 0.34 -32 -0.32 -32 -1 C-21.60393055 -6.56068831 -10.0147377 -6.6764918 0 0 Z M-22.25 2.5625 C-26.74400272 8.82200379 -27.52612231 14.28598478 -27.4375 21.8125 C-27.43065186 22.69744141 -27.42380371 23.58238281 -27.41674805 24.49414062 C-27.22016075 32.48721811 -26.21596193 38.93021816 -20.25 44.625 C-18.1093151 46.29294192 -18.1093151 46.29294192 -15.8125 45.5 C-10.80045059 42.82690698 -8.8250138 37.96431858 -6.6875 32.875 C-5.05400509 23.66802868 -5.08021632 14.59475505 -9 6 C-9.32226562 5.28070313 -9.64453125 4.56140625 -9.9765625 3.8203125 C-10.87133924 1.83079782 -10.87133924 1.83079782 -13 1 C-17.9239954 0.51018523 -17.9239954 0.51018523 -22.25 2.5625 Z " fill="#0077C2" transform="translate(126,297)"/>
<path d="M0 0 C5.15805002 4.10299434 9.12627523 9.81714548 10.875 16.1875 C11 19 11 19 10 24 C-1.22 24 -12.44 24 -24 24 C-24 30.41867279 -23.86065136 31.87466631 -21 37 C-21 37.66 -21 38.32 -21 39 C-20.1028125 39.433125 -20.1028125 39.433125 -19.1875 39.875 C-17 41 -17 41 -14 43 C-9.50845653 43.7357576 -5.85899311 43.3727706 -1.6875 41.5625 C1.8621029 38.17799491 3.34483176 34.55658081 5 30 C5.66 30 6.32 30 7 30 C7 29.34 7 28.68 7 28 C8.32 28.33 9.64 28.66 11 29 C9.78184562 33.68520915 8.30440013 37.70543612 6 42 C5.34 42 4.68 42 4 42 C3.67 43.32 3.34 44.64 3 46 C2.01 46 1.02 46 0 46 C0 46.66 0 47.32 0 48 C-6.89289278 51.89901006 -13.1218271 53.17094095 -21 52 C-27.81906033 49.83247871 -33.26776599 46.16683699 -37 40 C-40.71683612 31.87856674 -42.12379298 23.50456728 -39 15 C-37.76700948 12.2621047 -36.41969658 9.65010028 -35 7 C-34.34 7 -33.68 7 -33 7 C-32.74992187 6.39542969 -32.49984375 5.79085938 -32.2421875 5.16796875 C-30.81214229 2.67213513 -29.57480307 1.77775957 -27.125 0.3125 C-26.44695312 -0.10386719 -25.76890625 -0.52023437 -25.0703125 -0.94921875 C-17.33148919 -4.87703662 -7.59295397 -3.74364331 0 0 Z M-20 4 C-22.41449309 7.74662721 -23.39258795 10.55066995 -23 15 C-23.66 15 -24.32 15 -25 15 C-25 15.99 -25 16.98 -25 18 C-18.4 18 -11.8 18 -5 18 C-3.56911472 15.13822943 -4.40008303 13.06624227 -5 10 C-5.66 10 -6.32 10 -7 10 C-7.12375 9.401875 -7.2475 8.80375 -7.375 8.1875 C-7.95475985 5.73768652 -7.95475985 5.73768652 -10 3 C-13.91467001 1.6245754 -16.44883556 1.850611 -20 4 Z " fill="#0076C4" transform="translate(329,295)"/>
<path d="M0 0 C1.32 0.33 2.64 0.66 4 1 C4 6.61 4 12.22 4 18 C6.97 18 9.94 18 13 18 C13.33 19.65 13.66 21.3 14 23 C10.7 23 7.4 23 4 23 C4.09351182 28.35716279 4.19960044 33.71387239 4.31738281 39.07055664 C4.35567995 40.89307824 4.39053155 42.71567563 4.421875 44.53833008 C4.46750979 47.15733941 4.52550622 49.77582674 4.5859375 52.39453125 C4.59748871 53.21025101 4.60903992 54.02597076 4.62094116 54.8664093 C4.72197274 58.73364504 4.8077319 60.71159785 7 64 C11.455 63.505 11.455 63.505 16 63 C16.495 64.485 16.495 64.485 17 66 C13.46710844 70.60811943 9.4775383 71.26125306 4 72 C-0.16681253 72.49108862 -3.14259396 72.50326006 -6.875 70.3125 C-11.48700749 65.29355067 -11.27391874 60.22794495 -11.1953125 53.76171875 C-11.1924826 52.88095169 -11.18965271 52.00018463 -11.18673706 51.09272766 C-11.17557833 48.29084455 -11.15048171 45.48928584 -11.125 42.6875 C-11.11496463 40.78320775 -11.10583975 38.87891048 -11.09765625 36.97460938 C-11.07565309 32.31628203 -11.04115294 27.65819594 -11 23 C-13.31 23 -15.62 23 -18 23 C-17.875 21.1875 -17.875 21.1875 -17 19 C-15 18 -13 17 -11 16 C-9.53498528 14.49746919 -9.53498528 14.49746919 -8.25 12.8125 C-7.5075 11.884375 -6.765 10.95625 -6 10 C-5.34 10 -4.68 10 -4 10 C-3.79503906 9.36191406 -3.59007812 8.72382813 -3.37890625 8.06640625 C-3.10949219 7.24011719 -2.84007812 6.41382813 -2.5625 5.5625 C-2.16224609 4.32693359 -2.16224609 4.32693359 -1.75390625 3.06640625 C-1 1 -1 1 0 0 Z " fill="#0079C2" transform="translate(452,275)"/>
<path d="M0 0 C0.99 0.33 1.98 0.66 3 1 C3 6.61 3 12.22 3 18 C5.97 18 8.94 18 12 18 C12.66 19.32 13.32 20.64 14 22 C12.41727399 23.58272601 10.61965997 23.34735747 8.4375 23.5625 C7.19806641 23.68818359 7.19806641 23.68818359 5.93359375 23.81640625 C5.29550781 23.87699219 4.65742188 23.93757813 4 24 C3.95036375 28.73224376 3.91416903 33.46433415 3.89013672 38.19677734 C3.88011237 39.80487713 3.86648934 41.41295885 3.84912109 43.02099609 C3.82471512 45.33956376 3.81348114 47.65788929 3.8046875 49.9765625 C3.79436493 50.68930328 3.78404236 51.40204407 3.77340698 52.13638306 C3.7724435 56.47509083 4.40562067 59.96715817 6 64 C10.455 63.505 10.455 63.505 15 63 C15.33 64.65 15.66 66.3 16 68 C9.37801659 70.77256875 3.25619835 73.19961344 -4 72 C-8.26234989 70.23946418 -10.08623537 68.15415327 -12 64 C-12.34439627 60.83491129 -12.21045658 57.71944577 -12.07421875 54.54296875 C-12.03455742 53.18852409 -12.03455742 53.18852409 -11.99409485 51.80671692 C-11.90657766 48.93295333 -11.79734319 46.06048829 -11.6875 43.1875 C-11.62421563 41.23507204 -11.56235045 39.28259753 -11.50195312 37.33007812 C-11.35107624 32.55268979 -11.18072328 27.77634863 -11 23 C-13.31 23 -15.62 23 -18 23 C-18 21.68 -18 20.36 -18 19 C-17.05125 18.9175 -16.1025 18.835 -15.125 18.75 C-14.09375 18.5025 -13.0625 18.255 -12 18 C-10.96160037 16.1795948 -10.96160037 16.1795948 -10 14 C-8.88468698 12.49768681 -7.73656934 11.01935594 -6.5625 9.5625 C-4.12362586 6.4834214 -1.89415643 3.45404997 0 0 Z " fill="#0077C3" transform="translate(212,275)"/>
<path d="M0 0 C0.99 0.66 1.98 1.32 3 2 C5.27189433 2.20542085 5.27189433 2.20542085 7.8125 2.0625 C25.46423969 1.73211985 25.46423969 1.73211985 30 4 C32.56845219 4.03037021 35.120762 3.93311185 37.6875 3.83984375 C40 4 40 4 42 6 C35.97052552 8.47901738 30.23337504 9.83404083 23.8125 10.875 C17.13428945 12.00515871 10.57956069 13.29960007 4.02612305 15.01391602 C-14.32493088 19.78903228 -32.28488483 19.70000673 -51 17 C-51.33 16.67 -51.66 16.34 -52 16 C-55.04304432 15.92733028 -58.07403966 16.00383691 -61.1171875 16.0625 C-64 16 -64 16 -67 15 C-67 14.34 -67 13.68 -67 13 C-59.89860661 11.10360518 -52.79851802 9.55163278 -45.56079102 8.27075195 C-40.70297094 7.38477024 -35.93543935 6.26330227 -31.14770508 5.05712891 C-22.64038121 2.91592875 -14.61177599 1.41184297 -5.8359375 1.140625 C-2.92255252 1.12354822 -2.92255252 1.12354822 0 0 Z " fill="#00325A" transform="translate(264,111)"/>
<path d="M0 0 C4.33001621 0.47502288 8.66970709 0.85674399 13.0078125 1.25 C13.87664062 1.3325 14.74546875 1.415 15.640625 1.5 C16.82446777 1.60828125 16.82446777 1.60828125 18.03222656 1.71875 C20 2 20 2 22 3 C23.70363822 3.22622081 25.41328701 3.40888473 27.125 3.5625 C28.03507812 3.64628906 28.94515625 3.73007813 29.8828125 3.81640625 C30.58148438 3.87699219 31.28015625 3.93757812 32 4 C32 4.66 32 5.32 32 6 C21.57087053 9.0354702 11.05609152 11.27391509 0.39477539 13.33666992 C-0.64815674 13.53881104 -1.69108887 13.74095215 -2.765625 13.94921875 C-3.70180664 14.12799561 -4.63798828 14.30677246 -5.60253906 14.4909668 C-8.1280316 14.98028926 -8.1280316 14.98028926 -11 16 C-22.76780475 17.54990599 -33.72029237 16.48131771 -45.4140625 14.76953125 C-52.59014525 13.73117942 -59.75891776 13.30477705 -67 13 C-66.67 12.01 -66.34 11.02 -66 10 C-63.27663131 9.10548671 -60.68834422 8.4185997 -57.8984375 7.80859375 C-57.0697818 7.61781754 -56.2411261 7.42704132 -55.38735962 7.23048401 C-53.62163249 6.82686472 -51.85442615 6.42967227 -50.0859375 6.03833008 C-47.43125915 5.44996882 -44.78197455 4.84117777 -42.1328125 4.22851562 C-13.44601163 -2.31605942 -13.44601163 -2.31605942 0 0 Z " fill="#00325A" transform="translate(268,146)"/>
<path d="M0 0 C1.50820312 0.00773438 1.50820312 0.00773438 3.046875 0.015625 C7.55680553 0.06347572 11.71035153 0.2628122 16.125 1.25 C16.125 1.91 16.125 2.57 16.125 3.25 C20.745 3.25 25.365 3.25 30.125 3.25 C30.125 2.59 30.125 1.93 30.125 1.25 C33.80248608 0.40277317 37.2059349 0.12143165 40.9765625 0.1171875 C42.07484375 0.11589844 43.173125 0.11460937 44.3046875 0.11328125 C45.44164062 0.11714844 46.57859375 0.12101563 47.75 0.125 C48.8946875 0.12113281 50.039375 0.11726562 51.21875 0.11328125 C52.31445312 0.11457031 53.41015625 0.11585938 54.5390625 0.1171875 C56.03880615 0.11887939 56.03880615 0.11887939 57.56884766 0.12060547 C60.125 0.25 60.125 0.25 63.125 1.25 C63.4375 4.0625 63.4375 4.0625 63.125 7.25 C59.30653814 10.29742203 56.30719357 10.60866019 51.51171875 10.54296875 C50.26455078 10.53330078 49.01738281 10.52363281 47.73242188 10.51367188 C46.43884766 10.48853516 45.14527344 10.46339844 43.8125 10.4375 C41.84313477 10.41719727 41.84313477 10.41719727 39.83398438 10.39648438 C36.59723923 10.36117443 33.36132895 10.3118528 30.125 10.25 C30.125 9.59 30.125 8.93 30.125 8.25 C25.835 8.25 21.545 8.25 17.125 8.25 C17.125 8.91 17.125 9.57 17.125 10.25 C10.8996292 11.69168002 4.67208577 11.47392276 -1.6875 11.5 C-3.55631836 11.5309375 -3.55631836 11.5309375 -5.46289062 11.5625 C-12.33512714 11.59166599 -17.64244393 11.22160766 -23.875 8.25 C-23.545 6.6 -23.215 4.95 -22.875 3.25 C-15.10330459 0.71985806 -8.15082872 -0.17114601 0 0 Z " fill="#8F8C91" transform="translate(227.875,243.75)"/>
<path d="M0 0 C-0.11509661 1.41750563 -0.24253658 2.83401169 -0.375 4.25 C-0.44460937 5.03890625 -0.51421875 5.8278125 -0.5859375 6.640625 C-1 9 -1 9 -2.0390625 11.05078125 C-3.3491635 13.70826255 -3.02434508 16.12346124 -2.9375 19.02734375 C-3.02047921 21.64637514 -3.83702207 23.67404414 -5 26 C-10.55407192 26.22117986 -15.98377324 26.02534573 -21.5 25.3125 C-22.5003125 25.18488281 -23.500625 25.05726563 -24.53125 24.92578125 C-27 24 -27 24 -28.3046875 21.875 C-29.13169322 18.45547073 -29.42804189 15.19991963 -29.625 11.6875 C-29.69976562 10.43324219 -29.77453125 9.17898437 -29.8515625 7.88671875 C-29.90054688 6.93410156 -29.94953125 5.98148438 -30 5 C-29.01 4.67 -28.02 4.34 -27 4 C-26.34 4.33 -25.68 4.66 -25 5 C-25 4.34 -25 3.68 -25 3 C-24.23816406 2.87882813 -23.47632813 2.75765625 -22.69140625 2.6328125 C-17.03984289 1.71557999 -11.47661313 0.72774474 -5.9375 -0.73046875 C-3.7022985 -1.04141412 -2.13705204 -0.67259897 0 0 Z " fill="#0076C0" transform="translate(235,196)"/>
<path d="M0 0 C0.78890625 0.3815625 1.5778125 0.763125 2.390625 1.15625 C4.27348748 2.07793094 6.13895927 3.03501592 8 4 C7.67 4.66 7.34 5.32 7 6 C4.83984375 6.4921875 4.83984375 6.4921875 1.9375 6.875 C-3.13105242 7.64040566 -8.03987246 8.67051734 -13 9.9375 C-13.68239746 10.11047607 -14.36479492 10.28345215 -15.06787109 10.46166992 C-18.13034049 11.24428474 -21.18314698 12.05049276 -24.23046875 12.890625 C-31.48030413 14.8443455 -38.50321764 15.64934405 -46 16 C-44.94124926 12.59687262 -43.99097846 9.98646769 -42 7 C-41.34 7 -40.68 7 -40 7 C-39.77054688 6.40574219 -39.54109375 5.81148437 -39.3046875 5.19921875 C-37.65018855 2.41034776 -35.92028824 1.42580434 -33.125 -0.1875 C-32.26132813 -0.69667969 -31.39765625 -1.20585938 -30.5078125 -1.73046875 C-20.87938688 -6.60467175 -9.26458898 -4.72813507 0 0 Z " fill="#0077C0" transform="translate(235,80)"/>
<path d="M0 0 C-0.11498267 2.20887757 -0.24243505 4.41710787 -0.375 6.625 C-0.44460938 7.85476562 -0.51421875 9.08453125 -0.5859375 10.3515625 C-0.9814487 13.83653855 -1.76261849 16.73049601 -3 20 C-3.67160156 20.13277344 -4.34320313 20.26554687 -5.03515625 20.40234375 C-7.21202768 20.84115973 -9.38615156 21.29366328 -11.55859375 21.75390625 C-12.83863281 22.02074219 -14.11867188 22.28757813 -15.4375 22.5625 C-16.71496094 22.83191406 -17.99242187 23.10132813 -19.30859375 23.37890625 C-22.67895289 23.94598255 -25.60097556 24.35542082 -29 24 C-30.7632507 21.35512395 -31.57843145 19.53255516 -32.5 16.5625 C-33.44197853 13.53690592 -34.55760956 10.81925134 -36 8 C-32.50151403 7.18088854 -29.00096838 6.37092972 -25.5 5.5625 C-24.51773437 5.33240234 -23.53546875 5.10230469 -22.5234375 4.86523438 C-18.17554345 3.86521874 -13.90955549 2.92742766 -9.46875 2.46484375 C-5.641155 1.95191154 -3.8131766 0 0 0 Z " fill="#0077C0" transform="translate(299,181)"/>
<path d="M0 0 C1.0725 0.144375 2.145 0.28875 3.25 0.4375 C9.7868634 1.25606966 16.40845953 2 23 2 C23.64257562 9.22897572 21.21421316 15.57157367 18 22 C15.3828125 22.59765625 15.3828125 22.59765625 12.125 23.0625 C8.92588374 23.52887719 6.07034214 23.97655262 3 25 C2.01 24.34 1.02 23.68 0 23 C-0.125 20.4375 -0.125 20.4375 0 18 C-0.33 17.67 -0.66 17.34 -1 17 C-1 14.66666667 -1 12.33333333 -1 10 C-1.20625 8.948125 -1.4125 7.89625 -1.625 6.8125 C-2.03672574 3.72455697 -1.67589717 2.56313684 0 0 Z " fill="#0077C0" transform="translate(272,208)"/>
<path d="M0 0 C4.36866646 1.09216662 5.39620831 2.04079092 8.4375 5.1875 C9.22125 5.99574219 10.005 6.80398438 10.8125 7.63671875 C12.58474666 9.55137809 14.28704195 11.48113613 15.9375 13.5 C17.75403019 16.04590598 17.75403019 16.04590598 20 17 C20 11.72 20 6.44 20 1 C21.65 1 23.3 1 25 1 C26 2 26 2 26.11352539 4.50024414 C26.10828857 5.58426514 26.10305176 6.66828613 26.09765625 7.78515625 C26.09443359 8.95498047 26.09121094 10.12480469 26.08789062 11.33007812 C26.07951172 12.56177734 26.07113281 13.79347656 26.0625 15.0625 C26.05798828 16.29806641 26.05347656 17.53363281 26.04882812 18.80664062 C26.03699608 21.87114117 26.02051173 24.93554721 26 28 C24.68 28.33 23.36 28.66 22 29 C20.49405319 27.38050958 18.99539332 25.75424026 17.5 24.125 C16.6646875 23.22007812 15.829375 22.31515625 14.96875 21.3828125 C13 19 13 19 13 17 C12.071875 16.566875 12.071875 16.566875 11.125 16.125 C9 15 9 15 7 13 C6.67 17.95 6.34 22.9 6 28 C2 29 2 29 0 28 C0 18.76 0 9.52 0 0 Z " fill="#002F53" transform="translate(355,357)"/>
<path d="M0 0 C4.49945882 1.12486471 4.49945882 1.12486471 6.9453125 3.87109375 C7.46480469 4.44537109 7.98429687 5.01964844 8.51953125 5.61132812 C9.31423828 6.5152832 9.31423828 6.5152832 10.125 7.4375 C11.18998931 8.62380104 12.25508888 9.81000311 13.3203125 10.99609375 C13.78711426 11.52388428 14.25391602 12.0516748 14.73486328 12.59545898 C15.78722677 13.76378148 16.88814426 14.88814426 18 16 C18.33 11.38 18.66 6.76 19 2 C20.65 1.67 22.3 1.34 24 1 C25 2 25 2 25.11352539 4.50024414 C25.10828857 5.58426514 25.10305176 6.66828613 25.09765625 7.78515625 C25.09443359 8.95498047 25.09121094 10.12480469 25.08789062 11.33007812 C25.07951172 12.56177734 25.07113281 13.79347656 25.0625 15.0625 C25.05798828 16.29806641 25.05347656 17.53363281 25.04882812 18.80664062 C25.03699608 21.87114117 25.02051173 24.93554721 25 28 C21 28 21 28 19.40014648 26.85424805 C18.89555908 26.32871338 18.39097168 25.80317871 17.87109375 25.26171875 C17.31099609 24.68873047 16.75089844 24.11574219 16.17382812 23.52539062 C15.60083984 22.91888672 15.02785156 22.31238281 14.4375 21.6875 C13.86064453 21.09259766 13.28378906 20.49769531 12.68945312 19.88476562 C11.61180176 18.77231122 10.53831748 17.65579361 9.47045898 16.53393555 C8.00172517 15.00179964 6.50076971 13.50076971 5 12 C5 17.28 5 22.56 5 28 C3.35 28 1.7 28 0 28 C0 18.76 0 9.52 0 0 Z " fill="#003055" transform="translate(93,357)"/>
<path d="M0 0 C0 0.66 0 1.32 0 2 C0.61875 2.226875 1.2375 2.45375 1.875 2.6875 C4.69339387 4.42827269 5.11944786 5.84468818 6 9 C6.56990672 13.44527244 5.35475386 16.23239383 3 20 C-1.1443455 24.23853517 -4.06637785 25.78808492 -10 26 C-11.98 25.67 -13.96 25.34 -16 25 C-16 16.09 -16 7.18 -16 -2 C-4.75 -3.125 -4.75 -3.125 0 0 Z M-11 3 C-11 8.61 -11 14.22 -11 20 C-6.98855329 21.49507037 -6.98855329 21.49507037 -3.75 19.125 C-1.12924998 16.74431868 -0.50443463 14.95630156 -0.3125 11.4375 C-0.55409907 7.98608473 -0.85269916 7.17255241 -3.1875 4.4375 C-6.21560062 2.62074078 -6.21560062 2.62074078 -11 3 Z " fill="#002F57" transform="translate(45,360)"/>
<path d="M0 0 C0 -0.33 0 -0.66 0 -1 C3.63 -1 7.26 -1 11 -1 C11 -0.67 11 -0.34 11 0 C12.96453125 -0.01571045 12.96453125 -0.01571045 14.96875 -0.03173828 C19.90394271 -0.06838632 24.83912382 -0.09106074 29.77441406 -0.10986328 C31.89617954 -0.1198201 34.01793167 -0.13339042 36.13964844 -0.15087891 C48.60309438 -0.25091601 60.67798411 -0.00912281 73 2 C73 2.99 73 3.98 73 5 C74.98 5.495 74.98 5.495 77 6 C72.6588712 6.13328794 68.7356497 5.85320179 64.48838806 4.94233704 C53.15399219 2.52098411 41.97508284 2.6585106 30.4375 2.8125 C28.44336963 2.82759352 26.44922804 2.84127357 24.45507812 2.85351562 C19.63643444 2.88610667 14.81834635 2.93762348 10 3 C10 3.66 10 4.32 10 5 C7.36 5 4.72 5 2 5 C2 4.34 2 3.68 2 3 C-32.33158294 -0.29308869 -32.33158294 -0.29308869 -65 8 C-64.34 6.02 -63.68 4.04 -63 2 C-41.90520056 -1.25751775 -21.24982898 -1.6619978 0 0 Z " fill="#E2E1E3" transform="translate(245,240)"/>
<path d="M0 0 C0.9295752 0.13889648 1.85915039 0.27779297 2.81689453 0.42089844 C3.80157715 0.57204102 4.78625977 0.72318359 5.80078125 0.87890625 C20.39399318 2.94752572 34.46418931 2.89078637 49.11328125 1.44140625 C49.11328125 0.78140625 49.11328125 0.12140625 49.11328125 -0.55859375 C52.41328125 -0.55859375 55.71328125 -0.55859375 59.11328125 -0.55859375 C59.11328125 0.10140625 59.11328125 0.76140625 59.11328125 1.44140625 C67.69665526 2.31240349 76.24258488 2.65706244 84.86645508 2.68164062 C86.91333684 2.69134724 88.95921103 2.72250616 91.00585938 2.75390625 C99.31253072 2.81715344 106.83189296 1.94856832 114.9128418 -0.00878906 C118.06397828 -0.55012397 120.06663133 -0.42322719 123.11328125 0.44140625 C111.32159701 6.82965028 97.29592471 5.97617733 84.30078125 6.12890625 C82.33656676 6.16214855 80.37237307 6.19664435 78.40820312 6.23242188 C73.64334555 6.31652466 68.87852862 6.38370171 64.11328125 6.44140625 C64.11328125 6.77140625 64.11328125 7.10140625 64.11328125 7.44140625 C57.84328125 7.44140625 51.57328125 7.44140625 45.11328125 7.44140625 C46.10328125 7.11140625 47.09328125 6.78140625 48.11328125 6.44140625 C48.11328125 5.78140625 48.11328125 5.12140625 48.11328125 4.44140625 C46.88923584 4.4571167 45.66519043 4.47282715 44.40405273 4.48901367 C39.79132874 4.54398797 35.17863265 4.57799771 30.56567383 4.60620117 C28.58255111 4.62113602 26.59946052 4.64149132 24.61645508 4.66772461 C12.70826451 4.82112641 1.68408849 4.45736453 -9.88671875 1.44140625 C-9.88671875 1.11140625 -9.88671875 0.78140625 -9.88671875 0.44140625 C-6.34112006 -0.42280631 -3.59700147 -0.57232227 0 0 Z " fill="#DBDADC" transform="translate(196.88671875,253.55859375)"/>
<path d="M0 0 C2.88024893 2.79296866 3.45242194 5.06838585 4.0625 9 C3.375 11.875 3.375 11.875 2.0625 14 C1.0725 14.33 0.0825 14.66 -0.9375 15 C-0.9375 15.99 -0.9375 16.98 -0.9375 18 C-0.2775 18 0.3825 18 1.0625 18 C5.0625 23.29411765 5.0625 23.29411765 5.0625 27 C2.3125 27.375 2.3125 27.375 -0.9375 27 C-3.3125 24 -3.3125 24 -4.9375 21 C-5.5975 22.98 -6.2575 24.96 -6.9375 27 C-8.5875 27 -10.2375 27 -11.9375 27 C-11.9375 18.09 -11.9375 9.18 -11.9375 0 C-2.9375 -1 -2.9375 -1 0 0 Z M-5.9375 5 C-5.9375 6.98 -5.9375 8.96 -5.9375 11 C-4.6175 10.67 -3.2975 10.34 -1.9375 10 C-2.2675 8.35 -2.5975 6.7 -2.9375 5 C-3.9275 5 -4.9175 5 -5.9375 5 Z " fill="#00335A" transform="translate(435.9375,358)"/>
<path d="M0 0 C0.99 0 1.98 0 3 0 C5.29592507 4.36225763 7.15359446 8.80884954 8.94921875 13.3984375 C10.27583794 16.68292963 11.75421697 19.88682135 13.265625 23.08984375 C14 25 14 25 14 28 C11.6875 28.3125 11.6875 28.3125 9 28 C6 23.96551724 6 23.96551724 6 22 C3.03 22 0.06 22 -3 22 C-4.32 24.31 -5.64 26.62 -7 29 C-9.475 28.01 -9.475 28.01 -12 27 C-10.75462917 23.99805808 -9.5028444 20.99882969 -8.25 18 C-7.90195313 17.16082031 -7.55390625 16.32164062 -7.1953125 15.45703125 C-4.99069518 10.19044544 -2.60973065 5.07839478 0 0 Z M1 11 C0.34 12.65 -0.32 14.3 -1 16 C0.32 16 1.64 16 3 16 C2.67 14.35 2.34 12.7 2 11 C1.67 11 1.34 11 1 11 Z " fill="#002F55" transform="translate(166,357)"/>
<path d="M0 0 C2.31558503 0.9433754 3.71127203 1.53421869 5.04907227 3.69238281 C5.30229248 4.35592773 5.5555127 5.01947266 5.81640625 5.703125 C6.10580078 6.43660156 6.39519531 7.17007812 6.69335938 7.92578125 C6.98017578 8.69277344 7.26699219 9.45976562 7.5625 10.25 C8.14502032 11.75602815 8.72962237 13.26125291 9.31640625 14.765625 C9.59371582 15.48814453 9.87102539 16.21066406 10.15673828 16.95507812 C11.06907531 19.25972881 11.06907531 19.25972881 12.77734375 22.359375 C14 25 14 25 13 28 C11.68 28 10.36 28 9 28 C9 27.34 9 26.68 9 26 C8.01 25.67 7.02 25.34 6 25 C5.67 24.01 5.34 23.02 5 22 C2.36 22 -0.28 22 -3 22 C-3.99 23.98 -4.98 25.96 -6 28 C-7.65 28 -9.3 28 -11 28 C-11 23.63560156 -10.13540306 21.74847659 -8.25 17.875 C-5.88433499 12.91996643 -3.72185178 7.95589917 -1.76171875 2.828125 C-1 1 -1 1 0 0 Z M0 12 C-0.33 13.32 -0.66 14.64 -1 16 C0.32 16 1.64 16 3 16 C2.67 14.68 2.34 13.36 2 12 C1.34 12 0.68 12 0 12 Z " fill="#002E56" transform="translate(273,357)"/>
<path d="M0 0 C1.5625 3.375 1.5625 3.375 2 7 C0.75 9.75 0.75 9.75 -1 12 C-1.99 13.485 -1.99 13.485 -3 15 C-2.566875 15.55429687 -2.13375 16.10859375 -1.6875 16.6796875 C-0.8521875 17.76636719 -0.8521875 17.76636719 0 18.875 C0.556875 19.59429687 1.11375 20.31359375 1.6875 21.0546875 C3 23 3 23 3 25 C0.375 25.5 0.375 25.5 -3 25 C-5.3682433 22.56775013 -7.19511787 19.86733048 -9 17 C-9.33 19.64 -9.66 22.28 -10 25 C-11.32 25 -12.64 25 -14 25 C-14 16.09 -14 7.18 -14 -2 C-4.22818792 -3.22147651 -4.22818792 -3.22147651 0 0 Z M-10 3 C-10 5.31 -10 7.62 -10 10 C-8.35 9.34 -6.7 8.68 -5 8 C-5 6.68 -5 5.36 -5 4 C-6.65 3.67 -8.3 3.34 -10 3 Z " fill="#003057" transform="translate(313,360)"/>
<path d="M0 0 C5.28 0 10.56 0 16 0 C16.33 0.99 16.66 1.98 17 3 C16.67 3.66 16.34 4.32 16 5 C12.37 5 8.74 5 5 5 C5 6.65 5 8.3 5 10 C8.63 10 12.26 10 16 10 C16.33 11.32 16.66 12.64 17 14 C16 15 16 15 13.71484375 15.09765625 C12.34005859 15.08025391 12.34005859 15.08025391 10.9375 15.0625 C10.01839844 15.05347656 9.09929687 15.04445313 8.15234375 15.03515625 C7.44207031 15.02355469 6.73179687 15.01195312 6 15 C6 17.31 6 19.62 6 22 C8.97 22 11.94 22 15 22 C15.66 23.32 16.32 24.64 17 26 C15.06794101 27.93205899 11.64398339 27.44154433 9.0625 27.625 C7.79535156 27.72039062 6.52820313 27.81578125 5.22265625 27.9140625 C2 28 2 28 0 27 C0 18.09 0 9.18 0 0 Z " fill="#00325F" transform="translate(394,358)"/>
<path d="M0 0 C5.28 0 10.56 0 16 0 C15.67 1.65 15.34 3.3 15 5 C11.7 5 8.4 5 5 5 C5 6.65 5 8.3 5 10 C8.3 10 11.6 10 15 10 C15.33 11.32 15.66 12.64 16 14 C15 15 15 15 12.71484375 15.09765625 C11.34005859 15.08025391 11.34005859 15.08025391 9.9375 15.0625 C9.01839844 15.05347656 8.09929687 15.04445313 7.15234375 15.03515625 C6.44207031 15.02355469 5.73179688 15.01195312 5 15 C5 17.31 5 19.62 5 22 C8.3 22 11.6 22 15 22 C15.33 23.65 15.66 25.3 16 27 C13.5211787 27.19389096 11.04219069 27.38040123 8.5625 27.5625 C7.85544922 27.61857422 7.14839844 27.67464844 6.41992188 27.73242188 C4.61572163 27.86190993 2.80768048 27.93521608 1 28 C0 27 0 27 -0.11352539 24.40795898 C-0.10828857 23.28204346 -0.10305176 22.15612793 -0.09765625 20.99609375 C-0.09443359 19.78115234 -0.09121094 18.56621094 -0.08789062 17.31445312 C-0.07951172 16.03505859 -0.07113281 14.75566406 -0.0625 13.4375 C-0.05798828 12.15423828 -0.05347656 10.87097656 -0.04882812 9.54882812 C-0.03699555 6.3658658 -0.01905944 3.18292726 0 0 Z " fill="#00315D" transform="translate(63,358)"/>
<path d="M0 0 C5.02254631 -0.2954439 7.89542386 0.01485372 12 3 C11.67 4.32 11.34 5.64 11 7 C8.21176345 8.0326802 7.1322726 8.04509293 4.25 7.0625 C3.5075 6.711875 2.765 6.36125 2 6 C3.40856092 9.54364273 4.7014676 10.56661787 8.125 12.125 C10.81927324 13.70034009 11.81577356 14.36704322 12.69921875 17.40234375 C12.88342173 21.72793786 12.64970191 24.17310666 9.9375 27.625 C6.19988003 29.37452424 4.07905929 29.72840345 0 29 C-2.27984591 27.17726605 -3.37186108 25.5162147 -5 23 C-5 22.01 -5 21.02 -5 20 C-3.35 19.67 -1.7 19.34 0 19 C0.66 20.32 1.32 21.64 2 23 C3.32 22.67 4.64 22.34 6 22 C5.96906827 19.58414426 5.96906827 19.58414426 5 17 C3.02699884 15.94773272 1.02323613 14.95211112 -1 14 C-3.5 11.6875 -3.5 11.6875 -5 9 C-4.4375 5.75 -4.4375 5.75 -3 3 C-2.01 2.67 -1.02 2.34 0 2 C0 1.34 0 0.68 0 0 Z " fill="#002F55" transform="translate(458,357)"/>
<path d="M0 0 C0 0.66 0 1.32 0 2 C0.99 2.33 1.98 2.66 3 3 C2.91253716 4.43861294 2.80434652 5.87597508 2.6875 7.3125 C2.62949219 8.11300781 2.57148438 8.91351563 2.51171875 9.73828125 C1.90202198 12.43304787 1.20569614 13.36615101 -1 15 C-4.6875 15.6875 -4.6875 15.6875 -8 16 C-8 19.3 -8 22.6 -8 26 C-9.65 26 -11.3 26 -13 26 C-14.71084501 24.28915499 -14.13014689 22.05639907 -14.1328125 19.72265625 C-14.13410156 18.65208984 -14.13539063 17.58152344 -14.13671875 16.47851562 C-14.13285156 15.35123047 -14.12898437 14.22394531 -14.125 13.0625 C-14.12886719 11.93908203 -14.13273438 10.81566406 -14.13671875 9.65820312 C-14.13542969 8.58634766 -14.13414062 7.51449219 -14.1328125 6.41015625 C-14.13168457 5.42152588 -14.13055664 4.43289551 -14.12939453 3.41430664 C-14 1 -14 1 -13 -1 C-11.07421875 -1.484375 -11.07421875 -1.484375 -8.6875 -1.75 C-7.51767578 -1.89695312 -7.51767578 -1.89695312 -6.32421875 -2.046875 C-3.69866432 -1.99392264 -2.23526243 -1.32990442 0 0 Z M-8 4 C-8 5.98 -8 7.96 -8 10 C-6.35 9.67 -4.7 9.34 -3 9 C-3.33 7.35 -3.66 5.7 -4 4 C-5.32 4 -6.64 4 -8 4 Z " fill="#002D4E" transform="translate(251,359)"/>
<path d="M0 0 C0.76828125 -0.00386719 1.5365625 -0.00773438 2.328125 -0.01171875 C6.98796251 -0.00379386 11.40372732 0.35487984 16 1.125 C16.3125 3.4375 16.3125 3.4375 16 6.125 C12.15021875 9.14029755 9.19533743 9.48384024 4.38671875 9.41796875 C3.13955078 9.40830078 1.89238281 9.39863281 0.60742188 9.38867188 C-0.68615234 9.36353516 -1.97972656 9.33839844 -3.3125 9.3125 C-5.28186523 9.29219727 -5.28186523 9.29219727 -7.29101562 9.27148438 C-10.52776077 9.23617443 -13.76367105 9.1868528 -17 9.125 C-17 8.465 -17 7.805 -17 7.125 C-17.66 7.125 -18.32 7.125 -19 7.125 C-19 4.125 -19 4.125 -17.9375 2.5 C-13.1209635 -0.91818719 -5.7326573 -0.02885566 0 0 Z " fill="#767379" transform="translate(275,244.875)"/>
<path d="M0 0 C1.43739513 -0.02712066 2.87493863 -0.04645067 4.3125 -0.0625 C5.51326172 -0.07990234 5.51326172 -0.07990234 6.73828125 -0.09765625 C9 0 9 0 12 1 C11.67 2.32 11.34 3.64 11 5 C11.99 5 12.98 5 14 5 C14.495 6.485 14.495 6.485 15 8 C14.34 8 13.68 8 13 8 C13 8.66 13 9.32 13 10 C7.43896293 11.73999365 1.45474914 11.18595067 -4.31445312 11.18530273 C-6.46505261 11.18746487 -8.61511784 11.2055674 -10.765625 11.22460938 C-19.01246181 11.25714762 -26.90245269 10.70632414 -35 9 C-35 8.34 -35 7.68 -35 7 C-38.3 7 -41.6 7 -45 7 C-45 7.66 -45 8.32 -45 9 C-46.98 9 -48.96 9 -51 9 C-51 8.67 -51 8.34 -51 8 C-49.35 8 -47.7 8 -46 8 C-46 7.34 -46 6.68 -46 6 C-42.10835652 4.70278551 -39.10570774 4.86966007 -35 5 C-34.34 5.33 -33.68 5.66 -33 6 C-33 6.66 -33 7.32 -33 8 C-28.41617026 7.89018094 -23.83316568 7.7595352 -19.25 7.625 C-17.94804687 7.5940625 -16.64609375 7.563125 -15.3046875 7.53125 C-13.42910156 7.47324219 -13.42910156 7.47324219 -11.515625 7.4140625 C-10.36352539 7.3826416 -9.21142578 7.3512207 -8.02441406 7.31884766 C-5.12394753 7.01306712 -3.38309685 6.65425812 -1 5 C-0.18828772 2.44480079 -0.18828772 2.44480079 0 0 Z " fill="#AEACB0" transform="translate(291,246)"/>
<path d="M0 0 C9.18785151 -0.23391984 18.22118895 0.04462588 27.375 0.875 C28.29627686 0.95347168 29.21755371 1.03194336 30.16674805 1.11279297 C31.02695557 1.19674316 31.88716309 1.28069336 32.7734375 1.3671875 C33.54091309 1.44050293 34.30838867 1.51381836 35.09912109 1.58935547 C37 2 37 2 39 4 C36.20829543 6.79170457 33.12822601 6.87841161 29.375 7.5 C27.91632292 7.75454837 26.4579829 8.01103642 25 8.26953125 C24.30390625 8.39279785 23.6078125 8.51606445 22.890625 8.64306641 C20.68837267 9.05883254 18.53535234 9.59255922 16.375 10.1875 C10.04232365 11.7120332 10.04232365 11.7120332 7 11 C0 3.94320487 0 3.94320487 0 0 Z " fill="#003158" transform="translate(256,178)"/>
<path d="M0 0 C1.44814087 0.31287964 1.44814087 0.31287964 2.92553711 0.63208008 C15.14656887 3.1128849 27.12212838 3.54234667 39.5625 3.6875 C41.5566616 3.72077119 43.55080311 3.75526937 45.54492188 3.79101562 C50.36316772 3.87477409 55.18137694 3.94209847 60 4 C60 4.66 60 5.32 60 6 C64.62 6 69.24 6 74 6 C74 5.67 74 5.34 74 5 C75.26481201 4.98541748 76.52962402 4.97083496 77.83276367 4.95581055 C82.58368383 4.89726916 87.33415729 4.82004606 92.0847168 4.73754883 C94.12988973 4.70455957 96.17514803 4.67644928 98.22045898 4.65356445 C113.46968269 4.53980289 113.46968269 4.53980289 128.37231445 1.63208008 C131.32222839 0.92248915 133.9768916 0.8964822 137 1 C137.33 1.66 137.66 2.32 138 3 C136.6696875 3.2165625 136.6696875 3.2165625 135.3125 3.4375 C133.39089476 3.76381032 131.47185728 4.10833697 129.5625 4.5 C123.09369711 5.76220544 116.9128153 6.13702516 110.34765625 6.09765625 C109.44752304 6.0962413 108.54738983 6.09482635 107.61997986 6.09336853 C104.76745163 6.0878066 101.91500419 6.07526127 99.0625 6.0625 C97.11914176 6.05748008 95.17578229 6.05291803 93.23242188 6.04882812 C88.4882505 6.03784966 83.74413891 6.02061153 79 6 C79 6.66 79 7.32 79 8 C70.42 8 61.84 8 53 8 C53 7.34 53 6.68 53 6 C51.8855249 6.00523682 50.7710498 6.01047363 49.62280273 6.01586914 C45.46493339 6.03404906 41.30706751 6.0454793 37.14916992 6.05493164 C35.3539165 6.05994225 33.55866713 6.06675255 31.76342773 6.07543945 C29.17430622 6.0876489 26.58523893 6.09326116 23.99609375 6.09765625 C22.80348183 6.10539818 22.80348183 6.10539818 21.58677673 6.11329651 C14.04796187 6.11404548 6.73253311 5.60671416 0 2 C0 1.34 0 0.68 0 0 Z " fill="#E9E9EA" transform="translate(185,254)"/>
<path d="M0 0 C1.33333161 0.00503573 2.66666511 0.0095949 4 0.01367188 C7.20838361 0.02529645 10.41666551 0.04163331 13.625 0.0625 C13.625 0.3925 13.625 0.7225 13.625 1.0625 C12.9858667 1.08231934 12.3467334 1.10213867 11.68823242 1.12255859 C8.72931367 1.21913497 5.77097741 1.32826391 2.8125 1.4375 C1.80767578 1.4684375 0.80285156 1.499375 -0.23242188 1.53125 C-7.09977283 1.79622817 -13.64999153 2.64959241 -20.375 4.0625 C-20.705 5.7125 -21.035 7.3625 -21.375 9.0625 C-13.92748225 11.37574415 -6.63314014 11.49827707 1.125 11.6875 C3.0740625 11.74550781 3.0740625 11.74550781 5.0625 11.8046875 C8.24986286 11.89843347 11.4372279 11.98414349 14.625 12.0625 C14.625 12.3925 14.625 12.7225 14.625 13.0625 C-1.18926301 15.61917355 -16.68455156 13.55459037 -32.375 11.0625 C-32.375 10.4025 -32.375 9.7425 -32.375 9.0625 C-33.035 9.0625 -33.695 9.0625 -34.375 9.0625 C-33.5 4.3125 -33.5 4.3125 -32.375 2.0625 C-22.40694795 -1.26018402 -10.39274263 -0.06879107 0 0 Z " fill="#B2B0B4" transform="translate(225.375,242.9375)"/>
<path d="M0 0 C-0.433125 0.85851562 -0.433125 0.85851562 -0.875 1.734375 C-1.5962328 3.18685772 -2.28692681 4.65514954 -2.9375 6.140625 C-4.10448408 8.45743163 -5.13631442 10.18376938 -7 12 C-11.22194881 12.97910326 -15.18965602 12.37925373 -19.38671875 11.5 C-22.52671891 10.89922269 -25.62421415 10.66293435 -28.8125 10.4375 C-29.97394531 10.35371094 -31.13539063 10.26992187 -32.33203125 10.18359375 C-33.65267578 10.09271484 -33.65267578 10.09271484 -35 10 C-35.33 9.01 -35.66 8.02 -36 7 C-32.19002645 6.0108245 -28.37662983 5.03551503 -24.5625 4.0625 C-23.49322266 3.78470703 -22.42394531 3.50691406 -21.32226562 3.22070312 C-14.21124275 1.4157646 -7.37193786 0 0 0 Z " fill="#00335B" transform="translate(244,181)"/>
<path d="M0 0 C5.61 0 11.22 0 17 0 C17 1.65 17 3.3 17 5 C15.02 5 13.04 5 11 5 C11 12.26 11 19.52 11 27 C9.68 27.33 8.36 27.66 7 28 C5 26 5 26 4.77294922 23.84521484 C4.78342285 22.97590332 4.79389648 22.1065918 4.8046875 21.2109375 C4.81113281 20.26992188 4.81757813 19.32890625 4.82421875 18.359375 C4.84097656 17.37453125 4.85773438 16.3896875 4.875 15.375 C4.88402344 14.38242187 4.89304687 13.38984375 4.90234375 12.3671875 C4.92595884 9.91121866 4.95889201 7.45572832 5 5 C3.35 5 1.7 5 0 5 C-0.33 4.01 -0.66 3.02 -1 2 C-0.67 1.34 -0.34 0.68 0 0 Z " fill="#002660" transform="translate(326,358)"/>
<path d="M0 0 C2.5 0.125 2.5 0.125 3.5 1.125 C3.58685603 2.68672745 3.60702219 4.25229344 3.59765625 5.81640625 C3.59443359 6.76064453 3.59121094 7.70488281 3.58789062 8.67773438 C3.57951172 9.67095703 3.57113281 10.66417969 3.5625 11.6875 C3.55798828 12.68458984 3.55347656 13.68167969 3.54882812 14.70898438 C3.53700007 17.18104849 3.52051849 19.65299518 3.5 22.125 C5.15 22.125 6.8 22.125 8.5 22.125 C8.83 23.775 9.16 25.425 9.5 27.125 C7.52090602 27.15186553 5.54171029 27.17133375 3.5625 27.1875 C2.46035156 27.19910156 1.35820312 27.21070313 0.22265625 27.22265625 C-2.5 27.125 -2.5 27.125 -3.5 26.125 C-3.59959621 24.28340977 -3.63080411 22.43803033 -3.6328125 20.59375 C-3.63410156 19.47355469 -3.63539063 18.35335938 -3.63671875 17.19921875 C-3.63285156 16.01972656 -3.62898437 14.84023438 -3.625 13.625 C-3.62886719 12.44550781 -3.63273438 11.26601563 -3.63671875 10.05078125 C-3.63542969 8.93058594 -3.63414062 7.81039063 -3.6328125 6.65625 C-3.63168457 5.62048828 -3.63055664 4.58472656 -3.62939453 3.51757812 C-3.45137181 0.22583731 -3.30058218 0.16502911 0 0 Z " fill="#002558" transform="translate(194.5,357.875)"/>
<path d="M0 0 C0.74886475 0.00523682 1.49772949 0.01047363 2.26928711 0.01586914 C3.07817383 0.0190918 3.88706055 0.02231445 4.72045898 0.02563477 C5.5705957 0.03401367 6.42073242 0.04239258 7.29663086 0.05102539 C8.15063477 0.05553711 9.00463867 0.06004883 9.88452148 0.06469727 C12.00108749 0.07652166 14.11761771 0.0944577 16.23413086 0.11352539 C15.90413086 1.76352539 15.57413086 3.41352539 15.23413086 5.11352539 C13.25413086 5.11352539 11.27413086 5.11352539 9.23413086 5.11352539 C9.23413086 12.37352539 9.23413086 19.63352539 9.23413086 27.11352539 C8.57413086 27.44352539 7.91413086 27.77352539 7.23413086 28.11352539 C6.24413086 27.78352539 5.25413086 27.45352539 4.23413086 27.11352539 C4.23413086 19.85352539 4.23413086 12.59352539 4.23413086 5.11352539 C2.58413086 5.11352539 0.93413086 5.11352539 -0.76586914 5.11352539 C-1.42586914 3.79352539 -2.08586914 2.47352539 -2.76586914 1.11352539 C-1.76586914 0.11352539 -1.76586914 0.11352539 0 0 Z " fill="#003059" transform="translate(131.765869140625,357.886474609375)"/>
<path d="M0 0 C0.82693359 0.00451172 1.65386719 0.00902344 2.50585938 0.01367188 C4.52477146 0.02534189 6.54364574 0.04327282 8.5625 0.0625 C9.625 2.4375 9.625 2.4375 10.5625 5.0625 C10.2325 5.7225 9.9025 6.3825 9.5625 7.0625 C6.02090343 7.12091253 2.47943207 7.15623452 -1.0625 7.1875 C-2.06152344 7.20425781 -3.06054688 7.22101563 -4.08984375 7.23828125 C-9.27838709 7.27264246 -13.58673649 7.16504937 -18.4375 5.0625 C-17.875 3.125 -17.875 3.125 -16.4375 1.0625 C-10.96578364 -0.07744091 -5.5704204 -0.05835251 0 0 Z " fill="#59565B" transform="translate(234.4375,245.9375)"/>
<path d="M0 0 C3.91665027 -0.02953391 7.83327113 -0.04697503 11.75 -0.0625 C12.84183594 -0.07087891 13.93367188 -0.07925781 15.05859375 -0.08789062 C28.65676782 -0.12812191 41.96465826 0.94456035 55 5 C55 8 55 8 53.359375 9.64453125 C50.53712509 11.26592317 48.4851382 11.49493225 45.25 11.6875 C44.26515625 11.75324219 43.2803125 11.81898438 42.265625 11.88671875 C41.14414062 11.94279297 41.14414062 11.94279297 40 12 C40 11.01 40 10.02 40 9 C39.01 8.67 38.02 8.34 37 8 C37.66 6.68 38.32 5.36 39 4 C38.16855469 3.93941406 37.33710938 3.87882813 36.48046875 3.81640625 C34.85044922 3.69072266 34.85044922 3.69072266 33.1875 3.5625 C32.10855469 3.48128906 31.02960938 3.40007812 29.91796875 3.31640625 C27 3 27 3 24 2 C22.15533558 1.85110253 20.30642725 1.7520899 18.45703125 1.68359375 C17.38388672 1.64169922 16.31074219 1.59980469 15.20507812 1.55664062 C14.08552734 1.51732422 12.96597656 1.47800781 11.8125 1.4375 C10.68134766 1.39431641 9.55019531 1.35113281 8.38476562 1.30664062 C5.58996646 1.20050901 2.79507838 1.09845615 0 1 C0 0.67 0 0.34 0 0 Z " fill="#B8B6B9" transform="translate(264,243)"/>
<path d="M0 0 C3.3 0 6.6 0 10 0 C10 0.66 10 1.32 10 2 C18.58337401 2.87099724 27.12930363 3.21565619 35.75317383 3.24023438 C37.80005559 3.24994099 39.84592978 3.28109991 41.89257812 3.3125 C50.19924947 3.37574719 57.71861171 2.50716207 65.79956055 0.54980469 C68.95069703 0.00846978 70.95335008 0.13536656 74 1 C62.2655945 7.78320209 44.05260248 5.23163292 31.0625 5.125 C28.91471774 5.11494469 26.7669309 5.10582337 24.61914062 5.09765625 C19.41264501 5.07585748 14.20637457 5.04146981 9 5 C9.66 5.66 10.32 6.32 11 7 C7.37 7 3.74 7 0 7 C4 4 4 4 7 4 C7 3.34 7 2.68 7 2 C5.68 2 4.36 2 3 2 C3 2.66 3 3.32 3 4 C-2.28 4 -7.56 4 -13 4 C-13 3.67 -13 3.34 -13 3 C-6.565 2.505 -6.565 2.505 0 2 C0 1.34 0 0.68 0 0 Z " fill="#C7C5C9" transform="translate(246,253)"/>
<path d="M0 0 C-0.60769071 6.44152148 -0.60769071 6.44152148 -2.2265625 8.74609375 C-4.68244061 10.48251858 -6.12211375 10.14840285 -9.0625 9.75 C-9.94035156 9.64171875 -10.81820312 9.5334375 -11.72265625 9.421875 C-14 9 -14 9 -16 8 C-16 7.34 -16 6.68 -16 6 C-16.66 6 -17.32 6 -18 6 C-18.33 5.01 -18.66 4.02 -19 3 C-17.43840941 2.51787786 -15.87568072 2.03944127 -14.3125 1.5625 C-13.00732422 1.16224609 -13.00732422 1.16224609 -11.67578125 0.75390625 C-4.12262658 -1.37420886 -4.12262658 -1.37420886 0 0 Z " fill="#0076C4" transform="translate(231,225)"/>
<path d="M0 0 C-0.875 7.875 -0.875 7.875 -2 9 C-9.46197824 9.67267309 -16.69515146 8.40574405 -24 7 C-24 6.34 -24 5.68 -24 5 C-20.75195713 4.15890901 -17.50127696 3.32849344 -14.25 2.5 C-13.32960937 2.26152344 -12.40921875 2.02304688 -11.4609375 1.77734375 C-10.57148438 1.55175781 -9.68203125 1.32617188 -8.765625 1.09375 C-7.94868164 0.88427734 -7.13173828 0.67480469 -6.29003906 0.45898438 C-4 0 -4 0 0 0 Z " fill="#003057" transform="translate(232,213)"/>
<path d="M0 0 C1.43739513 -0.02712066 2.87493863 -0.04645067 4.3125 -0.0625 C5.51326172 -0.07990234 5.51326172 -0.07990234 6.73828125 -0.09765625 C9 0 9 0 12 1 C11.8125 2.8125 11.8125 2.8125 11 5 C5.72567832 8.95574126 0.58402384 9.12592081 -5.83203125 9.09765625 C-7.12431641 9.09443359 -8.41660156 9.09121094 -9.74804688 9.08789062 C-11.10286526 9.07953665 -12.45768297 9.07107172 -13.8125 9.0625 C-15.18684735 9.05748 -16.56119645 9.05291797 -17.93554688 9.04882812 C-21.29040924 9.03705668 -24.64518221 9.02061283 -28 9 C-28 8.67 -28 8.34 -28 8 C-26.98631348 7.970271 -26.98631348 7.970271 -25.95214844 7.93994141 C-22.88437956 7.84456762 -19.81728002 7.73493835 -16.75 7.625 C-15.15478516 7.57859375 -15.15478516 7.57859375 -13.52734375 7.53125 C-11.99013672 7.47324219 -11.99013672 7.47324219 -10.421875 7.4140625 C-9.47924805 7.3826416 -8.53662109 7.3512207 -7.56542969 7.31884766 C-4.9065802 6.9883892 -3.22502139 6.48271151 -1 5 C-0.18828772 2.44480079 -0.18828772 2.44480079 0 0 Z " fill="#949196" transform="translate(291,246)"/>
<path d="M0 0 C-0.33 0.66 -0.66 1.32 -1 2 C-1.86496094 1.83757812 -2.72992188 1.67515625 -3.62109375 1.5078125 C-9.72863006 0.63990752 -15.90805767 0.85613099 -22.0625 0.875 C-23.29677734 0.87113281 -24.53105469 0.86726562 -25.80273438 0.86328125 C-41.6546419 0.68802315 -41.6546419 0.68802315 -57 4 C-59.875 4.125 -59.875 4.125 -62 4 C-62 3.34 -62 2.68 -62 2 C-57.78329454 0.0437117 -53.64152028 -0.63476895 -49.0625 -1.125 C-48.28398682 -1.2084668 -47.50547363 -1.29193359 -46.70336914 -1.37792969 C-31.04702095 -2.89032212 -15.53770038 -2.30798732 0 0 Z " fill="#C7C6C9" transform="translate(247,243)"/>
<path d="M0 0 C2.87525669 -0.05425013 5.74947646 -0.09379277 8.625 -0.125 C9.43324219 -0.14175781 10.24148438 -0.15851563 11.07421875 -0.17578125 C15.80093815 -0.21420986 19.55387702 0.17262906 24 2 C23.67 2.66 23.34 3.32 23 4 C20.11734851 4.96088383 18.32337729 5.11670941 15.33203125 5.09765625 C14.43935547 5.09443359 13.54667969 5.09121094 12.62695312 5.08789062 C11.23379883 5.07532227 11.23379883 5.07532227 9.8125 5.0625 C8.87212891 5.05798828 7.93175781 5.05347656 6.96289062 5.04882812 C4.64186288 5.03704626 2.32096356 5.02059558 0 5 C0 3.35 0 1.7 0 0 Z " fill="#454348" transform="translate(259,247)"/>
<path d="M0 0 C0 0.33 0 0.66 0 1 C-0.59538574 1.04487549 -1.19077148 1.08975098 -1.80419922 1.13598633 C-4.49583026 1.34701735 -7.18518718 1.57948074 -9.875 1.8125 C-10.81214844 1.88275391 -11.74929687 1.95300781 -12.71484375 2.02539062 C-13.61074219 2.10595703 -14.50664062 2.18652344 -15.4296875 2.26953125 C-16.25710449 2.33760986 -17.08452148 2.40568848 -17.93701172 2.47583008 C-20.38563586 2.85280761 -20.38563586 2.85280761 -22 6 C-21.195625 5.979375 -20.39125 5.95875 -19.5625 5.9375 C-17 6 -17 6 -16 7 C-14.65984779 7.15582303 -13.31241097 7.25044142 -11.96484375 7.31640625 C-10.75151367 7.37924805 -10.75151367 7.37924805 -9.51367188 7.44335938 C-8.66353516 7.48267578 -7.81339844 7.52199219 -6.9375 7.5625 C-6.08349609 7.60568359 -5.22949219 7.64886719 -4.34960938 7.69335938 C-2.23327963 7.79976702 -0.11666187 7.90041731 2 8 C2 8.33 2 8.66 2 9 C-1.87485635 9.08751413 -5.74945643 9.14056435 -9.625 9.1875 C-10.71941406 9.21263672 -11.81382812 9.23777344 -12.94140625 9.26367188 C-18.79681683 9.31690288 -23.06324498 9.29983099 -28 6 C-27.67 5.01 -27.34 4.02 -27 3 C-18.45594061 -1.19435643 -9.28383829 -0.27040306 0 0 Z " fill="#726F75" transform="translate(238,245)"/>
<path d="M0 0 C1.93842773 0.00966797 1.93842773 0.00966797 3.91601562 0.01953125 C5.27083605 0.03623923 6.62565376 0.05316908 7.98046875 0.0703125 C9.35481126 0.08035247 10.72916078 0.08947654 12.10351562 0.09765625 C15.45851192 0.12120008 18.81315074 0.15408683 22.16796875 0.1953125 C22.16796875 0.5253125 22.16796875 0.8553125 22.16796875 1.1953125 C21.52883545 1.21513184 20.88970215 1.23495117 20.23120117 1.25537109 C17.27228242 1.35194747 14.31394616 1.46107641 11.35546875 1.5703125 C10.35064453 1.60125 9.34582031 1.6321875 8.31054688 1.6640625 C1.44319592 1.92904067 -5.10702278 2.78240491 -11.83203125 4.1953125 C-12.16203125 5.8453125 -12.49203125 7.4953125 -12.83203125 9.1953125 C-11.51203125 9.8553125 -10.19203125 10.5153125 -8.83203125 11.1953125 C-12.46203125 10.5353125 -16.09203125 9.8753125 -19.83203125 9.1953125 C-19.50203125 7.8753125 -19.17203125 6.5553125 -18.83203125 5.1953125 C-15.58203125 3.5703125 -15.58203125 3.5703125 -11.83203125 2.1953125 C-11.07059814 1.84098145 -10.30916504 1.48665039 -9.5246582 1.12158203 C-6.22004528 -0.015212 -3.49211347 -0.03076752 0 0 Z " fill="#A3A0A4" transform="translate(216.83203125,242.8046875)"/>
<path d="M0 0 C2.72201216 0.230679 5.31276112 0.56344495 8 1 C9.258125 1.144375 10.51625 1.28875 11.8125 1.4375 C15 2 15 2 18 4 C15.41806023 4.67250524 12.83467929 5.33817901 10.25 6 C9.52039063 6.19078125 8.79078125 6.3815625 8.0390625 6.578125 C4.55428354 7.46515964 1.61876278 8 -2 8 C-2.125 5.125 -2.125 5.125 -2 2 C-1.34 1.34 -0.68 0.68 0 0 Z " fill="#002E53" transform="translate(272,208)"/>
<path d="M0 0 C1.44814087 0.31287964 1.44814087 0.31287964 2.92553711 0.63208008 C15.14656887 3.1128849 27.12212838 3.54234667 39.5625 3.6875 C41.5566616 3.72077119 43.55080311 3.75526937 45.54492188 3.79101562 C50.36316772 3.87477409 55.18137694 3.94209847 60 4 C59.67 4.66 59.34 5.32 59 6 C51.80993809 5.88237223 44.62002718 5.7575412 37.43017578 5.62768555 C34.98391561 5.58435588 32.53762558 5.54267939 30.09130859 5.50268555 C26.57640582 5.44493562 23.06165309 5.38125438 19.546875 5.31640625 C18.4519574 5.29969376 17.35703979 5.28298126 16.22894287 5.26576233 C15.20818665 5.24581711 14.18743042 5.22587189 13.13574219 5.20532227 C12.23861511 5.18977798 11.34148804 5.1742337 10.41717529 5.15821838 C6.46846613 4.89975207 3.47514998 3.86168749 0 2 C0 1.34 0 0.68 0 0 Z " fill="#E1E0E2" transform="translate(185,254)"/>
<path d="M0 0 C1.28132812 0.00902344 2.56265625 0.01804688 3.8828125 0.02734375 C4.87023437 0.03894531 5.85765625 0.05054688 6.875 0.0625 C7.205 1.7125 7.535 3.3625 7.875 5.0625 C5.43742587 5.08948422 3.00015085 5.10933099 0.5625 5.125 C-0.12779297 5.13337891 -0.81808594 5.14175781 -1.52929688 5.15039062 C-4.6733025 5.16557906 -7.11920019 5.06443327 -10.125 4.0625 C-9.795 3.0725 -9.465 2.0825 -9.125 1.0625 C-6.12186252 -0.43906874 -3.33432478 -0.03031204 0 0 Z " fill="#3A393E" transform="translate(235.125,246.9375)"/>
<path d="M0 0 C1.39593384 0.2004895 1.39593384 0.2004895 2.82006836 0.4050293 C3.80370361 0.55238525 4.78733887 0.69974121 5.80078125 0.8515625 C15.90683415 2.27895291 25.91794114 3.10744282 36.11328125 3.4765625 C36.11328125 3.8065625 36.11328125 4.1365625 36.11328125 4.4765625 C31.9730964 4.55214869 27.83330366 4.60582123 23.69262695 4.64135742 C22.29151393 4.65621021 20.8904453 4.67649806 19.48950195 4.70288086 C9.28486535 4.88988642 0.05693875 3.86616537 -9.88671875 1.4765625 C-9.88671875 1.1465625 -9.88671875 0.8165625 -9.88671875 0.4765625 C-6.35307335 -0.38119857 -3.58871909 -0.54324486 0 0 Z " fill="#CCCACE" transform="translate(196.88671875,253.5234375)"/>
<path d="M0 0 C-9.56677638 5.61080098 -24.03889354 4.29404643 -34.81054688 4.20581055 C-37.15765998 4.18724161 -39.50438262 4.1853039 -41.8515625 4.18554688 C-43.36198256 4.18064038 -44.87239999 4.1748159 -46.3828125 4.16796875 C-47.07553253 4.16685593 -47.76825256 4.1657431 -48.48196411 4.16459656 C-52.10861521 4.12910597 -55.47188755 3.85330102 -59 3 C-59 2.67 -59 2.34 -59 2 C-57.89188965 2.01571045 -56.7837793 2.0314209 -55.64208984 2.04760742 C-51.46361795 2.10260914 -47.28517683 2.13660089 -43.10644531 2.16479492 C-41.31049183 2.17972375 -39.51457377 2.20007424 -37.71875 2.22631836 C-27.73900016 2.36832931 -18.61457184 2.22134899 -8.93212891 -0.44799805 C-5.65666399 -1.06463636 -3.23146504 -0.72697419 0 0 Z " fill="#CCCACD" transform="translate(320,254)"/>
<path d="M0 0 C1.1446875 -0.01224609 2.289375 -0.02449219 3.46875 -0.03710938 C5.11230469 -0.04000977 5.11230469 -0.04000977 6.7890625 -0.04296875 C7.7888916 -0.04707764 8.7887207 -0.05118652 9.81884766 -0.05541992 C12.375 0.1875 12.375 0.1875 15.375 2.1875 C4.815 2.1875 -5.745 2.1875 -16.625 2.1875 C-16.955 3.1775 -17.285 4.1675 -17.625 5.1875 C-18.285 5.1875 -18.945 5.1875 -19.625 5.1875 C-19.625 5.8475 -19.625 6.5075 -19.625 7.1875 C-22.265 7.1875 -24.905 7.1875 -27.625 7.1875 C-27.625 6.1975 -27.625 5.2075 -27.625 4.1875 C-24.325 3.8575 -21.025 3.5275 -17.625 3.1875 C-17.625 2.5275 -17.625 1.8675 -17.625 1.1875 C-11.76219512 -0.15714925 -5.98757283 0.00339432 0 0 Z " fill="#928F94" transform="translate(275.625,243.8125)"/>
<path d="M0 0 C2.97973615 -0.08184423 5.95716832 -0.14089764 8.9375 -0.1875 C9.76830078 -0.21263672 10.59910156 -0.23777344 11.45507812 -0.26367188 C17.50202899 -0.33425885 22.39516349 0.74535602 28 3 C28 3.66 28 4.32 28 5 C21.9384737 7.13540594 16.45123306 7.23853866 10.0625 7.125 C9.09248047 7.11597656 8.12246094 7.10695312 7.12304688 7.09765625 C4.74843593 7.07426107 2.37435224 7.04148176 0 7 C0 6.67 0 6.34 0 6 C0.59014893 5.98018066 1.18029785 5.96036133 1.78833008 5.93994141 C4.46350096 5.84465341 7.13789498 5.73499061 9.8125 5.625 C10.74126953 5.5940625 11.67003906 5.563125 12.62695312 5.53125 C13.51962891 5.49257812 14.41230469 5.45390625 15.33203125 5.4140625 C16.56530151 5.36693115 16.56530151 5.36693115 17.82348633 5.31884766 C20.28952937 5.11626378 20.28952937 5.11626378 23 3 C18.26120232 1.85149303 13.53708638 1.67098443 8.6875 1.4375 C7.85154297 1.39431641 7.01558594 1.35113281 6.15429688 1.30664062 C4.10303065 1.20114693 2.0515352 1.10012685 0 1 C0 0.67 0 0.34 0 0 Z " fill="#5D5A60" transform="translate(259,246)"/>
<path d="M0 0 C2.875 0.25 2.875 0.25 6 1 C7.375 3.0625 7.375 3.0625 8 5 C-0.42857143 8.42857143 -0.42857143 8.42857143 -5 8 C-4.360625 7.608125 -3.72125 7.21625 -3.0625 6.8125 C-0.56221181 4.61527704 -0.35049575 3.24208567 0 0 Z " fill="#878489" transform="translate(291,246)"/>
<path d="M0 0 C2.27113803 0.14100857 4.54190725 0.28796755 6.8125 0.4375 C8.07707031 0.51871094 9.34164062 0.59992188 10.64453125 0.68359375 C14 1 14 1 17 2 C17 1.34 17 0.68 17 0 C19.31 0 21.62 0 24 0 C24 0.33 24 0.66 24 1 C22.35 1 20.7 1 19 1 C19 1.66 19 2.32 19 3 C14.32517708 4.49594333 9.64398011 4.54799337 5 3 C5 2.34 5 1.68 5 1 C3.35 1 1.7 1 0 1 C0 0.67 0 0.34 0 0 Z " fill="#B6B4B7" transform="translate(239,244)"/>
<path d="M0 0 C1.65 0 3.3 0 5 0 C5 0.66 5 1.32 5 2 C7.64 2 10.28 2 13 2 C13 2.33 13 2.66 13 3 C11.02 3 9.04 3 7 3 C7 3.66 7 4.32 7 5 C4.36 5 1.72 5 -1 5 C-1 4.34 -1 3.68 -1 3 C-2.98 3 -4.96 3 -7 3 C-7 2.67 -7 2.34 -7 2 C-3.535 1.505 -3.535 1.505 0 1 C0 0.67 0 0.34 0 0 Z " fill="#DAD8DB" transform="translate(248,240)"/>
<path d="M0 0 C1.916588 -0.02712153 3.8332873 -0.04645097 5.75 -0.0625 C7.35101563 -0.07990234 7.35101563 -0.07990234 8.984375 -0.09765625 C11.53368501 -0.01510087 13.57933591 0.25382442 16 1 C16 1.99 16 2.98 16 4 C17.32 4.33 18.64 4.66 20 5 C15.46324303 5.17791204 12.092225 5.0461125 8 3 C7.67 2.67 7.34 2.34 7 2 C4.67182036 1.63239269 2.3381615 1.29758419 0 1 C0 0.67 0 0.34 0 0 Z " fill="#E4E2E4" transform="translate(302,241)"/>
<path d="M0 0 C-3.15264303 1.78128058 -5.99847031 2.48546662 -9.5625 3.0625 C-12.51726099 3.54761001 -15.15347056 4.05115685 -18 5 C-19.66621616 5.03874921 -21.33394172 5.0450286 -23 5 C-23 4.34 -23 3.68 -23 3 C-15.8251401 -0.4717064 -7.79693662 -0.1237609 0 0 Z " fill="#CDCCCF" transform="translate(208,242)"/>
<path d="M0 0 C4.62 0 9.24 0 14 0 C14 0.99 14 1.98 14 3 C9.38 3 4.76 3 0 3 C0 2.01 0 1.02 0 0 Z " fill="#25242A" transform="translate(260,248)"/>
<path d="M0 0 C2.85423192 -0.02718316 5.70820015 -0.04692705 8.5625 -0.0625 C9.36236328 -0.07087891 10.16222656 -0.07925781 10.98632812 -0.08789062 C15.77163104 -0.10742247 20.28145051 0.19562982 25 1 C25 2.65 25 4.3 25 6 C24.61030029 5.52006592 24.22060059 5.04013184 23.8190918 4.5456543 C21.46504302 2.54545529 19.95389744 2.49942582 16.89453125 2.26953125 C15.91162109 2.18896484 14.92871094 2.10839844 13.91601562 2.02539062 C12.89185547 1.95513672 11.86769531 1.88488281 10.8125 1.8125 C9.77673828 1.73064453 8.74097656 1.64878906 7.67382812 1.56445312 C5.11656337 1.36411441 2.55900436 1.17647213 0 1 C0 0.67 0 0.34 0 0 Z M21 6 C21.99 6.33 22.98 6.66 24 7 C22.68 7.33 21.36 7.66 20 8 C20.33 7.34 20.66 6.68 21 6 Z " fill="#79767C" transform="translate(266,245)"/>
<path d="M0 0 C-0.99 0.66 -1.98 1.32 -3 2 C-4.01868662 2.98095748 -5.02351983 3.97702078 -6 5 C-4.35 5.33 -2.7 5.66 -1 6 C-1 6.33 -1 6.66 -1 7 C-7.75 6.125 -7.75 6.125 -10 5 C-9 2 -9 2 -7.25 0.8125 C-4.70039426 -0.10819096 -2.69076919 -0.14948718 0 0 Z " fill="#817E84" transform="translate(216,246)"/>
<path d="M0 0 C-3.26613695 1.91302307 -5.99445248 2.35674661 -9.75 2.625 C-10.73484375 2.69976562 -11.7196875 2.77453125 -12.734375 2.8515625 C-13.48203125 2.90054687 -14.2296875 2.94953125 -15 3 C-9.84110855 -0.43926097 -6.07788122 -1.44711458 0 0 Z " fill="#D6D4D7" transform="translate(320,254)"/>
<path d="M0 0 C2.05078125 0.03255208 4.1015625 0.06510417 6.15234375 0.09765625 C6.15234375 1.08765625 6.15234375 2.07765625 6.15234375 3.09765625 C2.77734375 3.22265625 2.77734375 3.22265625 -0.84765625 3.09765625 C-1.50765625 2.43765625 -2.16765625 1.77765625 -2.84765625 1.09765625 C-1.84765625 0.09765625 -1.84765625 0.09765625 0 0 Z " fill="#1C1C21" transform="translate(235.84765625,247.90234375)"/>
<path d="M0 0 C1.65 0 3.3 0 5 0 C5.66 1.32 6.32 2.64 7 4 C6.01 4 5.02 4 4 4 C3.67 3.34 3.34 2.68 3 2 C2.01 1.34 1.02 0.68 0 0 Z M4 5 C3 6 3 6 -0.0625 6.0625 C-1.5165625 6.0315625 -1.5165625 6.0315625 -3 6 C-3 5.67 -3 5.34 -3 5 C1.75 3.875 1.75 3.875 4 5 Z " fill="#6C696F" transform="translate(283,247)"/>
<path d="M0 0 C2.375 0.8125 2.375 0.8125 4.375 2.8125 C0.745 2.8125 -2.885 2.8125 -6.625 2.8125 C-2.625 -0.1875 -2.625 -0.1875 0 0 Z " fill="#C2BFC2" transform="translate(252.625,257.1875)"/>
<path d="M0 0 C-1.125 1.5 -1.125 1.5 -3 3 C-6.1875 3.1875 -6.1875 3.1875 -9 3 C-9 2.01 -9 1.02 -9 0 C-3.375 -1.125 -3.375 -1.125 0 0 Z " fill="#9C999D" transform="translate(257,248)"/>
<path d="M0 0 C5.94 0.99 5.94 0.99 12 2 C12 2.33 12 2.66 12 3 C8.04 3 4.08 3 0 3 C0 2.01 0 1.02 0 0 Z " fill="#ADAAAD" transform="translate(200,252)"/>
<path d="M0 0 C1.98 0 3.96 0 6 0 C5.505 0.474375 5.01 0.94875 4.5 1.4375 C2.88457803 2.75923698 2.88457803 2.75923698 3 4 C1.35 4 -0.3 4 -2 4 C-1.34 2.68 -0.68 1.36 0 0 Z " fill="#5C595F" transform="translate(218,247)"/>
<path d="" fill="#0000FF" transform="translate(0,0)"/>
</svg>
