<svg id="Layer_1" data-name="Layer 1" xmlns="http://www.w3.org/2000/svg" viewBox="0 0 200.68 36.93"><defs><style>.cls-1{fill:#294e56;}</style></defs><title>Whiddon-logo-new</title><path class="cls-1" d="M164.61,24.65a5.85,5.85,0,0,0-1.76-4.3,6,6,0,0,0-8.59,0,5.88,5.88,0,0,0-1.75,4.3A6,6,0,0,0,154.26,29a6.12,6.12,0,0,0,8.59,0,6,6,0,0,0,1.76-4.34m-30,0a5.37,5.37,0,0,0-1.81-4.11,5.77,5.77,0,0,0-4.29-1.71,5.67,5.67,0,0,0-4.21,1.71,5.49,5.49,0,0,0-1.71,4.11,5.68,5.68,0,0,0,1.71,4.16,5.82,5.82,0,0,0,4.21,1.66,5.93,5.93,0,0,0,4.29-1.66,5.55,5.55,0,0,0,1.81-4.16m-29.9,0a5.4,5.4,0,0,0-1.81-4.11,5.77,5.77,0,0,0-4.29-1.71,5.67,5.67,0,0,0-4.21,1.71,5.49,5.49,0,0,0-1.71,4.11,5.68,5.68,0,0,0,1.71,4.16,5.82,5.82,0,0,0,4.21,1.66,5.93,5.93,0,0,0,4.29-1.66,5.58,5.58,0,0,0,1.81-4.16m96,5.78v5.82a9.07,9.07,0,0,1-3,.32c-4.11,0-6.15-2.22-6.15-6.65V23c0-2.73-1.43-4.39-4.15-4.39a4.38,4.38,0,0,0-4.49,4.62V36.29H176v-15a2.75,2.75,0,0,0-2.86-2.66,2.71,2.71,0,0,0-2.37,1.93,12.27,12.27,0,0,1,.69,4.11,11.57,11.57,0,0,1-3.78,8.78,13.6,13.6,0,0,1-18.35,0l-.3-.32,0,0a8.86,8.86,0,0,1-14.1.23c-1.53,2.27-4.07,3.38-7.72,3.38a11,11,0,0,1-8.22-3.42,8.87,8.87,0,0,1-14,.07v0h0c-1.52,2.27-4.06,3.38-7.71,3.38a11,11,0,0,1-8.27-3.47c-.16-.17-.3-.35-.45-.53l0,.06c-1.31,2.63-4.33,3.94-7.1,3.94a7.63,7.63,0,0,1-6.11-3.07h0a9.06,9.06,0,0,1-6.82,3.07c-4.7,0-6.94-2.75-6.94-6.24V23c0-2.73-1.43-4.39-4-4.39s-4.3,1.89-4.3,4.62V36.29H46.59V7.93a1.2,1.2,0,0,0-1.2-1.2,1.21,1.21,0,0,0-1.18.95L35.55,36.29h-6L23.74,17.17,17.9,36.29h-6L4.23,10.91h0L3.36,8A2.71,2.71,0,0,0,.77,6.13H0V.47S1.4.2,1.86.16A12.58,12.58,0,0,1,3.32.05C7.42.05,8.57,2.14,10,6.68l5.28,15.75L21,2.8H26.5l5.74,19.63S36.63,9.61,37.44,7c1.3-4.32,3.82-7.7,9.78-6.8,4.08.62,6.22,4.39,6.22,8.48v7.15c.93-2,3.42-3.33,6.52-3.33,5.49,0,8.64,3.6,8.64,9.66v5.93a2.67,2.67,0,1,0,5.34,0V14h6.89V28.09a2.66,2.66,0,0,0,2.67,2.67,2.76,2.76,0,0,0,2.88-2.15l0,.05a13.27,13.27,0,0,1-.59-4A12.07,12.07,0,0,1,89.1,16.1a10.92,10.92,0,0,1,8.27-3.51c3.51,0,6.24,1.43,6.93,3.47v-12h6.88v24a2.67,2.67,0,0,0,5.22.8,13.36,13.36,0,0,1-.68-4.27A12.07,12.07,0,0,1,119,16.1a10.92,10.92,0,0,1,8.27-3.51c3.51,0,6.24,1.43,6.93,3.47v-12h6.89v24h0a2.67,2.67,0,0,0,5.24.75l0,.05a12.22,12.22,0,0,1-.74-4.24,11.54,11.54,0,0,1,3.74-8.73,13.48,13.48,0,0,1,18.21-.12h0A10,10,0,0,1,175,12.5a10.92,10.92,0,0,1,7.95,3.41c1-2,3.56-3.41,6.69-3.41,5.59,0,8.83,3.6,8.83,9.66V28c0,1.81.37,2.45,1.52,2.45h.46ZM73.43,7.14A3.93,3.93,0,1,1,77.36,11a3.9,3.9,0,0,1-3.93-3.88" transform="translate(-0.02 -0.05)"/></svg>